<svg width="68" height="68" viewBox="0 0 68 68" fill="none" xmlns="http://www.w3.org/2000/svg">
<g filter="url(#filter0_d_553_411)">
<rect x="8" y="4" width="52" height="52" rx="8" fill="#FA7F04"/>
</g>
<path d="M48.0449 24.3579V42.1831L45.6553 42.1127L43.2432 42.0424L43.1729 33.4926C43.1494 28.7845 43.1729 24.8021 43.2432 24.6616C43.3143 24.4511 44.0171 24.3579 45.7022 24.3579H48.0449ZM29.54 18.7358C32.1634 18.7358 32.5616 18.7829 32.7022 19.1342C32.8427 19.4856 39.0272 37.0066 40.3389 40.7075L40.7598 41.9487L35.5606 41.8081L35.2559 40.8715C35.0685 40.3562 34.6463 39.161 34.3184 38.2241L33.71 36.5375H25.418L24.5508 39.2319L23.6611 41.9252H21.3184C20.0538 41.9252 19.0002 41.8314 19 41.7377C19 41.644 20.6399 36.8426 22.6309 31.0805C24.6212 25.3202 26.3301 20.1679 26.4014 19.6733L26.5654 18.7358H29.54ZM29.541 22.8354C29.424 22.7652 29.3068 22.8817 29.3066 23.1157C29.3066 23.3499 28.7213 25.4354 28.0186 27.7543C27.3159 30.0731 26.7305 31.9936 26.7305 32.017C26.7321 32.0638 27.996 32.0873 29.541 32.0873C31.0867 32.0873 32.3511 32.017 32.3516 31.9467C32.3516 31.8765 31.7661 29.9794 31.0635 27.7309C30.3608 25.4823 29.7754 23.4906 29.7754 23.3032C29.7753 23.1159 29.6814 22.9057 29.541 22.8354ZM43.2666 20.9614C42.0018 18.338 44.9526 15.8786 47.3418 17.5415C48.6067 18.4315 48.677 20.6329 47.4824 21.7573C46.241 22.9284 43.9929 22.5305 43.2666 20.9614Z" fill="#FFD6EC"/>
<defs>
<filter id="filter0_d_553_411" x="0" y="0" width="68" height="68" filterUnits="userSpaceOnUse" color-interpolation-filters="sRGB">
<feFlood flood-opacity="0" result="BackgroundImageFix"/>
<feColorMatrix in="SourceAlpha" type="matrix" values="0 0 0 0 0 0 0 0 0 0 0 0 0 0 0 0 0 0 127 0" result="hardAlpha"/>
<feOffset dy="4"/>
<feGaussianBlur stdDeviation="4"/>
<feComposite in2="hardAlpha" operator="out"/>
<feColorMatrix type="matrix" values="0 0 0 0 0 0 0 0 0 0 0 0 0 0 0 0 0 0 0.1 0"/>
<feBlend mode="normal" in2="BackgroundImageFix" result="effect1_dropShadow_553_411"/>
<feBlend mode="normal" in="SourceGraphic" in2="effect1_dropShadow_553_411" result="shape"/>
</filter>
</defs>
</svg>
