<svg width="32" height="22" viewBox="0 0 32 22" fill="none" xmlns="http://www.w3.org/2000/svg">
<path d="M27.8359 0C29.215 7.60643e-06 30.2537 0.331695 30.9521 0.995117C31.6506 1.65018 32 2.63742 32 3.95605V18.0439C32 19.354 31.6689 20.3413 31.0059 21.0049C30.3428 21.6685 29.4181 22 28.2334 22H4.16406C2.78507 22 1.74628 21.6683 1.04785 21.0049C0.349413 20.3413 0 19.3541 0 18.0439V3.95605C0 2.6375 0.331145 1.65018 0.994141 0.995117C1.65722 0.331547 2.58191 0 3.7666 0H27.8359ZM18.4199 13.3867C18.04 13.7182 17.6466 13.9644 17.2402 14.126C16.8335 14.2791 16.4175 14.3564 15.9932 14.3564C15.5689 14.3564 15.1537 14.2791 14.7471 14.126C14.3404 13.9644 13.9465 13.7184 13.5664 13.3867L11.6396 11.7178L3.15234 19.8965C3.4207 19.9959 3.73139 20.0479 4.08496 20.0479H27.9023C28.262 20.0478 28.5751 19.9947 28.8438 19.8945L20.3467 11.7178L18.4199 13.3867ZM21.8047 10.4541L29.96 18.3018C29.9666 18.2187 29.9707 18.1328 29.9707 18.0439V3.95605C29.9707 3.76515 29.9527 3.588 29.9219 3.42383L21.8047 10.4541ZM2.07324 3.43164C2.04496 3.59 2.0293 3.7605 2.0293 3.94336V18.0312C2.0293 18.1239 2.03314 18.2134 2.04004 18.2998L10.1885 10.46L2.07324 3.43164ZM4.08496 1.95215C3.82815 1.95215 3.59369 1.97979 3.38184 2.03223L14.7207 11.8682C15.1272 12.2166 15.5514 12.3906 15.9932 12.3906C16.444 12.3906 16.8688 12.2169 17.2666 11.8682L28.6064 2.03027C28.3952 1.97866 28.1605 1.95216 27.9023 1.95215H4.08496Z" fill="#1E1D1D"/>
</svg>
