<svg width="167" height="262" viewBox="0 0 167 262" fill="none" xmlns="http://www.w3.org/2000/svg">
<rect width="167" height="262" fill="#F5F5F5"/>
<path d="M30.582 186.713C40.2922 186.713 48.1639 194.964 48.1641 205.142C48.1641 215.319 40.2928 223.57 30.583 223.571C40.2926 223.572 48.1641 231.822 48.1641 242H13C13 231.822 20.8712 223.572 30.5811 223.571C20.8714 223.571 13 215.32 13 205.142C13.0001 194.964 20.8719 186.713 30.582 186.713ZM65.7461 186.713C75.4563 186.713 83.328 194.964 83.3281 205.142C83.3281 215.319 75.4569 223.57 65.7471 223.571C75.4567 223.572 83.3281 231.822 83.3281 242H48.1641C48.1641 231.822 56.0351 223.572 65.7451 223.571C56.0353 223.571 48.1641 215.32 48.1641 205.142C48.1642 194.964 56.036 186.713 65.7461 186.713ZM48.1641 168.282C48.1641 178.46 40.2922 186.712 30.582 186.712C20.872 186.712 13 178.46 13 168.282H48.1641ZM83.3281 168.282C83.3281 178.46 75.4566 186.712 65.7461 186.712C56.0357 186.712 48.1641 178.46 48.1641 168.282H83.3281Z" fill="#9DC274"/>
<path d="M30.582 38.4307C40.2922 38.4307 48.1639 46.6819 48.1641 56.8594C48.1641 67.037 40.2928 75.2882 30.583 75.2891C40.2926 75.2897 48.1641 83.5404 48.1641 93.7178H13C13 83.5401 20.8712 75.2889 30.5811 75.2881C20.8714 75.2875 13 67.0372 13 56.8594C13.0001 46.6816 20.8719 38.4307 30.582 38.4307ZM65.7461 38.4307C75.4563 38.4307 83.328 46.6821 83.3281 56.8594C83.3281 67.0368 75.4569 75.2872 65.7471 75.2881C75.4567 75.2889 83.3281 83.5401 83.3281 93.7178H48.1641C48.1641 83.5401 56.0351 75.2889 65.7451 75.2881C56.0353 75.2875 48.1641 67.0374 48.1641 56.8594C48.1642 46.6815 56.036 38.4307 65.7461 38.4307ZM48.1641 20C48.1641 30.178 40.2922 38.4285 30.582 38.4287C20.872 38.4287 13 30.1781 13 20H48.1641ZM83.3281 20C83.3281 30.1781 75.4566 38.4287 65.7461 38.4287C56.0357 38.4286 48.1641 30.178 48.1641 20H83.3281Z" fill="#9DC274"/>
<path d="M27.0002 94.0002L27.0002 150.733C27.0002 152.094 28.0469 153.2 29.3336 153.2C30.6203 153.2 31.6667 152.094 31.6667 150.733L31.6668 111.267C31.6668 101.746 38.9937 94 48.0001 94C57.0065 94 64.3335 101.746 64.3335 111.267L64.3335 150.733C64.3335 152.094 65.3801 153.2 66.6668 153.2C67.9536 153.2 69 152.094 69 150.733L69 94.0002L83 94.0002L83 150.733C83 160.254 75.6728 168 66.6666 168C57.6605 168 50.3333 160.254 50.3333 150.733L50.3333 111.267C50.3333 109.907 49.2866 108.8 48.0001 108.8C46.7136 108.8 45.6667 109.907 45.6667 111.267L45.6667 150.733C45.6667 160.254 38.3397 168 29.3334 168C20.327 168 13 160.254 13 150.733L13 94.0002L27.0002 94.0002Z" fill="#799B4A"/>
<path d="M154.297 168.283C134.798 168.283 118.991 151.592 118.991 131.003C118.991 110.414 134.798 93.7227 154.297 93.7227L154.297 116.334C146.625 116.334 140.405 122.902 140.405 131.003C140.405 139.104 146.625 145.671 154.297 145.671L154.297 168.283Z" fill="#9DC274"/>
<path d="M83.3281 93.7181C103.136 93.7181 119.194 110.409 119.194 130.998C119.194 151.587 103.136 168.278 83.3281 168.278L83.3281 145.667C91.1221 145.667 97.4404 139.099 97.4403 130.998C97.4403 122.897 91.1221 116.33 83.3281 116.33L83.3281 93.7181Z" fill="#9DC274"/>
<path d="M83.0002 79.1998H138.2C139.523 79.1998 140.6 78.0933 140.6 76.7331C140.6 75.3729 139.523 74.2666 138.2 74.2666H99.8C90.5365 74.2666 83 66.5209 83 56.9999C83 47.4789 90.5365 39.7332 99.8 39.7332H138.2C139.523 39.7332 140.6 38.6267 140.6 37.2665C140.6 35.9062 139.523 34.8 138.2 34.8H83.0002V20H138.2C147.464 20 155 27.7459 155 37.2667C155 46.7875 147.464 54.5334 138.2 54.5334H99.8C98.4768 54.5334 97.4002 55.6399 97.4002 56.9999C97.4002 58.3599 98.4768 59.4666 99.8 59.4666H138.2C147.464 59.4666 155 67.2123 155 76.7333C155 86.2543 147.464 94 138.2 94H83.0002V79.1998Z" fill="#799B4A"/>
<path d="M83.0002 227.2H138.2C139.523 227.2 140.6 226.093 140.6 224.733C140.6 223.373 139.523 222.267 138.2 222.267H99.8C90.5365 222.267 83 214.521 83 205C83 195.479 90.5365 187.733 99.8 187.733H138.2C139.523 187.733 140.6 186.627 140.6 185.266C140.6 183.906 139.523 182.8 138.2 182.8H83.0002V168H138.2C147.464 168 155 175.746 155 185.267C155 194.787 147.464 202.533 138.2 202.533H99.8C98.4768 202.533 97.4002 203.64 97.4002 205C97.4002 206.36 98.4768 207.467 99.8 207.467H138.2C147.464 207.467 155 215.212 155 224.733C155 234.254 147.464 242 138.2 242H83.0002V227.2Z" fill="#799B4A"/>
</svg>
