<svg width="32" height="32" viewBox="0 0 32 32" fill="none" xmlns="http://www.w3.org/2000/svg">
<path d="M23.7911 32C22.229 32 20.5742 31.6832 18.8264 31.0497C17.0787 30.4161 15.2982 29.4931 13.4849 28.2807C11.6716 27.0682 9.89657 25.5881 8.15975 23.8404C6.40109 22.0927 4.91551 20.3123 3.70302 18.499C2.49053 16.6858 1.5675 14.9053 0.933948 13.1576C0.311316 11.399 0 9.73868 0 8.17667C0 7.23728 0.0873869 6.39074 0.262161 5.63704C0.447858 4.88335 0.731866 4.19519 1.11418 3.57257C1.4965 2.94996 1.99898 2.36557 2.62161 1.81941C2.68715 1.75387 2.75269 1.6938 2.81823 1.63918C2.89469 1.57364 2.96569 1.5081 3.03123 1.44256C4.13449 0.459484 5.19406 -0.0211339 6.20993 0.000712378C6.7998 0.0116355 7.36781 0.191867 7.91398 0.541407C8.47107 0.880024 9.00085 1.41526 9.50333 2.14711L12.7476 6.80036C13.1627 7.39021 13.3429 8.01282 13.2883 8.66821C13.2337 9.31268 13.048 9.88614 12.7312 10.3886L11.2565 12.6988C10.9944 13.103 10.9616 13.4798 11.1582 13.8294C11.4313 14.2991 11.8409 14.8725 12.3871 15.5498C12.9442 16.227 13.5341 16.8769 14.1567 17.4996C14.5718 17.9146 15.0251 18.3406 15.5166 18.7776C16.0082 19.2036 16.4724 19.5913 16.9094 19.9409C17.3463 20.2795 17.6849 20.5253 17.9252 20.6782C18.1656 20.8202 18.3949 20.8966 18.6134 20.9076C18.8319 20.9076 19.0667 20.853 19.318 20.7437L21.8577 19.4985C22.6441 19.1162 23.3323 18.9414 23.9222 18.9742C24.523 18.996 25.1347 19.2199 25.7573 19.6459L29.8699 22.4641C30.6018 22.9666 31.1371 23.5018 31.4757 24.0698C31.8252 24.6269 32 25.2004 32 25.7902C32 26.2927 31.8798 26.8115 31.6395 27.3468C31.4101 27.8711 31.0497 28.4063 30.5581 28.9524C30.4926 29.0289 30.427 29.0999 30.3615 29.1655C30.3069 29.231 30.2468 29.302 30.1813 29.3785C29.3511 30.3069 28.4335 30.9732 27.4286 31.3774C26.4345 31.7925 25.2221 32 23.7911 32ZM23.8075 29.5095C24.7141 29.4877 25.5498 29.3184 26.3144 29.0016C27.079 28.6848 27.7453 28.2042 28.3134 27.5598C28.3571 27.5051 28.3953 27.456 28.4281 27.4123C28.4718 27.3686 28.5154 27.3194 28.5591 27.2648C28.9961 26.7624 29.2145 26.2654 29.2145 25.7738C29.2145 25.5226 29.1599 25.2932 29.0507 25.0857C28.9524 24.8781 28.7831 24.6979 28.5428 24.545L24.7087 21.9726C24.4465 21.8087 24.1843 21.7104 23.9222 21.6777C23.6709 21.6449 23.3869 21.6995 23.0701 21.8415L20.3175 23.1523C19.5528 23.5237 18.9193 23.682 18.4168 23.6274C17.9143 23.5728 17.4173 23.3653 16.9258 23.0048C16.5434 22.7427 16.0847 22.3931 15.5494 21.9562C15.0142 21.5193 14.468 21.055 13.9109 20.5635C13.3647 20.072 12.8841 19.6186 12.469 19.2036C11.8355 18.5809 11.1855 17.86 10.5192 17.0408C9.8638 16.2215 9.30125 15.5006 8.83154 14.878C8.47107 14.3865 8.26899 13.9058 8.2253 13.4362C8.1816 12.9555 8.33999 12.4258 8.70046 11.8468L10.339 9.22529C10.6448 8.7119 10.6667 8.26406 10.4045 7.88175L7.4552 3.45788C7.16027 3.01003 6.75064 2.78611 6.22632 2.78611C5.99693 2.78611 5.75115 2.84072 5.48899 2.94996C5.23775 3.05919 4.98652 3.22303 4.73528 3.4415C4.69159 3.48519 4.64243 3.52888 4.58781 3.57257C4.54412 3.60534 4.49497 3.64357 4.44035 3.68727C3.79587 4.25527 3.30978 4.92158 2.98208 5.6862C2.6653 6.43989 2.50145 7.26459 2.49053 8.16029C2.45776 9.55844 2.77453 11.0713 3.44086 12.6988C4.11811 14.3155 5.03021 15.943 6.17716 17.5815C7.32412 19.209 8.61307 20.7328 10.044 22.1528C11.4531 23.5619 12.9551 24.829 14.5499 25.9541C16.1557 27.0682 17.7505 27.9421 19.3344 28.5756C20.9292 29.2201 22.4202 29.5314 23.8075 29.5095Z" fill="#1E1D1D"/>
</svg>
