<svg width="68" height="68" viewBox="0 0 68 68" fill="none" xmlns="http://www.w3.org/2000/svg">
<g filter="url(#filter0_d_553_416)">
<rect x="8" y="4" width="52" height="52" rx="8" fill="#00448C"/>
</g>
<path d="M44.2414 23.4669C45.6125 23.5057 47.1739 23.6223 47.7071 23.7774C48.545 24.0101 48.6595 24.2815 48.7738 26.1038C48.888 27.9646 48.8116 28.1585 48.2025 27.8873C47.8217 27.7322 46.4122 27.4998 45.0411 27.4223C42.9844 27.2672 42.4512 27.3444 41.9942 27.8873C41.1944 28.8954 41.9182 29.6712 44.6223 30.7181C49.878 32.7731 51.5539 36.9219 48.4309 40.0237C46.4504 42.0011 41.3851 42.621 38.1097 41.3028C37.1576 40.9151 37.043 40.7213 37.043 38.9378C37.043 37.8909 37.1576 36.9991 37.348 36.9991C37.5011 36.9994 38.3004 37.2707 39.1377 37.5807C42.2608 38.7051 45.8029 38.0459 45.1936 36.4175C45.0793 36.1073 43.5557 35.1766 41.8038 34.3235C38.4522 32.6563 37.4623 31.5706 37.1576 29.283C36.7768 25.9485 39.8616 23.3894 44.2414 23.4669ZM23.0657 18C27.5596 18 28.2833 18.1165 29.9971 18.9307C33.2725 20.4817 34.377 22.304 34.377 26.1038C34.3769 31.028 31.4059 33.703 25.5026 34.1683L22.5703 34.4015V41.6519H18V18H23.0657ZM22.5703 22.2651V30.0198H24.6651C28.2071 30.0198 29.8067 28.7403 29.8067 25.9486C29.8067 24.9017 29.5018 24.2427 28.702 23.3897C27.6737 22.3816 27.3309 22.2651 25.0839 22.2651H22.5703Z" fill="#47D6F3"/>
<defs>
<filter id="filter0_d_553_416" x="0" y="0" width="68" height="68" filterUnits="userSpaceOnUse" color-interpolation-filters="sRGB">
<feFlood flood-opacity="0" result="BackgroundImageFix"/>
<feColorMatrix in="SourceAlpha" type="matrix" values="0 0 0 0 0 0 0 0 0 0 0 0 0 0 0 0 0 0 127 0" result="hardAlpha"/>
<feOffset dy="4"/>
<feGaussianBlur stdDeviation="4"/>
<feComposite in2="hardAlpha" operator="out"/>
<feColorMatrix type="matrix" values="0 0 0 0 0 0 0 0 0 0 0 0 0 0 0 0 0 0 0.1 0"/>
<feBlend mode="normal" in2="BackgroundImageFix" result="effect1_dropShadow_553_416"/>
<feBlend mode="normal" in="SourceGraphic" in2="effect1_dropShadow_553_416" result="shape"/>
</filter>
</defs>
</svg>
