<svg width="353" height="230" viewBox="0 0 353 230" fill="none" xmlns="http://www.w3.org/2000/svg">
<rect width="353" height="230" fill="#3A9DF9"/>
<path d="M121.8 88.32C120.387 88.32 119.013 88.1733 117.68 87.88C116.373 87.56 115.2 87.08 114.16 86.44C113.12 85.8 112.28 84.9733 111.64 83.96C111 82.92 110.653 81.6667 110.6 80.2H114.76C114.84 80.9733 115.093 81.6267 115.52 82.16C115.947 82.6933 116.493 83.1333 117.16 83.48C117.827 83.8 118.56 84.04 119.36 84.2C120.16 84.36 120.973 84.44 121.8 84.44C122.44 84.44 123.133 84.3867 123.88 84.28C124.653 84.1733 125.373 83.96 126.04 83.64C126.707 83.32 127.253 82.8533 127.68 82.24C128.107 81.6267 128.32 80.8267 128.32 79.84C128.32 78.9067 128.16 78.16 127.84 77.6C127.52 77.0133 127.067 76.5733 126.48 76.28C125.893 75.96 125.2 75.7467 124.4 75.64C123.627 75.5333 122.773 75.48 121.84 75.48H118.2V71.8H120.56C121.44 71.8 122.28 71.72 123.08 71.56C123.907 71.4 124.627 71.16 125.24 70.84C125.853 70.4933 126.347 70.04 126.72 69.48C127.093 68.92 127.28 68.2533 127.28 67.48C127.28 66.3067 126.987 65.4267 126.4 64.84C125.813 64.2533 125.08 63.84 124.2 63.6C123.32 63.36 122.44 63.24 121.56 63.24C120.52 63.24 119.533 63.3867 118.6 63.68C117.693 63.9733 116.947 64.4267 116.36 65.04C115.8 65.6267 115.52 66.3733 115.52 67.28H111.32C111.347 66 111.6 64.9067 112.08 64C112.56 63.0933 113.187 62.3467 113.96 61.76C114.76 61.1467 115.627 60.6667 116.56 60.32C117.493 59.9733 118.427 59.7333 119.36 59.6C120.293 59.4667 121.147 59.4 121.92 59.4C123.12 59.4 124.28 59.5333 125.4 59.8C126.52 60.04 127.533 60.4533 128.44 61.04C129.373 61.6267 130.107 62.4 130.64 63.36C131.173 64.32 131.44 65.48 131.44 66.84C131.44 67.5067 131.347 68.2133 131.16 68.96C130.973 69.68 130.6 70.3867 130.04 71.08C129.507 71.7467 128.693 72.3733 127.6 72.96C129.227 73.3333 130.467 74.16 131.32 75.44C132.2 76.72 132.64 78.2 132.64 79.88C132.613 81.4 132.293 82.6933 131.68 83.76C131.067 84.8267 130.253 85.6933 129.24 86.36C128.227 87.0267 127.08 87.52 125.8 87.84C124.547 88.16 123.213 88.32 121.8 88.32ZM136.542 88V66.92H145.422C146.328 66.92 147.235 66.9867 148.142 67.12C149.075 67.2267 149.915 67.4667 150.662 67.84C151.435 68.2133 152.048 68.76 152.502 69.48C152.982 70.1733 153.222 71.0933 153.222 72.24C153.222 72.9333 153.115 73.56 152.902 74.12C152.688 74.68 152.382 75.1733 151.982 75.6C151.608 76 151.128 76.3467 150.542 76.64C151.875 76.9867 152.835 77.6133 153.422 78.52C154.035 79.4 154.342 80.4533 154.342 81.68C154.342 82.8 154.128 83.76 153.702 84.56C153.275 85.36 152.702 86.0133 151.982 86.52C151.262 87.0267 150.448 87.4 149.542 87.64C148.635 87.88 147.702 88 146.742 88H136.542ZM140.742 84.4H146.022C146.768 84.4 147.448 84.3333 148.062 84.2C148.702 84.04 149.208 83.76 149.582 83.36C149.982 82.96 150.182 82.4133 150.182 81.72C150.182 81 150.022 80.4533 149.702 80.08C149.382 79.68 148.968 79.4 148.462 79.24C147.955 79.08 147.408 78.9867 146.822 78.96C146.235 78.9067 145.662 78.88 145.102 78.88H140.742V84.4ZM140.742 75.76H143.862C144.342 75.76 144.888 75.7333 145.502 75.68C146.115 75.6 146.702 75.4667 147.262 75.28C147.848 75.0933 148.315 74.8267 148.662 74.48C149.035 74.1067 149.222 73.6 149.222 72.96C149.222 72.1067 148.982 71.52 148.502 71.2C148.048 70.8533 147.502 70.6533 146.862 70.6C146.222 70.52 145.595 70.48 144.982 70.48H140.742V75.76ZM159.043 97.24V93.16C160.27 93.16 161.256 93.0133 162.003 92.72C162.776 92.4267 163.416 91.9467 163.923 91.28C164.43 90.64 164.923 89.8 165.403 88.76L156.283 66.92H161.123L167.723 84L173.043 66.92H177.643L171.843 84.04C171.55 84.9467 171.203 85.9333 170.803 87C170.43 88.0667 170.003 89.1333 169.523 90.2C169.07 91.2667 168.55 92.2533 167.963 93.16C167.376 94.0667 166.723 94.8 166.003 95.36C165.416 95.84 164.83 96.2133 164.243 96.48C163.656 96.7733 162.963 96.9733 162.163 97.08C161.363 97.1867 160.323 97.24 159.043 97.24ZM192.262 88V80.24C191.248 80.4 190.315 80.5067 189.462 80.56C188.635 80.6133 187.888 80.64 187.222 80.64C185.222 80.64 183.622 80.3333 182.422 79.72C181.248 79.08 180.408 78.12 179.902 76.84C179.395 75.56 179.142 73.96 179.142 72.04V66.92H183.262V71.8C183.262 72.8933 183.368 73.8267 183.582 74.6C183.795 75.3467 184.222 75.9333 184.862 76.36C185.502 76.76 186.475 76.96 187.782 76.96C188.475 76.96 189.222 76.92 190.022 76.84C190.822 76.76 191.568 76.6533 192.262 76.52V66.92H196.422V88H192.262ZM210.46 88.24C208.273 88.24 206.42 87.8 204.9 86.92C203.38 86.0133 202.22 84.7467 201.42 83.12C200.647 81.4933 200.26 79.6133 200.26 77.48C200.26 75.32 200.647 73.44 201.42 71.84C202.22 70.2133 203.38 68.9467 204.9 68.04C206.42 67.1067 208.287 66.64 210.5 66.64C212.687 66.64 214.54 67.1067 216.06 68.04C217.58 68.9467 218.727 70.2133 219.5 71.84C220.273 73.4667 220.66 75.36 220.66 77.52C220.66 79.6267 220.26 81.4933 219.46 83.12C218.687 84.7467 217.54 86.0133 216.02 86.92C214.527 87.8 212.673 88.24 210.46 88.24ZM210.46 84.56C211.9 84.56 213.06 84.24 213.94 83.6C214.847 82.96 215.513 82.1067 215.94 81.04C216.367 79.9733 216.58 78.8 216.58 77.52C216.58 76.24 216.367 75.0667 215.94 74C215.513 72.9067 214.847 72.04 213.94 71.4C213.06 70.7333 211.9 70.4 210.46 70.4C209.047 70.4 207.887 70.7333 206.98 71.4C206.073 72.04 205.407 72.8933 204.98 73.96C204.58 75.0267 204.38 76.2133 204.38 77.52C204.38 78.8 204.58 79.9733 204.98 81.04C205.407 82.1067 206.073 82.96 206.98 83.6C207.887 84.24 209.047 84.56 210.46 84.56ZM224.48 88V66.92H228.6V75.68H232.12L238 66.92H242.72L235.8 76.92L243.12 88H238.32L232.52 79.32H228.6V88H224.48Z" fill="white"/>
<path d="M36.7359 115V103.688H43.9039V104.728H37.8879V115H36.7359ZM44.461 118.12V106.568H45.549L45.597 107.992C45.9277 107.469 46.3437 107.085 46.845 106.84C47.357 106.595 47.9277 106.472 48.557 106.472C49.4103 106.472 50.109 106.664 50.653 107.048C51.197 107.432 51.6023 107.955 51.869 108.616C52.1357 109.267 52.269 109.997 52.269 110.808C52.269 111.64 52.1303 112.381 51.853 113.032C51.5863 113.683 51.1703 114.189 50.605 114.552C50.0503 114.915 49.3463 115.096 48.493 115.096C48.0983 115.096 47.7197 115.053 47.357 114.968C46.9943 114.883 46.6637 114.744 46.365 114.552C46.0663 114.349 45.8103 114.099 45.597 113.8V118.12H44.461ZM48.445 114.104C49.1063 114.104 49.629 113.955 50.013 113.656C50.4077 113.347 50.6903 112.941 50.861 112.44C51.0423 111.939 51.133 111.389 51.133 110.792C51.133 110.184 51.0423 109.629 50.861 109.128C50.6797 108.627 50.3863 108.227 49.981 107.928C49.5757 107.619 49.0423 107.464 48.381 107.464C47.773 107.464 47.2557 107.619 46.829 107.928C46.413 108.237 46.0983 108.648 45.885 109.16C45.6717 109.672 45.565 110.221 45.565 110.808C45.565 111.437 45.6663 112.003 45.869 112.504C46.0823 112.995 46.4023 113.384 46.829 113.672C47.2663 113.96 47.805 114.104 48.445 114.104ZM57.3736 115.096C56.4883 115.096 55.747 114.915 55.1496 114.552C54.5523 114.179 54.1043 113.667 53.8056 113.016C53.5176 112.365 53.3736 111.624 53.3736 110.792C53.3736 109.949 53.5176 109.208 53.8056 108.568C54.1043 107.917 54.5523 107.405 55.1496 107.032C55.747 106.659 56.4936 106.472 57.3896 106.472C58.275 106.472 59.011 106.659 59.5976 107.032C60.195 107.405 60.6376 107.917 60.9256 108.568C61.2243 109.208 61.3736 109.949 61.3736 110.792C61.3736 111.624 61.2243 112.365 60.9256 113.016C60.627 113.667 60.179 114.179 59.5816 114.552C58.995 114.915 58.259 115.096 57.3736 115.096ZM57.3736 114.104C58.035 114.104 58.579 113.96 59.0056 113.672C59.4323 113.373 59.747 112.973 59.9496 112.472C60.1523 111.971 60.2536 111.411 60.2536 110.792C60.2536 110.173 60.1523 109.613 59.9496 109.112C59.747 108.611 59.4323 108.211 59.0056 107.912C58.579 107.613 58.035 107.464 57.3736 107.464C56.7123 107.464 56.1683 107.613 55.7416 107.912C55.315 108.211 55.0003 108.611 54.7976 109.112C54.6056 109.613 54.5096 110.173 54.5096 110.792C54.5096 111.411 54.6056 111.971 54.7976 112.472C55.0003 112.973 55.315 113.373 55.7416 113.672C56.1683 113.96 56.7123 114.104 57.3736 114.104ZM62.8481 115V106.568H64.4321L67.3441 111.128L70.2401 106.568H71.7921V115H70.6721V107.752L67.4881 112.824H67.1521L63.9681 107.752V115H62.8481ZM73.5964 115V106.568H74.7324V110.296H76.4444L79.0044 106.568H80.2844L77.4684 110.6L80.5404 115H79.2284L76.5884 111.272H74.7324V115H73.5964ZM84.8996 115.096C84.0143 115.096 83.273 114.915 82.6756 114.552C82.0783 114.179 81.6303 113.667 81.3316 113.016C81.0436 112.365 80.8996 111.624 80.8996 110.792C80.8996 109.949 81.0436 109.208 81.3316 108.568C81.6303 107.917 82.0783 107.405 82.6756 107.032C83.273 106.659 84.0196 106.472 84.9156 106.472C85.801 106.472 86.537 106.659 87.1236 107.032C87.721 107.405 88.1636 107.917 88.4516 108.568C88.7503 109.208 88.8996 109.949 88.8996 110.792C88.8996 111.624 88.7503 112.365 88.4516 113.016C88.153 113.667 87.705 114.179 87.1076 114.552C86.521 114.915 85.785 115.096 84.8996 115.096ZM84.8996 114.104C85.561 114.104 86.105 113.96 86.5316 113.672C86.9583 113.373 87.273 112.973 87.4756 112.472C87.6783 111.971 87.7796 111.411 87.7796 110.792C87.7796 110.173 87.6783 109.613 87.4756 109.112C87.273 108.611 86.9583 108.211 86.5316 107.912C86.105 107.613 85.561 107.464 84.8996 107.464C84.2383 107.464 83.6943 107.613 83.2676 107.912C82.841 108.211 82.5263 108.611 82.3236 109.112C82.1316 109.613 82.0356 110.173 82.0356 110.792C82.0356 111.411 82.1316 111.971 82.3236 112.472C82.5263 112.973 82.841 113.373 83.2676 113.672C83.6943 113.96 84.2383 114.104 84.8996 114.104ZM93.9901 115.096C93.1048 115.096 92.3688 114.915 91.7821 114.552C91.2061 114.179 90.7741 113.667 90.4861 113.016C90.1981 112.365 90.0541 111.629 90.0541 110.808C90.0541 109.997 90.2035 109.267 90.5021 108.616C90.8008 107.955 91.2488 107.432 91.8461 107.048C92.4435 106.664 93.2008 106.472 94.1181 106.472C94.6621 106.472 95.1528 106.563 95.5901 106.744C96.0275 106.915 96.3955 107.176 96.6941 107.528C96.9928 107.869 97.2061 108.296 97.3341 108.808H96.1661C95.9955 108.328 95.7181 107.987 95.3341 107.784C94.9608 107.571 94.5288 107.464 94.0381 107.464C93.3661 107.464 92.8221 107.624 92.4061 107.944C91.9901 108.253 91.6808 108.664 91.4781 109.176C91.2861 109.677 91.1901 110.221 91.1901 110.808C91.1901 111.405 91.2861 111.955 91.4781 112.456C91.6808 112.957 91.9901 113.357 92.4061 113.656C92.8328 113.955 93.3768 114.104 94.0381 114.104C94.5181 114.104 94.9661 114.003 95.3821 113.8C95.7981 113.597 96.0861 113.251 96.2461 112.76H97.4301C97.3021 113.293 97.0621 113.736 96.7101 114.088C96.3688 114.429 95.9581 114.685 95.4781 114.856C95.0088 115.016 94.5128 115.096 93.9901 115.096ZM100.81 115V107.56H97.8022V106.568H104.922V107.56H101.93V115H100.81ZM105.746 115V106.568H106.898V109.88H108.866C109.335 109.88 109.772 109.917 110.178 109.992C110.583 110.056 110.935 110.179 111.234 110.36C111.543 110.541 111.783 110.792 111.954 111.112C112.124 111.432 112.21 111.843 112.21 112.344C112.21 112.813 112.13 113.219 111.97 113.56C111.81 113.891 111.58 114.163 111.282 114.376C110.994 114.589 110.652 114.749 110.258 114.856C109.863 114.952 109.431 115 108.962 115H105.746ZM106.898 114.024H108.066C108.439 114.024 108.802 114.013 109.154 113.992C109.506 113.96 109.826 113.896 110.114 113.8C110.412 113.704 110.647 113.544 110.818 113.32C110.988 113.096 111.074 112.787 111.074 112.392C111.074 112.029 110.999 111.747 110.85 111.544C110.7 111.341 110.508 111.192 110.274 111.096C110.039 110.989 109.783 110.925 109.506 110.904C109.228 110.872 108.951 110.856 108.674 110.856H106.898V114.024ZM117.539 115V106.568H120.787C121.139 106.568 121.496 106.595 121.859 106.648C122.222 106.691 122.552 106.787 122.851 106.936C123.16 107.075 123.406 107.283 123.587 107.56C123.779 107.827 123.875 108.189 123.875 108.648C123.875 108.893 123.832 109.133 123.747 109.368C123.662 109.603 123.528 109.816 123.347 110.008C123.176 110.2 122.936 110.36 122.627 110.488C123.235 110.616 123.678 110.867 123.955 111.24C124.232 111.603 124.371 112.04 124.371 112.552C124.371 112.979 124.291 113.347 124.131 113.656C123.982 113.965 123.768 114.221 123.491 114.424C123.224 114.616 122.91 114.76 122.547 114.856C122.195 114.952 121.822 115 121.427 115H117.539ZM118.691 114.024H121.123C121.464 114.024 121.795 113.992 122.115 113.928C122.446 113.853 122.712 113.72 122.915 113.528C123.128 113.325 123.235 113.032 123.235 112.648C123.235 112.285 123.155 112.008 122.995 111.816C122.835 111.613 122.627 111.469 122.371 111.384C122.115 111.299 121.838 111.245 121.539 111.224C121.24 111.203 120.958 111.192 120.691 111.192H118.691V114.024ZM118.691 110.248H120.227C120.462 110.248 120.723 110.232 121.011 110.2C121.299 110.168 121.576 110.104 121.843 110.008C122.11 109.912 122.328 109.773 122.499 109.592C122.67 109.4 122.755 109.149 122.755 108.84C122.755 108.413 122.638 108.115 122.403 107.944C122.179 107.763 121.902 107.651 121.571 107.608C121.251 107.565 120.942 107.544 120.643 107.544H118.691V110.248ZM125.881 115V106.568H127.033V109.88H128.649C129.129 109.88 129.572 109.917 129.977 109.992C130.382 110.067 130.734 110.195 131.033 110.376C131.342 110.557 131.582 110.808 131.753 111.128C131.924 111.437 132.009 111.843 132.009 112.344C132.009 112.824 131.924 113.235 131.753 113.576C131.593 113.907 131.364 114.179 131.065 114.392C130.777 114.605 130.436 114.76 130.041 114.856C129.646 114.952 129.22 115 128.761 115H125.881ZM127.033 114.024H127.833C128.206 114.024 128.569 114.013 128.921 113.992C129.284 113.971 129.609 113.912 129.897 113.816C130.185 113.709 130.414 113.544 130.585 113.32C130.766 113.096 130.857 112.787 130.857 112.392C130.857 112.029 130.782 111.747 130.633 111.544C130.494 111.341 130.308 111.192 130.073 111.096C129.838 110.989 129.577 110.925 129.289 110.904C129.012 110.872 128.74 110.856 128.473 110.856H127.033V114.024ZM133.353 115V106.568H134.489V115H133.353ZM139.806 115.096C139.219 115.096 138.707 115.011 138.27 114.84C137.843 114.659 137.486 114.408 137.198 114.088C136.91 113.768 136.675 113.395 136.494 112.968C136.323 112.541 136.195 112.088 136.11 111.608C136.035 111.117 135.998 110.611 135.998 110.088C135.998 109.331 136.019 108.616 136.062 107.944C136.115 107.272 136.243 106.669 136.446 106.136C136.648 105.592 136.974 105.139 137.422 104.776C137.87 104.413 138.488 104.163 139.278 104.024C139.736 103.939 140.19 103.869 140.638 103.816C141.086 103.763 141.528 103.709 141.966 103.656C142.094 103.635 142.227 103.613 142.366 103.592C142.504 103.571 142.648 103.549 142.798 103.528C142.958 103.496 143.107 103.469 143.246 103.448V104.488C143.139 104.531 143 104.568 142.83 104.6C142.659 104.621 142.478 104.648 142.286 104.68C142.094 104.701 141.902 104.723 141.71 104.744C141.528 104.755 141.358 104.771 141.198 104.792C141.048 104.803 140.926 104.813 140.83 104.824C140.446 104.867 140.051 104.92 139.646 104.984C139.251 105.037 138.878 105.144 138.526 105.304C138.184 105.453 137.896 105.715 137.662 106.088C137.502 106.344 137.379 106.637 137.294 106.968C137.208 107.299 137.15 107.629 137.118 107.96C137.086 108.28 137.064 108.568 137.054 108.824C137.278 108.419 137.56 108.104 137.902 107.88C138.243 107.645 138.606 107.48 138.99 107.384C139.374 107.277 139.736 107.224 140.078 107.224C140.835 107.224 141.48 107.384 142.014 107.704C142.547 108.024 142.947 108.472 143.214 109.048C143.491 109.624 143.63 110.291 143.63 111.048C143.63 111.816 143.48 112.509 143.182 113.128C142.883 113.736 142.446 114.216 141.87 114.568C141.304 114.92 140.616 115.096 139.806 115.096ZM139.838 114.104C140.414 114.104 140.899 113.971 141.294 113.704C141.688 113.427 141.987 113.059 142.19 112.6C142.403 112.141 142.51 111.64 142.51 111.096C142.51 110.552 142.408 110.067 142.206 109.64C142.003 109.203 141.704 108.861 141.31 108.616C140.926 108.36 140.451 108.232 139.886 108.232C139.342 108.232 138.867 108.365 138.462 108.632C138.067 108.899 137.758 109.251 137.534 109.688C137.31 110.125 137.198 110.605 137.198 111.128C137.198 111.661 137.294 112.157 137.486 112.616C137.688 113.064 137.982 113.427 138.366 113.704C138.76 113.971 139.251 114.104 139.838 114.104ZM145.096 118.12V106.568H146.184L146.232 107.992C146.563 107.469 146.979 107.085 147.48 106.84C147.992 106.595 148.563 106.472 149.192 106.472C150.046 106.472 150.744 106.664 151.288 107.048C151.832 107.432 152.238 107.955 152.504 108.616C152.771 109.267 152.904 109.997 152.904 110.808C152.904 111.64 152.766 112.381 152.488 113.032C152.222 113.683 151.806 114.189 151.24 114.552C150.686 114.915 149.982 115.096 149.128 115.096C148.734 115.096 148.355 115.053 147.992 114.968C147.63 114.883 147.299 114.744 147 114.552C146.702 114.349 146.446 114.099 146.232 113.8V118.12H145.096ZM149.08 114.104C149.742 114.104 150.264 113.955 150.648 113.656C151.043 113.347 151.326 112.941 151.496 112.44C151.678 111.939 151.768 111.389 151.768 110.792C151.768 110.184 151.678 109.629 151.496 109.128C151.315 108.627 151.022 108.227 150.616 107.928C150.211 107.619 149.678 107.464 149.016 107.464C148.408 107.464 147.891 107.619 147.464 107.928C147.048 108.237 146.734 108.648 146.52 109.16C146.307 109.672 146.2 110.221 146.2 110.808C146.2 111.437 146.302 112.003 146.504 112.504C146.718 112.995 147.038 113.384 147.464 113.672C147.902 113.96 148.44 114.104 149.08 114.104ZM156.985 115.096C156.644 115.096 156.297 115.053 155.945 114.968C155.593 114.872 155.273 114.728 154.985 114.536C154.697 114.333 154.462 114.077 154.281 113.768C154.11 113.448 154.025 113.075 154.025 112.648C154.025 112.168 154.11 111.768 154.281 111.448C154.462 111.128 154.702 110.872 155.001 110.68C155.3 110.488 155.641 110.355 156.025 110.28C156.409 110.195 156.814 110.152 157.241 110.152H159.913C159.913 109.629 159.838 109.171 159.689 108.776C159.55 108.371 159.316 108.051 158.985 107.816C158.665 107.581 158.233 107.464 157.689 107.464C157.401 107.464 157.124 107.496 156.857 107.56C156.59 107.624 156.35 107.731 156.137 107.88C155.934 108.019 155.774 108.211 155.657 108.456H154.441C154.537 108.083 154.697 107.768 154.921 107.512C155.156 107.256 155.428 107.053 155.737 106.904C156.046 106.744 156.372 106.632 156.713 106.568C157.054 106.504 157.38 106.472 157.689 106.472C158.489 106.472 159.134 106.637 159.625 106.968C160.116 107.288 160.468 107.747 160.681 108.344C160.905 108.931 161.017 109.624 161.017 110.424V115H160.041L159.993 113.848C159.758 114.168 159.476 114.419 159.145 114.6C158.825 114.781 158.478 114.909 158.105 114.984C157.742 115.059 157.369 115.096 156.985 115.096ZM157.097 114.104C157.62 114.104 158.094 114.019 158.521 113.848C158.948 113.667 159.284 113.4 159.529 113.048C159.785 112.696 159.913 112.259 159.913 111.736V111.096H158.025C157.694 111.096 157.358 111.107 157.017 111.128C156.676 111.139 156.366 111.192 156.089 111.288C155.812 111.373 155.588 111.517 155.417 111.72C155.246 111.912 155.161 112.189 155.161 112.552C155.161 112.915 155.252 113.213 155.433 113.448C155.614 113.672 155.854 113.837 156.153 113.944C156.452 114.051 156.766 114.104 157.097 114.104ZM162.78 115V106.568H163.916V110.376H168.556V106.568H169.676V115H168.556V111.352H163.916V115H162.78ZM174.138 115.096C173.796 115.096 173.45 115.053 173.098 114.968C172.746 114.872 172.426 114.728 172.138 114.536C171.85 114.333 171.615 114.077 171.434 113.768C171.263 113.448 171.178 113.075 171.178 112.648C171.178 112.168 171.263 111.768 171.434 111.448C171.615 111.128 171.855 110.872 172.154 110.68C172.452 110.488 172.794 110.355 173.178 110.28C173.562 110.195 173.967 110.152 174.394 110.152H177.066C177.066 109.629 176.991 109.171 176.842 108.776C176.703 108.371 176.468 108.051 176.138 107.816C175.818 107.581 175.386 107.464 174.842 107.464C174.554 107.464 174.276 107.496 174.01 107.56C173.743 107.624 173.503 107.731 173.29 107.88C173.087 108.019 172.927 108.211 172.81 108.456H171.594C171.69 108.083 171.85 107.768 172.074 107.512C172.308 107.256 172.58 107.053 172.89 106.904C173.199 106.744 173.524 106.632 173.866 106.568C174.207 106.504 174.532 106.472 174.842 106.472C175.642 106.472 176.287 106.637 176.778 106.968C177.268 107.288 177.62 107.747 177.834 108.344C178.058 108.931 178.17 109.624 178.17 110.424V115H177.194L177.146 113.848C176.911 114.168 176.628 114.419 176.298 114.6C175.978 114.781 175.631 114.909 175.258 114.984C174.895 115.059 174.522 115.096 174.138 115.096ZM174.25 114.104C174.772 114.104 175.247 114.019 175.674 113.848C176.1 113.667 176.436 113.4 176.682 113.048C176.938 112.696 177.066 112.259 177.066 111.736V111.096H175.178C174.847 111.096 174.511 111.107 174.17 111.128C173.828 111.139 173.519 111.192 173.242 111.288C172.964 111.373 172.74 111.517 172.57 111.72C172.399 111.912 172.314 112.189 172.314 112.552C172.314 112.915 172.404 113.213 172.586 113.448C172.767 113.672 173.007 113.837 173.306 113.944C173.604 114.051 173.919 114.104 174.25 114.104ZM183.838 115V106.568H184.974V110.296H186.686L189.246 106.568H190.526L187.71 110.6L190.782 115H189.47L186.83 111.272H184.974V115H183.838ZM194.117 115.096C193.775 115.096 193.429 115.053 193.077 114.968C192.725 114.872 192.405 114.728 192.117 114.536C191.829 114.333 191.594 114.077 191.413 113.768C191.242 113.448 191.157 113.075 191.157 112.648C191.157 112.168 191.242 111.768 191.413 111.448C191.594 111.128 191.834 110.872 192.133 110.68C192.431 110.488 192.773 110.355 193.157 110.28C193.541 110.195 193.946 110.152 194.373 110.152H197.045C197.045 109.629 196.97 109.171 196.821 108.776C196.682 108.371 196.447 108.051 196.117 107.816C195.797 107.581 195.365 107.464 194.821 107.464C194.533 107.464 194.255 107.496 193.989 107.56C193.722 107.624 193.482 107.731 193.269 107.88C193.066 108.019 192.906 108.211 192.789 108.456H191.573C191.669 108.083 191.829 107.768 192.053 107.512C192.287 107.256 192.559 107.053 192.869 106.904C193.178 106.744 193.503 106.632 193.845 106.568C194.186 106.504 194.511 106.472 194.821 106.472C195.621 106.472 196.266 106.637 196.757 106.968C197.247 107.288 197.599 107.747 197.813 108.344C198.037 108.931 198.149 109.624 198.149 110.424V115H197.173L197.125 113.848C196.89 114.168 196.607 114.419 196.277 114.6C195.957 114.781 195.61 114.909 195.237 114.984C194.874 115.059 194.501 115.096 194.117 115.096ZM194.229 114.104C194.751 114.104 195.226 114.019 195.653 113.848C196.079 113.667 196.415 113.4 196.661 113.048C196.917 112.696 197.045 112.259 197.045 111.736V111.096H195.157C194.826 111.096 194.49 111.107 194.149 111.128C193.807 111.139 193.498 111.192 193.221 111.288C192.943 111.373 192.719 111.517 192.549 111.72C192.378 111.912 192.293 112.189 192.293 112.552C192.293 112.915 192.383 113.213 192.565 113.448C192.746 113.672 192.986 113.837 193.285 113.944C193.583 114.051 193.898 114.104 194.229 114.104ZM199.912 115V106.568H201.048V110.296H202.76L205.32 106.568H206.6L203.784 110.6L206.856 115H205.544L202.904 111.272H201.048V115H199.912ZM211.852 118.712V117.64C212.375 117.64 212.796 117.56 213.116 117.4C213.447 117.24 213.719 116.995 213.932 116.664C214.156 116.333 214.369 115.923 214.572 115.432L210.812 106.568H212.156L215.196 114.088L217.708 106.568H219.004L216.46 113.704C216.353 114.013 216.225 114.365 216.076 114.76C215.937 115.144 215.783 115.539 215.612 115.944C215.441 116.349 215.255 116.728 215.052 117.08C214.849 117.432 214.625 117.715 214.38 117.928C214.156 118.131 213.932 118.285 213.708 118.392C213.495 118.509 213.244 118.589 212.956 118.632C212.668 118.685 212.3 118.712 211.852 118.712ZM219.922 115V106.568H221.058V110.376H225.698V106.568H226.818V115H225.698V111.352H221.058V115H219.922ZM228.624 115V106.568H229.76V113.496C229.835 113.357 229.925 113.213 230.032 113.064C230.149 112.904 230.245 112.771 230.32 112.664L234.624 106.568H235.872V115H234.736V108.072C234.651 108.221 234.56 108.365 234.464 108.504C234.368 108.643 234.272 108.776 234.176 108.904L229.872 115H228.624ZM237.669 115V106.568H240.917C241.269 106.568 241.626 106.595 241.989 106.648C242.352 106.691 242.682 106.787 242.981 106.936C243.29 107.075 243.536 107.283 243.717 107.56C243.909 107.827 244.005 108.189 244.005 108.648C244.005 108.893 243.962 109.133 243.877 109.368C243.792 109.603 243.658 109.816 243.477 110.008C243.306 110.2 243.066 110.36 242.757 110.488C243.365 110.616 243.808 110.867 244.085 111.24C244.362 111.603 244.501 112.04 244.501 112.552C244.501 112.979 244.421 113.347 244.261 113.656C244.112 113.965 243.898 114.221 243.621 114.424C243.354 114.616 243.04 114.76 242.677 114.856C242.325 114.952 241.952 115 241.557 115H237.669ZM238.821 114.024H241.253C241.594 114.024 241.925 113.992 242.245 113.928C242.576 113.853 242.842 113.72 243.045 113.528C243.258 113.325 243.365 113.032 243.365 112.648C243.365 112.285 243.285 112.008 243.125 111.816C242.965 111.613 242.757 111.469 242.501 111.384C242.245 111.299 241.968 111.245 241.669 111.224C241.37 111.203 241.088 111.192 240.821 111.192H238.821V114.024ZM238.821 110.248H240.357C240.592 110.248 240.853 110.232 241.141 110.2C241.429 110.168 241.706 110.104 241.973 110.008C242.24 109.912 242.458 109.773 242.629 109.592C242.8 109.4 242.885 109.149 242.885 108.84C242.885 108.413 242.768 108.115 242.533 107.944C242.309 107.763 242.032 107.651 241.701 107.608C241.381 107.565 241.072 107.544 240.773 107.544H238.821V110.248ZM249.643 115.096C248.758 115.096 248.022 114.915 247.435 114.552C246.848 114.179 246.411 113.667 246.123 113.016C245.835 112.365 245.691 111.624 245.691 110.792C245.691 109.96 245.84 109.224 246.139 108.584C246.438 107.933 246.88 107.421 247.467 107.048C248.054 106.664 248.774 106.472 249.627 106.472C250.246 106.472 250.784 106.589 251.243 106.824C251.712 107.048 252.102 107.357 252.411 107.752C252.72 108.147 252.944 108.595 253.083 109.096C253.232 109.597 253.307 110.115 253.307 110.648C253.307 110.744 253.307 110.835 253.307 110.92C253.307 111.005 253.302 111.091 253.291 111.176H246.827C246.87 111.741 246.998 112.248 247.211 112.696C247.424 113.133 247.734 113.48 248.139 113.736C248.555 113.981 249.072 114.104 249.691 114.104C249.979 114.104 250.272 114.072 250.571 114.008C250.87 113.933 251.142 113.811 251.387 113.64C251.632 113.459 251.814 113.224 251.931 112.936H253.115C252.966 113.437 252.715 113.848 252.363 114.168C252.011 114.488 251.595 114.723 251.115 114.872C250.635 115.021 250.144 115.096 249.643 115.096ZM246.859 110.2H252.171C252.16 109.677 252.048 109.213 251.835 108.808C251.622 108.392 251.328 108.067 250.955 107.832C250.582 107.587 250.123 107.464 249.579 107.464C249.014 107.464 248.534 107.592 248.139 107.848C247.744 108.104 247.44 108.44 247.227 108.856C247.024 109.272 246.902 109.72 246.859 110.2ZM254.806 118.12V106.568H255.894L255.942 107.992C256.273 107.469 256.689 107.085 257.19 106.84C257.702 106.595 258.273 106.472 258.902 106.472C259.755 106.472 260.454 106.664 260.998 107.048C261.542 107.432 261.947 107.955 262.214 108.616C262.481 109.267 262.614 109.997 262.614 110.808C262.614 111.64 262.475 112.381 262.198 113.032C261.931 113.683 261.515 114.189 260.95 114.552C260.395 114.915 259.691 115.096 258.838 115.096C258.443 115.096 258.065 115.053 257.702 114.968C257.339 114.883 257.009 114.744 256.71 114.552C256.411 114.349 256.155 114.099 255.942 113.8V118.12H254.806ZM258.79 114.104C259.451 114.104 259.974 113.955 260.358 113.656C260.753 113.347 261.035 112.941 261.206 112.44C261.387 111.939 261.478 111.389 261.478 110.792C261.478 110.184 261.387 109.629 261.206 109.128C261.025 108.627 260.731 108.227 260.326 107.928C259.921 107.619 259.387 107.464 258.726 107.464C258.118 107.464 257.601 107.619 257.174 107.928C256.758 108.237 256.443 108.648 256.23 109.16C256.017 109.672 255.91 110.221 255.91 110.808C255.91 111.437 256.011 112.003 256.214 112.504C256.427 112.995 256.747 113.384 257.174 113.672C257.611 113.96 258.15 114.104 258.79 114.104ZM267.811 115.096C266.926 115.096 266.19 114.915 265.603 114.552C265.027 114.179 264.595 113.667 264.307 113.016C264.019 112.365 263.875 111.629 263.875 110.808C263.875 109.997 264.024 109.267 264.323 108.616C264.622 107.955 265.07 107.432 265.667 107.048C266.264 106.664 267.022 106.472 267.939 106.472C268.483 106.472 268.974 106.563 269.411 106.744C269.848 106.915 270.216 107.176 270.515 107.528C270.814 107.869 271.027 108.296 271.155 108.808H269.987C269.816 108.328 269.539 107.987 269.155 107.784C268.782 107.571 268.35 107.464 267.859 107.464C267.187 107.464 266.643 107.624 266.227 107.944C265.811 108.253 265.502 108.664 265.299 109.176C265.107 109.677 265.011 110.221 265.011 110.808C265.011 111.405 265.107 111.955 265.299 112.456C265.502 112.957 265.811 113.357 266.227 113.656C266.654 113.955 267.198 114.104 267.859 114.104C268.339 114.104 268.787 114.003 269.203 113.8C269.619 113.597 269.907 113.251 270.067 112.76H271.251C271.123 113.293 270.883 113.736 270.531 114.088C270.19 114.429 269.779 114.685 269.299 114.856C268.83 115.016 268.334 115.096 267.811 115.096ZM275.271 115.096C274.93 115.096 274.583 115.053 274.231 114.968C273.879 114.872 273.559 114.728 273.271 114.536C272.983 114.333 272.748 114.077 272.567 113.768C272.396 113.448 272.311 113.075 272.311 112.648C272.311 112.168 272.396 111.768 272.567 111.448C272.748 111.128 272.988 110.872 273.287 110.68C273.586 110.488 273.927 110.355 274.311 110.28C274.695 110.195 275.1 110.152 275.527 110.152H278.199C278.199 109.629 278.124 109.171 277.975 108.776C277.836 108.371 277.602 108.051 277.271 107.816C276.951 107.581 276.519 107.464 275.975 107.464C275.687 107.464 275.41 107.496 275.143 107.56C274.876 107.624 274.636 107.731 274.423 107.88C274.22 108.019 274.06 108.211 273.943 108.456H272.727C272.823 108.083 272.983 107.768 273.207 107.512C273.442 107.256 273.714 107.053 274.023 106.904C274.332 106.744 274.658 106.632 274.999 106.568C275.34 106.504 275.666 106.472 275.975 106.472C276.775 106.472 277.42 106.637 277.911 106.968C278.402 107.288 278.754 107.747 278.967 108.344C279.191 108.931 279.303 109.624 279.303 110.424V115H278.327L278.279 113.848C278.044 114.168 277.762 114.419 277.431 114.6C277.111 114.781 276.764 114.909 276.391 114.984C276.028 115.059 275.655 115.096 275.271 115.096ZM275.383 114.104C275.906 114.104 276.38 114.019 276.807 113.848C277.234 113.667 277.57 113.4 277.815 113.048C278.071 112.696 278.199 112.259 278.199 111.736V111.096H276.311C275.98 111.096 275.644 111.107 275.303 111.128C274.962 111.139 274.652 111.192 274.375 111.288C274.098 111.373 273.874 111.517 273.703 111.72C273.532 111.912 273.447 112.189 273.447 112.552C273.447 112.915 273.538 113.213 273.719 113.448C273.9 113.672 274.14 113.837 274.439 113.944C274.738 114.051 275.052 114.104 275.383 114.104ZM280.298 115.032V114.024C280.512 114.013 280.698 113.965 280.858 113.88C281.029 113.795 281.173 113.677 281.29 113.528C281.482 113.293 281.626 112.968 281.722 112.552C281.818 112.125 281.882 111.667 281.914 111.176C281.957 110.675 281.984 110.168 281.994 109.656C282.016 109.133 282.032 108.616 282.042 108.104C282.064 107.581 282.08 107.069 282.09 106.568H287.866V115H286.73V107.544H283.194C283.184 107.949 283.168 108.355 283.146 108.76C283.136 109.155 283.12 109.549 283.098 109.944C283.088 110.339 283.072 110.739 283.05 111.144C283.029 111.613 282.976 112.12 282.89 112.664C282.805 113.197 282.629 113.672 282.362 114.088C282.149 114.429 281.888 114.669 281.578 114.808C281.269 114.947 280.842 115.021 280.298 115.032ZM289.674 115V106.568H290.826V109.88H292.794C293.263 109.88 293.701 109.917 294.106 109.992C294.511 110.056 294.863 110.179 295.162 110.36C295.471 110.541 295.711 110.792 295.882 111.112C296.053 111.432 296.138 111.843 296.138 112.344C296.138 112.813 296.058 113.219 295.898 113.56C295.738 113.891 295.509 114.163 295.21 114.376C294.922 114.589 294.581 114.749 294.186 114.856C293.791 114.952 293.359 115 292.89 115H289.674ZM290.826 114.024H291.994C292.367 114.024 292.73 114.013 293.082 113.992C293.434 113.96 293.754 113.896 294.042 113.8C294.341 113.704 294.575 113.544 294.746 113.32C294.917 113.096 295.002 112.787 295.002 112.392C295.002 112.029 294.927 111.747 294.778 111.544C294.629 111.341 294.437 111.192 294.202 111.096C293.967 110.989 293.711 110.925 293.434 110.904C293.157 110.872 292.879 110.856 292.602 110.856H290.826V114.024ZM297.563 115V106.568H298.699V110.376H303.339V106.568H304.459V115H303.339V111.352H298.699V115H297.563ZM308.92 115.096C308.579 115.096 308.232 115.053 307.88 114.968C307.528 114.872 307.208 114.728 306.92 114.536C306.632 114.333 306.398 114.077 306.216 113.768C306.046 113.448 305.96 113.075 305.96 112.648C305.96 112.168 306.046 111.768 306.216 111.448C306.398 111.128 306.638 110.872 306.936 110.68C307.235 110.488 307.576 110.355 307.96 110.28C308.344 110.195 308.75 110.152 309.176 110.152H311.848C311.848 109.629 311.774 109.171 311.624 108.776C311.486 108.371 311.251 108.051 310.92 107.816C310.6 107.581 310.168 107.464 309.624 107.464C309.336 107.464 309.059 107.496 308.792 107.56C308.526 107.624 308.286 107.731 308.072 107.88C307.87 108.019 307.71 108.211 307.592 108.456H306.376C306.472 108.083 306.632 107.768 306.856 107.512C307.091 107.256 307.363 107.053 307.672 106.904C307.982 106.744 308.307 106.632 308.648 106.568C308.99 106.504 309.315 106.472 309.624 106.472C310.424 106.472 311.07 106.637 311.56 106.968C312.051 107.288 312.403 107.747 312.616 108.344C312.84 108.931 312.952 109.624 312.952 110.424V115H311.976L311.928 113.848C311.694 114.168 311.411 114.419 311.08 114.6C310.76 114.781 310.414 114.909 310.04 114.984C309.678 115.059 309.304 115.096 308.92 115.096ZM309.032 114.104C309.555 114.104 310.03 114.019 310.456 113.848C310.883 113.667 311.219 113.4 311.464 113.048C311.72 112.696 311.848 112.259 311.848 111.736V111.096H309.96C309.63 111.096 309.294 111.107 308.952 111.128C308.611 111.139 308.302 111.192 308.024 111.288C307.747 111.373 307.523 111.517 307.352 111.72C307.182 111.912 307.096 112.189 307.096 112.552C307.096 112.915 307.187 113.213 307.368 113.448C307.55 113.672 307.79 113.837 308.088 113.944C308.387 114.051 308.702 114.104 309.032 114.104ZM314.204 115L316.46 111.624C315.82 111.475 315.302 111.208 314.908 110.824C314.524 110.429 314.332 109.891 314.332 109.208C314.332 108.696 314.412 108.269 314.572 107.928C314.732 107.587 314.956 107.32 315.244 107.128C315.532 106.925 315.873 106.781 316.268 106.696C316.673 106.611 317.121 106.568 317.612 106.568H320.988V115H319.852V111.784H317.66L315.532 115H314.204ZM318.444 110.808H319.852V107.56H317.836C317.505 107.56 317.196 107.576 316.908 107.608C316.63 107.64 316.385 107.709 316.172 107.816C315.958 107.923 315.788 108.083 315.66 108.296C315.542 108.499 315.484 108.776 315.484 109.128C315.484 109.523 315.569 109.832 315.74 110.056C315.921 110.28 316.156 110.445 316.444 110.552C316.732 110.659 317.052 110.728 317.404 110.76C317.756 110.792 318.102 110.808 318.444 110.808ZM52.9671 133V124.568H54.5511L57.4631 129.128L60.3591 124.568H61.9111V133H60.7911V125.752L57.6071 130.824H57.2711L54.0871 125.752V133H52.9671ZM67.3473 133.096C66.462 133.096 65.726 132.915 65.1393 132.552C64.5526 132.179 64.1153 131.667 63.8273 131.016C63.5393 130.365 63.3953 129.624 63.3953 128.792C63.3953 127.96 63.5446 127.224 63.8433 126.584C64.142 125.933 64.5846 125.421 65.1713 125.048C65.758 124.664 66.478 124.472 67.3313 124.472C67.95 124.472 68.4886 124.589 68.9473 124.824C69.4166 125.048 69.806 125.357 70.1153 125.752C70.4246 126.147 70.6486 126.595 70.7873 127.096C70.9366 127.597 71.0113 128.115 71.0113 128.648C71.0113 128.744 71.0113 128.835 71.0113 128.92C71.0113 129.005 71.006 129.091 70.9953 129.176H64.5313C64.574 129.741 64.702 130.248 64.9153 130.696C65.1286 131.133 65.438 131.48 65.8433 131.736C66.2593 131.981 66.7766 132.104 67.3953 132.104C67.6833 132.104 67.9766 132.072 68.2753 132.008C68.574 131.933 68.846 131.811 69.0913 131.64C69.3366 131.459 69.518 131.224 69.6353 130.936H70.8193C70.67 131.437 70.4193 131.848 70.0673 132.168C69.7153 132.488 69.2993 132.723 68.8193 132.872C68.3393 133.021 67.8486 133.096 67.3473 133.096ZM64.5633 128.2H69.8753C69.8646 127.677 69.7526 127.213 69.5393 126.808C69.326 126.392 69.0326 126.067 68.6593 125.832C68.286 125.587 67.8273 125.464 67.2833 125.464C66.718 125.464 66.238 125.592 65.8433 125.848C65.4486 126.104 65.1446 126.44 64.9313 126.856C64.7286 127.272 64.606 127.72 64.5633 128.2ZM74.5264 133V125.56H71.5184V124.568H78.6384V125.56H75.6464V133H74.5264ZM82.1178 133.096C81.7765 133.096 81.4298 133.053 81.0778 132.968C80.7258 132.872 80.4058 132.728 80.1178 132.536C79.8298 132.333 79.5951 132.077 79.4138 131.768C79.2431 131.448 79.1578 131.075 79.1578 130.648C79.1578 130.168 79.2431 129.768 79.4138 129.448C79.5951 129.128 79.8351 128.872 80.1338 128.68C80.4325 128.488 80.7738 128.355 81.1578 128.28C81.5418 128.195 81.9471 128.152 82.3738 128.152H85.0458C85.0458 127.629 84.9711 127.171 84.8218 126.776C84.6831 126.371 84.4485 126.051 84.1178 125.816C83.7978 125.581 83.3658 125.464 82.8218 125.464C82.5338 125.464 82.2565 125.496 81.9898 125.56C81.7231 125.624 81.4831 125.731 81.2698 125.88C81.0671 126.019 80.9071 126.211 80.7898 126.456H79.5738C79.6698 126.083 79.8298 125.768 80.0538 125.512C80.2885 125.256 80.5605 125.053 80.8698 124.904C81.1791 124.744 81.5045 124.632 81.8458 124.568C82.1871 124.504 82.5125 124.472 82.8218 124.472C83.6218 124.472 84.2671 124.637 84.7578 124.968C85.2485 125.288 85.6005 125.747 85.8138 126.344C86.0378 126.931 86.1498 127.624 86.1498 128.424V133H85.1738L85.1258 131.848C84.8911 132.168 84.6085 132.419 84.2778 132.6C83.9578 132.781 83.6111 132.909 83.2378 132.984C82.8751 133.059 82.5018 133.096 82.1178 133.096ZM82.2298 132.104C82.7525 132.104 83.2271 132.019 83.6538 131.848C84.0805 131.667 84.4165 131.4 84.6618 131.048C84.9178 130.696 85.0458 130.259 85.0458 129.736V129.096H83.1578C82.8271 129.096 82.4911 129.107 82.1498 129.128C81.8085 129.139 81.4991 129.192 81.2218 129.288C80.9445 129.373 80.7205 129.517 80.5498 129.72C80.3791 129.912 80.2938 130.189 80.2938 130.552C80.2938 130.915 80.3845 131.213 80.5658 131.448C80.7471 131.672 80.9871 131.837 81.2858 131.944C81.5845 132.051 81.8991 132.104 82.2298 132.104ZM92.0732 136.024V133.112C91.4225 133.091 90.8199 132.995 90.2652 132.824C89.7105 132.653 89.2305 132.397 88.8252 132.056C88.4199 131.715 88.0999 131.283 87.8652 130.76C87.6412 130.227 87.5292 129.592 87.5292 128.856C87.5292 127.885 87.7105 127.08 88.0732 126.44C88.4465 125.8 88.9692 125.315 89.6412 124.984C90.3239 124.653 91.1345 124.483 92.0732 124.472V121.848H93.2092V124.472C94.1479 124.483 94.9585 124.659 95.6412 125C96.3239 125.331 96.8465 125.816 97.2092 126.456C97.5719 127.096 97.7532 127.896 97.7532 128.856C97.7532 129.805 97.5612 130.595 97.1772 131.224C96.8039 131.843 96.2759 132.307 95.5932 132.616C94.9105 132.915 94.1159 133.08 93.2092 133.112V136.024H92.0732ZM92.0732 132.152V125.448C90.9639 125.448 90.1159 125.731 89.5292 126.296C88.9532 126.851 88.6652 127.688 88.6652 128.808C88.6652 129.555 88.7985 130.173 89.0652 130.664C89.3319 131.155 89.7159 131.523 90.2172 131.768C90.7292 132.013 91.3479 132.141 92.0732 132.152ZM93.2092 132.152C93.9452 132.141 94.5639 132.019 95.0652 131.784C95.5772 131.539 95.9665 131.171 96.2332 130.68C96.4999 130.179 96.6332 129.555 96.6332 128.808C96.6332 127.688 96.3399 126.851 95.7532 126.296C95.1665 125.731 94.3185 125.448 93.2092 125.448V132.152ZM102.841 133.096C101.956 133.096 101.215 132.915 100.617 132.552C100.02 132.179 99.5721 131.667 99.2734 131.016C98.9854 130.365 98.8414 129.624 98.8414 128.792C98.8414 127.949 98.9854 127.208 99.2734 126.568C99.5721 125.917 100.02 125.405 100.617 125.032C101.215 124.659 101.961 124.472 102.857 124.472C103.743 124.472 104.479 124.659 105.065 125.032C105.663 125.405 106.105 125.917 106.393 126.568C106.692 127.208 106.841 127.949 106.841 128.792C106.841 129.624 106.692 130.365 106.393 131.016C106.095 131.667 105.647 132.179 105.049 132.552C104.463 132.915 103.727 133.096 102.841 133.096ZM102.841 132.104C103.503 132.104 104.047 131.96 104.473 131.672C104.9 131.373 105.215 130.973 105.417 130.472C105.62 129.971 105.721 129.411 105.721 128.792C105.721 128.173 105.62 127.613 105.417 127.112C105.215 126.611 104.9 126.211 104.473 125.912C104.047 125.613 103.503 125.464 102.841 125.464C102.18 125.464 101.636 125.613 101.209 125.912C100.783 126.211 100.468 126.611 100.265 127.112C100.073 127.613 99.9774 128.173 99.9774 128.792C99.9774 129.411 100.073 129.971 100.265 130.472C100.468 130.973 100.783 131.373 101.209 131.672C101.636 131.96 102.18 132.104 102.841 132.104ZM108.316 136.12V124.568H109.404L109.452 125.992C109.783 125.469 110.199 125.085 110.7 124.84C111.212 124.595 111.783 124.472 112.412 124.472C113.265 124.472 113.964 124.664 114.508 125.048C115.052 125.432 115.457 125.955 115.724 126.616C115.991 127.267 116.124 127.997 116.124 128.808C116.124 129.64 115.985 130.381 115.708 131.032C115.441 131.683 115.025 132.189 114.46 132.552C113.905 132.915 113.201 133.096 112.348 133.096C111.953 133.096 111.575 133.053 111.212 132.968C110.849 132.883 110.519 132.744 110.22 132.552C109.921 132.349 109.665 132.099 109.452 131.8V136.12H108.316ZM112.3 132.104C112.961 132.104 113.484 131.955 113.868 131.656C114.263 131.347 114.545 130.941 114.716 130.44C114.897 129.939 114.988 129.389 114.988 128.792C114.988 128.184 114.897 127.629 114.716 127.128C114.535 126.627 114.241 126.227 113.836 125.928C113.431 125.619 112.897 125.464 112.236 125.464C111.628 125.464 111.111 125.619 110.684 125.928C110.268 126.237 109.953 126.648 109.74 127.16C109.527 127.672 109.42 128.221 109.42 128.808C109.42 129.437 109.521 130.003 109.724 130.504C109.937 130.995 110.257 131.384 110.684 131.672C111.121 131.96 111.66 132.104 112.3 132.104ZM120.205 133.096C119.863 133.096 119.517 133.053 119.165 132.968C118.813 132.872 118.493 132.728 118.205 132.536C117.917 132.333 117.682 132.077 117.501 131.768C117.33 131.448 117.245 131.075 117.245 130.648C117.245 130.168 117.33 129.768 117.501 129.448C117.682 129.128 117.922 128.872 118.221 128.68C118.519 128.488 118.861 128.355 119.245 128.28C119.629 128.195 120.034 128.152 120.461 128.152H123.133C123.133 127.629 123.058 127.171 122.909 126.776C122.77 126.371 122.535 126.051 122.205 125.816C121.885 125.581 121.453 125.464 120.909 125.464C120.621 125.464 120.343 125.496 120.077 125.56C119.81 125.624 119.57 125.731 119.357 125.88C119.154 126.019 118.994 126.211 118.877 126.456H117.661C117.757 126.083 117.917 125.768 118.141 125.512C118.375 125.256 118.647 125.053 118.957 124.904C119.266 124.744 119.591 124.632 119.933 124.568C120.274 124.504 120.599 124.472 120.909 124.472C121.709 124.472 122.354 124.637 122.845 124.968C123.335 125.288 123.687 125.747 123.901 126.344C124.125 126.931 124.237 127.624 124.237 128.424V133H123.261L123.213 131.848C122.978 132.168 122.695 132.419 122.365 132.6C122.045 132.781 121.698 132.909 121.325 132.984C120.962 133.059 120.589 133.096 120.205 133.096ZM120.317 132.104C120.839 132.104 121.314 132.019 121.741 131.848C122.167 131.667 122.503 131.4 122.749 131.048C123.005 130.696 123.133 130.259 123.133 129.736V129.096H121.245C120.914 129.096 120.578 129.107 120.237 129.128C119.895 129.139 119.586 129.192 119.309 129.288C119.031 129.373 118.807 129.517 118.637 129.72C118.466 129.912 118.381 130.189 118.381 130.552C118.381 130.915 118.471 131.213 118.653 131.448C118.834 131.672 119.074 131.837 119.373 131.944C119.671 132.051 119.986 132.104 120.317 132.104ZM132.928 133.096C132.544 133.096 132.155 133.064 131.76 133C131.376 132.936 131.014 132.824 130.672 132.664C130.342 132.504 130.064 132.285 129.84 132.008C129.616 131.72 129.483 131.357 129.44 130.92H130.56C130.646 131.229 130.822 131.475 131.088 131.656C131.366 131.827 131.67 131.944 132 132.008C132.342 132.072 132.646 132.104 132.912 132.104C133.243 132.104 133.584 132.067 133.936 131.992C134.288 131.917 134.582 131.773 134.816 131.56C135.062 131.347 135.184 131.032 135.184 130.616C135.184 130.211 135.083 129.912 134.88 129.72C134.678 129.528 134.416 129.4 134.096 129.336C133.776 129.272 133.44 129.24 133.088 129.24H131.616V128.264H132.72C132.944 128.264 133.179 128.243 133.424 128.2C133.68 128.157 133.915 128.083 134.128 127.976C134.342 127.869 134.512 127.72 134.64 127.528C134.779 127.336 134.848 127.091 134.848 126.792C134.848 126.461 134.752 126.2 134.56 126.008C134.368 125.805 134.123 125.667 133.824 125.592C133.526 125.507 133.227 125.464 132.928 125.464C132.662 125.464 132.379 125.491 132.08 125.544C131.782 125.597 131.52 125.704 131.296 125.864C131.072 126.024 130.928 126.264 130.864 126.584H129.728C129.771 126.04 129.958 125.619 130.288 125.32C130.63 125.011 131.035 124.792 131.504 124.664C131.984 124.536 132.454 124.472 132.912 124.472C133.275 124.472 133.632 124.509 133.984 124.584C134.347 124.648 134.672 124.765 134.96 124.936C135.259 125.107 135.494 125.336 135.664 125.624C135.846 125.901 135.942 126.248 135.952 126.664C135.963 127.069 135.867 127.432 135.664 127.752C135.472 128.072 135.152 128.328 134.704 128.52C135.291 128.659 135.707 128.92 135.952 129.304C136.198 129.688 136.32 130.125 136.32 130.616C136.32 131.075 136.219 131.459 136.016 131.768C135.824 132.077 135.563 132.333 135.232 132.536C134.912 132.739 134.55 132.883 134.144 132.968C133.75 133.053 133.344 133.096 132.928 133.096ZM137.731 133V124.568H140.979C141.331 124.568 141.688 124.595 142.051 124.648C142.413 124.691 142.744 124.787 143.043 124.936C143.352 125.075 143.597 125.283 143.779 125.56C143.971 125.827 144.067 126.189 144.067 126.648C144.067 126.893 144.024 127.133 143.939 127.368C143.853 127.603 143.72 127.816 143.539 128.008C143.368 128.2 143.128 128.36 142.819 128.488C143.427 128.616 143.869 128.867 144.147 129.24C144.424 129.603 144.563 130.04 144.563 130.552C144.563 130.979 144.483 131.347 144.323 131.656C144.173 131.965 143.96 132.221 143.683 132.424C143.416 132.616 143.101 132.76 142.739 132.856C142.387 132.952 142.013 133 141.619 133H137.731ZM138.883 132.024H141.315C141.656 132.024 141.987 131.992 142.307 131.928C142.637 131.853 142.904 131.72 143.107 131.528C143.32 131.325 143.427 131.032 143.427 130.648C143.427 130.285 143.347 130.008 143.187 129.816C143.027 129.613 142.819 129.469 142.563 129.384C142.307 129.299 142.029 129.245 141.731 129.224C141.432 129.203 141.149 129.192 140.883 129.192H138.883V132.024ZM138.883 128.248H140.419C140.653 128.248 140.915 128.232 141.203 128.2C141.491 128.168 141.768 128.104 142.035 128.008C142.301 127.912 142.52 127.773 142.691 127.592C142.861 127.4 142.947 127.149 142.947 126.84C142.947 126.413 142.829 126.115 142.595 125.944C142.371 125.763 142.093 125.651 141.763 125.608C141.443 125.565 141.133 125.544 140.835 125.544H138.883V128.248ZM146.329 136.712V135.64C146.851 135.64 147.273 135.56 147.593 135.4C147.923 135.24 148.195 134.995 148.409 134.664C148.633 134.333 148.846 133.923 149.049 133.432L145.289 124.568H146.633L149.673 132.088L152.185 124.568H153.481L150.937 131.704C150.83 132.013 150.702 132.365 150.553 132.76C150.414 133.144 150.259 133.539 150.089 133.944C149.918 134.349 149.731 134.728 149.529 135.08C149.326 135.432 149.102 135.715 148.857 135.928C148.633 136.131 148.409 136.285 148.185 136.392C147.971 136.509 147.721 136.589 147.433 136.632C147.145 136.685 146.777 136.712 146.329 136.712ZM154.399 133V124.568H155.535V128.296H157.247L159.807 124.568H161.087L158.271 128.6L161.343 133H160.031L157.391 129.272H155.535V133H154.399ZM164.678 133.096C164.337 133.096 163.99 133.053 163.638 132.968C163.286 132.872 162.966 132.728 162.678 132.536C162.39 132.333 162.156 132.077 161.974 131.768C161.804 131.448 161.718 131.075 161.718 130.648C161.718 130.168 161.804 129.768 161.974 129.448C162.156 129.128 162.396 128.872 162.694 128.68C162.993 128.488 163.334 128.355 163.718 128.28C164.102 128.195 164.508 128.152 164.934 128.152H167.606C167.606 127.629 167.532 127.171 167.382 126.776C167.244 126.371 167.009 126.051 166.678 125.816C166.358 125.581 165.926 125.464 165.382 125.464C165.094 125.464 164.817 125.496 164.55 125.56C164.284 125.624 164.044 125.731 163.83 125.88C163.628 126.019 163.468 126.211 163.35 126.456H162.134C162.23 126.083 162.39 125.768 162.614 125.512C162.849 125.256 163.121 125.053 163.43 124.904C163.74 124.744 164.065 124.632 164.406 124.568C164.748 124.504 165.073 124.472 165.382 124.472C166.182 124.472 166.828 124.637 167.318 124.968C167.809 125.288 168.161 125.747 168.374 126.344C168.598 126.931 168.71 127.624 168.71 128.424V133H167.734L167.686 131.848C167.452 132.168 167.169 132.419 166.838 132.6C166.518 132.781 166.172 132.909 165.798 132.984C165.436 133.059 165.062 133.096 164.678 133.096ZM164.79 132.104C165.313 132.104 165.788 132.019 166.214 131.848C166.641 131.667 166.977 131.4 167.222 131.048C167.478 130.696 167.606 130.259 167.606 129.736V129.096H165.718C165.388 129.096 165.052 129.107 164.71 129.128C164.369 129.139 164.06 129.192 163.782 129.288C163.505 129.373 163.281 129.517 163.11 129.72C162.94 129.912 162.854 130.189 162.854 130.552C162.854 130.915 162.945 131.213 163.126 131.448C163.308 131.672 163.548 131.837 163.846 131.944C164.145 132.051 164.46 132.104 164.79 132.104ZM170.778 134.872L170.442 134.408C170.591 134.312 170.724 134.195 170.842 134.056C170.97 133.917 171.082 133.763 171.178 133.592C171.284 133.421 171.354 133.24 171.386 133.048C171.162 133.048 170.959 132.984 170.778 132.856C170.596 132.717 170.506 132.509 170.506 132.232C170.506 131.987 170.586 131.789 170.746 131.64C170.916 131.491 171.119 131.416 171.354 131.416C171.652 131.416 171.876 131.523 172.026 131.736C172.186 131.949 172.266 132.227 172.266 132.568C172.266 132.877 172.196 133.187 172.058 133.496C171.93 133.805 171.754 134.083 171.53 134.328C171.306 134.573 171.055 134.755 170.778 134.872ZM177.392 133V124.568H184.352V133H183.216V125.56H178.528V133H177.392ZM189.836 133.096C188.951 133.096 188.209 132.915 187.612 132.552C187.015 132.179 186.567 131.667 186.268 131.016C185.98 130.365 185.836 129.624 185.836 128.792C185.836 127.949 185.98 127.208 186.268 126.568C186.567 125.917 187.015 125.405 187.612 125.032C188.209 124.659 188.956 124.472 189.852 124.472C190.737 124.472 191.473 124.659 192.06 125.032C192.657 125.405 193.1 125.917 193.388 126.568C193.687 127.208 193.836 127.949 193.836 128.792C193.836 129.624 193.687 130.365 193.388 131.016C193.089 131.667 192.641 132.179 192.044 132.552C191.457 132.915 190.721 133.096 189.836 133.096ZM189.836 132.104C190.497 132.104 191.041 131.96 191.468 131.672C191.895 131.373 192.209 130.973 192.412 130.472C192.615 129.971 192.716 129.411 192.716 128.792C192.716 128.173 192.615 127.613 192.412 127.112C192.209 126.611 191.895 126.211 191.468 125.912C191.041 125.613 190.497 125.464 189.836 125.464C189.175 125.464 188.631 125.613 188.204 125.912C187.777 126.211 187.463 126.611 187.26 127.112C187.068 127.613 186.972 128.173 186.972 128.792C186.972 129.411 187.068 129.971 187.26 130.472C187.463 130.973 187.777 131.373 188.204 131.672C188.631 131.96 189.175 132.104 189.836 132.104ZM195.311 133V124.568H196.447V128.376H201.087V124.568H202.207V133H201.087V129.352H196.447V133H195.311ZM203.5 133L205.756 129.624C205.116 129.475 204.599 129.208 204.204 128.824C203.82 128.429 203.628 127.891 203.628 127.208C203.628 126.696 203.708 126.269 203.868 125.928C204.028 125.587 204.252 125.32 204.54 125.128C204.828 124.925 205.169 124.781 205.564 124.696C205.969 124.611 206.417 124.568 206.908 124.568H210.284V133H209.148V129.784H206.956L204.828 133H203.5ZM207.74 128.808H209.148V125.56H207.132C206.801 125.56 206.492 125.576 206.204 125.608C205.927 125.64 205.681 125.709 205.468 125.816C205.255 125.923 205.084 126.083 204.956 126.296C204.839 126.499 204.78 126.776 204.78 127.128C204.78 127.523 204.865 127.832 205.036 128.056C205.217 128.28 205.452 128.445 205.74 128.552C206.028 128.659 206.348 128.728 206.7 128.76C207.052 128.792 207.399 128.808 207.74 128.808ZM214.104 133V125.56H211.096V124.568H218.216V125.56H215.224V133H214.104ZM219.04 133V124.568H220.176V128.376H224.816V124.568H225.936V133H224.816V129.352H220.176V133H219.04ZM230.397 133.096C230.056 133.096 229.709 133.053 229.357 132.968C229.005 132.872 228.685 132.728 228.397 132.536C228.109 132.333 227.874 132.077 227.693 131.768C227.522 131.448 227.437 131.075 227.437 130.648C227.437 130.168 227.522 129.768 227.693 129.448C227.874 129.128 228.114 128.872 228.413 128.68C228.712 128.488 229.053 128.355 229.437 128.28C229.821 128.195 230.226 128.152 230.653 128.152H233.325C233.325 127.629 233.25 127.171 233.101 126.776C232.962 126.371 232.728 126.051 232.397 125.816C232.077 125.581 231.645 125.464 231.101 125.464C230.813 125.464 230.536 125.496 230.269 125.56C230.002 125.624 229.762 125.731 229.549 125.88C229.346 126.019 229.186 126.211 229.069 126.456H227.853C227.949 126.083 228.109 125.768 228.333 125.512C228.568 125.256 228.84 125.053 229.149 124.904C229.458 124.744 229.784 124.632 230.125 124.568C230.466 124.504 230.792 124.472 231.101 124.472C231.901 124.472 232.546 124.637 233.037 124.968C233.528 125.288 233.88 125.747 234.093 126.344C234.317 126.931 234.429 127.624 234.429 128.424V133H233.453L233.405 131.848C233.17 132.168 232.888 132.419 232.557 132.6C232.237 132.781 231.89 132.909 231.517 132.984C231.154 133.059 230.781 133.096 230.397 133.096ZM230.509 132.104C231.032 132.104 231.506 132.019 231.933 131.848C232.36 131.667 232.696 131.4 232.941 131.048C233.197 130.696 233.325 130.259 233.325 129.736V129.096H231.437C231.106 129.096 230.77 129.107 230.429 129.128C230.088 129.139 229.778 129.192 229.501 129.288C229.224 129.373 229 129.517 228.829 129.72C228.658 129.912 228.573 130.189 228.573 130.552C228.573 130.915 228.664 131.213 228.845 131.448C229.026 131.672 229.266 131.837 229.565 131.944C229.864 132.051 230.178 132.104 230.509 132.104ZM235.68 133L237.936 129.624C237.296 129.475 236.779 129.208 236.384 128.824C236 128.429 235.808 127.891 235.808 127.208C235.808 126.696 235.888 126.269 236.048 125.928C236.208 125.587 236.432 125.32 236.72 125.128C237.008 124.925 237.35 124.781 237.744 124.696C238.15 124.611 238.598 124.568 239.088 124.568H242.464V133H241.328V129.784H239.136L237.008 133H235.68ZM239.92 128.808H241.328V125.56H239.312C238.982 125.56 238.672 125.576 238.384 125.608C238.107 125.64 237.862 125.709 237.648 125.816C237.435 125.923 237.264 126.083 237.136 126.296C237.019 126.499 236.96 126.776 236.96 127.128C236.96 127.523 237.046 127.832 237.216 128.056C237.398 128.28 237.632 128.445 237.92 128.552C238.208 128.659 238.528 128.728 238.88 128.76C239.232 128.792 239.579 128.808 239.92 128.808ZM247.405 133.032V132.024C247.619 132.013 247.805 131.965 247.965 131.88C248.136 131.795 248.28 131.677 248.397 131.528C248.589 131.293 248.733 130.968 248.829 130.552C248.925 130.125 248.989 129.667 249.021 129.176C249.064 128.675 249.091 128.168 249.101 127.656C249.123 127.133 249.139 126.616 249.149 126.104C249.171 125.581 249.187 125.069 249.197 124.568H254.973V133H253.837V125.544H250.301C250.291 125.949 250.275 126.355 250.253 126.76C250.243 127.155 250.227 127.549 250.205 127.944C250.195 128.339 250.179 128.739 250.157 129.144C250.136 129.613 250.083 130.12 249.997 130.664C249.912 131.197 249.736 131.672 249.469 132.088C249.256 132.429 248.995 132.669 248.685 132.808C248.376 132.947 247.949 133.021 247.405 133.032ZM263.661 133.096C262.434 133.096 261.501 132.744 260.861 132.04C260.232 131.336 259.874 130.413 259.789 129.272H257.917V133H256.781V124.568H257.917V128.296H259.789C259.853 127.539 260.034 126.872 260.333 126.296C260.632 125.72 261.058 125.272 261.613 124.952C262.168 124.632 262.856 124.472 263.677 124.472C264.562 124.472 265.298 124.659 265.885 125.032C266.472 125.405 266.909 125.917 267.197 126.568C267.485 127.208 267.629 127.949 267.629 128.792C267.629 129.624 267.485 130.365 267.197 131.016C266.909 131.667 266.472 132.179 265.885 132.552C265.298 132.915 264.557 133.096 263.661 133.096ZM263.677 132.104C264.338 132.104 264.877 131.96 265.293 131.672C265.709 131.373 266.013 130.973 266.205 130.472C266.408 129.96 266.509 129.4 266.509 128.792C266.509 128.173 266.408 127.613 266.205 127.112C266.013 126.611 265.709 126.211 265.293 125.912C264.877 125.613 264.338 125.464 263.677 125.464C263.016 125.464 262.477 125.619 262.061 125.928C261.656 126.227 261.357 126.627 261.165 127.128C260.984 127.629 260.893 128.184 260.893 128.792C260.893 129.4 260.984 129.96 261.165 130.472C261.357 130.973 261.656 131.373 262.061 131.672C262.477 131.96 263.016 132.104 263.677 132.104ZM272.721 133.096C272.134 133.096 271.622 133.011 271.185 132.84C270.758 132.659 270.401 132.408 270.113 132.088C269.825 131.768 269.59 131.395 269.409 130.968C269.238 130.541 269.11 130.088 269.025 129.608C268.95 129.117 268.913 128.611 268.913 128.088C268.913 127.331 268.934 126.616 268.977 125.944C269.03 125.272 269.158 124.669 269.361 124.136C269.564 123.592 269.889 123.139 270.337 122.776C270.785 122.413 271.404 122.163 272.193 122.024C272.652 121.939 273.105 121.869 273.553 121.816C274.001 121.763 274.444 121.709 274.881 121.656C275.009 121.635 275.142 121.613 275.281 121.592C275.42 121.571 275.564 121.549 275.713 121.528C275.873 121.496 276.022 121.469 276.161 121.448V122.488C276.054 122.531 275.916 122.568 275.745 122.6C275.574 122.621 275.393 122.648 275.201 122.68C275.009 122.701 274.817 122.723 274.625 122.744C274.444 122.755 274.273 122.771 274.113 122.792C273.964 122.803 273.841 122.813 273.745 122.824C273.361 122.867 272.966 122.92 272.561 122.984C272.166 123.037 271.793 123.144 271.441 123.304C271.1 123.453 270.812 123.715 270.577 124.088C270.417 124.344 270.294 124.637 270.209 124.968C270.124 125.299 270.065 125.629 270.033 125.96C270.001 126.28 269.98 126.568 269.969 126.824C270.193 126.419 270.476 126.104 270.817 125.88C271.158 125.645 271.521 125.48 271.905 125.384C272.289 125.277 272.652 125.224 272.993 125.224C273.75 125.224 274.396 125.384 274.929 125.704C275.462 126.024 275.862 126.472 276.129 127.048C276.406 127.624 276.545 128.291 276.545 129.048C276.545 129.816 276.396 130.509 276.097 131.128C275.798 131.736 275.361 132.216 274.785 132.568C274.22 132.92 273.532 133.096 272.721 133.096ZM272.753 132.104C273.329 132.104 273.814 131.971 274.209 131.704C274.604 131.427 274.902 131.059 275.105 130.6C275.318 130.141 275.425 129.64 275.425 129.096C275.425 128.552 275.324 128.067 275.121 127.64C274.918 127.203 274.62 126.861 274.225 126.616C273.841 126.36 273.366 126.232 272.801 126.232C272.257 126.232 271.782 126.365 271.377 126.632C270.982 126.899 270.673 127.251 270.449 127.688C270.225 128.125 270.113 128.605 270.113 129.128C270.113 129.661 270.209 130.157 270.401 130.616C270.604 131.064 270.897 131.427 271.281 131.704C271.676 131.971 272.166 132.104 272.753 132.104ZM281.692 133.096C280.806 133.096 280.065 132.915 279.468 132.552C278.87 132.179 278.422 131.667 278.124 131.016C277.836 130.365 277.692 129.624 277.692 128.792C277.692 127.949 277.836 127.208 278.124 126.568C278.422 125.917 278.87 125.405 279.468 125.032C280.065 124.659 280.812 124.472 281.708 124.472C282.593 124.472 283.329 124.659 283.916 125.032C284.513 125.405 284.956 125.917 285.244 126.568C285.542 127.208 285.692 127.949 285.692 128.792C285.692 129.624 285.542 130.365 285.244 131.016C284.945 131.667 284.497 132.179 283.9 132.552C283.313 132.915 282.577 133.096 281.692 133.096ZM281.692 132.104C282.353 132.104 282.897 131.96 283.324 131.672C283.75 131.373 284.065 130.973 284.268 130.472C284.47 129.971 284.572 129.411 284.572 128.792C284.572 128.173 284.47 127.613 284.268 127.112C284.065 126.611 283.75 126.211 283.324 125.912C282.897 125.613 282.353 125.464 281.692 125.464C281.03 125.464 280.486 125.613 280.06 125.912C279.633 126.211 279.318 126.611 279.116 127.112C278.924 127.613 278.828 128.173 278.828 128.792C278.828 129.411 278.924 129.971 279.116 130.472C279.318 130.973 279.633 131.373 280.06 131.672C280.486 131.96 281.03 132.104 281.692 132.104ZM287.166 133V124.568H288.75L291.662 129.128L294.558 124.568H296.11V133H294.99V125.752L291.806 130.824H291.47L288.286 125.752V133H287.166ZM298.171 136.712V135.64C298.693 135.64 299.115 135.56 299.435 135.4C299.765 135.24 300.037 134.995 300.251 134.664C300.475 134.333 300.688 133.923 300.891 133.432L297.131 124.568H298.475L301.515 132.088L304.027 124.568H305.323L302.779 131.704C302.672 132.013 302.544 132.365 302.395 132.76C302.256 133.144 302.101 133.539 301.931 133.944C301.76 134.349 301.573 134.728 301.371 135.08C301.168 135.432 300.944 135.715 300.699 135.928C300.475 136.131 300.251 136.285 300.027 136.392C299.813 136.509 299.563 136.589 299.275 136.632C298.987 136.685 298.619 136.712 298.171 136.712ZM49.9514 151V142.568H56.9114V151H55.7754V143.56H51.0874V151H49.9514ZM62.3953 151.096C61.51 151.096 60.7687 150.915 60.1713 150.552C59.574 150.179 59.126 149.667 58.8273 149.016C58.5393 148.365 58.3953 147.624 58.3953 146.792C58.3953 145.949 58.5393 145.208 58.8273 144.568C59.126 143.917 59.574 143.405 60.1713 143.032C60.7687 142.659 61.5153 142.472 62.4113 142.472C63.2967 142.472 64.0327 142.659 64.6193 143.032C65.2167 143.405 65.6593 143.917 65.9473 144.568C66.246 145.208 66.3953 145.949 66.3953 146.792C66.3953 147.624 66.246 148.365 65.9473 149.016C65.6487 149.667 65.2007 150.179 64.6033 150.552C64.0167 150.915 63.2807 151.096 62.3953 151.096ZM62.3953 150.104C63.0567 150.104 63.6007 149.96 64.0273 149.672C64.454 149.373 64.7687 148.973 64.9713 148.472C65.174 147.971 65.2753 147.411 65.2753 146.792C65.2753 146.173 65.174 145.613 64.9713 145.112C64.7687 144.611 64.454 144.211 64.0273 143.912C63.6007 143.613 63.0567 143.464 62.3953 143.464C61.734 143.464 61.19 143.613 60.7633 143.912C60.3367 144.211 60.022 144.611 59.8193 145.112C59.6273 145.613 59.5313 146.173 59.5313 146.792C59.5313 147.411 59.6273 147.971 59.8193 148.472C60.022 148.973 60.3367 149.373 60.7633 149.672C61.19 149.96 61.734 150.104 62.3953 150.104ZM67.0237 151.032V150.024C67.237 150.013 67.4237 149.965 67.5837 149.88C67.7544 149.795 67.8984 149.677 68.0157 149.528C68.2077 149.293 68.3517 148.968 68.4477 148.552C68.5437 148.125 68.6077 147.667 68.6397 147.176C68.6824 146.675 68.709 146.168 68.7197 145.656C68.741 145.133 68.757 144.616 68.7677 144.104C68.789 143.581 68.805 143.069 68.8157 142.568H74.5917V151H73.4557V143.544H69.9197C69.909 143.949 69.893 144.355 69.8717 144.76C69.861 145.155 69.845 145.549 69.8237 145.944C69.813 146.339 69.797 146.739 69.7757 147.144C69.7544 147.613 69.701 148.12 69.6157 148.664C69.5304 149.197 69.3544 149.672 69.0877 150.088C68.8744 150.429 68.613 150.669 68.3037 150.808C67.9944 150.947 67.5677 151.021 67.0237 151.032ZM76.3993 151V142.568H77.5513V145.88H79.5193C79.9887 145.88 80.426 145.917 80.8313 145.992C81.2367 146.056 81.5887 146.179 81.8873 146.36C82.1967 146.541 82.4367 146.792 82.6073 147.112C82.778 147.432 82.8633 147.843 82.8633 148.344C82.8633 148.813 82.7833 149.219 82.6233 149.56C82.4633 149.891 82.234 150.163 81.9353 150.376C81.6473 150.589 81.306 150.749 80.9113 150.856C80.5167 150.952 80.0847 151 79.6153 151H76.3993ZM77.5513 150.024H78.7193C79.0927 150.024 79.4553 150.013 79.8073 149.992C80.1593 149.96 80.4793 149.896 80.7673 149.8C81.066 149.704 81.3007 149.544 81.4713 149.32C81.642 149.096 81.7273 148.787 81.7273 148.392C81.7273 148.029 81.6527 147.747 81.5033 147.544C81.354 147.341 81.162 147.192 80.9273 147.096C80.6927 146.989 80.4367 146.925 80.1593 146.904C79.882 146.872 79.6047 146.856 79.3273 146.856H77.5513V150.024ZM87.3122 151.096C86.9282 151.096 86.5389 151.064 86.1442 151C85.7602 150.936 85.3975 150.824 85.0562 150.664C84.7255 150.504 84.4482 150.285 84.2242 150.008C84.0002 149.72 83.8669 149.357 83.8242 148.92H84.9442C85.0295 149.229 85.2055 149.475 85.4722 149.656C85.7495 149.827 86.0535 149.944 86.3842 150.008C86.7255 150.072 87.0295 150.104 87.2962 150.104C87.6269 150.104 87.9682 150.067 88.3202 149.992C88.6722 149.917 88.9655 149.773 89.2002 149.56C89.4455 149.347 89.5682 149.032 89.5682 148.616C89.5682 148.211 89.4669 147.912 89.2642 147.72C89.0615 147.528 88.8002 147.4 88.4802 147.336C88.1602 147.272 87.8242 147.24 87.4722 147.24H86.0002V146.264H87.1042C87.3282 146.264 87.5629 146.243 87.8082 146.2C88.0642 146.157 88.2989 146.083 88.5122 145.976C88.7255 145.869 88.8962 145.72 89.0242 145.528C89.1629 145.336 89.2322 145.091 89.2322 144.792C89.2322 144.461 89.1362 144.2 88.9442 144.008C88.7522 143.805 88.5069 143.667 88.2082 143.592C87.9095 143.507 87.6109 143.464 87.3122 143.464C87.0455 143.464 86.7629 143.491 86.4642 143.544C86.1655 143.597 85.9042 143.704 85.6802 143.864C85.4562 144.024 85.3122 144.264 85.2482 144.584H84.1122C84.1549 144.04 84.3415 143.619 84.6722 143.32C85.0135 143.011 85.4189 142.792 85.8882 142.664C86.3682 142.536 86.8375 142.472 87.2962 142.472C87.6589 142.472 88.0162 142.509 88.3682 142.584C88.7309 142.648 89.0562 142.765 89.3442 142.936C89.6429 143.107 89.8775 143.336 90.0482 143.624C90.2295 143.901 90.3255 144.248 90.3362 144.664C90.3469 145.069 90.2509 145.432 90.0482 145.752C89.8562 146.072 89.5362 146.328 89.0882 146.52C89.6749 146.659 90.0909 146.92 90.3362 147.304C90.5815 147.688 90.7042 148.125 90.7042 148.616C90.7042 149.075 90.6029 149.459 90.4002 149.768C90.2082 150.077 89.9469 150.333 89.6162 150.536C89.2962 150.739 88.9335 150.883 88.5282 150.968C88.1335 151.053 87.7282 151.096 87.3122 151.096ZM95.7946 151.096C94.9092 151.096 94.1679 150.915 93.5706 150.552C92.9732 150.179 92.5252 149.667 92.2266 149.016C91.9386 148.365 91.7946 147.624 91.7946 146.792C91.7946 145.949 91.9386 145.208 92.2266 144.568C92.5252 143.917 92.9732 143.405 93.5706 143.032C94.1679 142.659 94.9146 142.472 95.8106 142.472C96.6959 142.472 97.4319 142.659 98.0186 143.032C98.6159 143.405 99.0586 143.917 99.3466 144.568C99.6452 145.208 99.7946 145.949 99.7946 146.792C99.7946 147.624 99.6452 148.365 99.3466 149.016C99.0479 149.667 98.5999 150.179 98.0026 150.552C97.4159 150.915 96.6799 151.096 95.7946 151.096ZM95.7946 150.104C96.4559 150.104 96.9999 149.96 97.4266 149.672C97.8532 149.373 98.1679 148.973 98.3706 148.472C98.5732 147.971 98.6746 147.411 98.6746 146.792C98.6746 146.173 98.5732 145.613 98.3706 145.112C98.1679 144.611 97.8532 144.211 97.4266 143.912C96.9999 143.613 96.4559 143.464 95.7946 143.464C95.1332 143.464 94.5892 143.613 94.1626 143.912C93.7359 144.211 93.4212 144.611 93.2186 145.112C93.0266 145.613 92.9306 146.173 92.9306 146.792C92.9306 147.411 93.0266 147.971 93.2186 148.472C93.4212 148.973 93.7359 149.373 94.1626 149.672C94.5892 149.96 95.1332 150.104 95.7946 150.104ZM101.269 151V142.568H104.517C104.869 142.568 105.226 142.595 105.589 142.648C105.952 142.691 106.282 142.787 106.581 142.936C106.89 143.075 107.136 143.283 107.317 143.56C107.509 143.827 107.605 144.189 107.605 144.648C107.605 144.893 107.562 145.133 107.477 145.368C107.392 145.603 107.258 145.816 107.077 146.008C106.906 146.2 106.666 146.36 106.357 146.488C106.965 146.616 107.408 146.867 107.685 147.24C107.962 147.603 108.101 148.04 108.101 148.552C108.101 148.979 108.021 149.347 107.861 149.656C107.712 149.965 107.498 150.221 107.221 150.424C106.954 150.616 106.64 150.76 106.277 150.856C105.925 150.952 105.552 151 105.157 151H101.269ZM102.421 150.024H104.853C105.194 150.024 105.525 149.992 105.845 149.928C106.176 149.853 106.442 149.72 106.645 149.528C106.858 149.325 106.965 149.032 106.965 148.648C106.965 148.285 106.885 148.008 106.725 147.816C106.565 147.613 106.357 147.469 106.101 147.384C105.845 147.299 105.568 147.245 105.269 147.224C104.97 147.203 104.688 147.192 104.421 147.192H102.421V150.024ZM102.421 146.248H103.957C104.192 146.248 104.453 146.232 104.741 146.2C105.029 146.168 105.306 146.104 105.573 146.008C105.84 145.912 106.058 145.773 106.229 145.592C106.4 145.4 106.485 145.149 106.485 144.84C106.485 144.413 106.368 144.115 106.133 143.944C105.909 143.763 105.632 143.651 105.301 143.608C104.981 143.565 104.672 143.544 104.373 143.544H102.421V146.248ZM112.267 151.096C111.926 151.096 111.579 151.053 111.227 150.968C110.875 150.872 110.555 150.728 110.267 150.536C109.979 150.333 109.744 150.077 109.563 149.768C109.392 149.448 109.307 149.075 109.307 148.648C109.307 148.168 109.392 147.768 109.563 147.448C109.744 147.128 109.984 146.872 110.283 146.68C110.582 146.488 110.923 146.355 111.307 146.28C111.691 146.195 112.096 146.152 112.523 146.152H115.195C115.195 145.629 115.12 145.171 114.971 144.776C114.832 144.371 114.598 144.051 114.267 143.816C113.947 143.581 113.515 143.464 112.971 143.464C112.683 143.464 112.406 143.496 112.139 143.56C111.872 143.624 111.632 143.731 111.419 143.88C111.216 144.019 111.056 144.211 110.939 144.456H109.723C109.819 144.083 109.979 143.768 110.203 143.512C110.438 143.256 110.71 143.053 111.019 142.904C111.328 142.744 111.654 142.632 111.995 142.568C112.336 142.504 112.662 142.472 112.971 142.472C113.771 142.472 114.416 142.637 114.907 142.968C115.398 143.288 115.75 143.747 115.963 144.344C116.187 144.931 116.299 145.624 116.299 146.424V151H115.323L115.275 149.848C115.04 150.168 114.758 150.419 114.427 150.6C114.107 150.781 113.76 150.909 113.387 150.984C113.024 151.059 112.651 151.096 112.267 151.096ZM112.379 150.104C112.902 150.104 113.376 150.019 113.803 149.848C114.23 149.667 114.566 149.4 114.811 149.048C115.067 148.696 115.195 148.259 115.195 147.736V147.096H113.307C112.976 147.096 112.64 147.107 112.299 147.128C111.958 147.139 111.648 147.192 111.371 147.288C111.094 147.373 110.87 147.517 110.699 147.72C110.528 147.912 110.443 148.189 110.443 148.552C110.443 148.915 110.534 149.213 110.715 149.448C110.896 149.672 111.136 149.837 111.435 149.944C111.734 150.051 112.048 150.104 112.379 150.104ZM120.078 151V143.56H117.07V142.568H124.19V143.56H121.198V151H120.078ZM128.646 151.096C127.76 151.096 127.024 150.915 126.438 150.552C125.851 150.179 125.414 149.667 125.126 149.016C124.838 148.365 124.694 147.624 124.694 146.792C124.694 145.96 124.843 145.224 125.142 144.584C125.44 143.933 125.883 143.421 126.47 143.048C127.056 142.664 127.776 142.472 128.63 142.472C129.248 142.472 129.787 142.589 130.246 142.824C130.715 143.048 131.104 143.357 131.414 143.752C131.723 144.147 131.947 144.595 132.086 145.096C132.235 145.597 132.31 146.115 132.31 146.648C132.31 146.744 132.31 146.835 132.31 146.92C132.31 147.005 132.304 147.091 132.294 147.176H125.83C125.872 147.741 126 148.248 126.214 148.696C126.427 149.133 126.736 149.48 127.142 149.736C127.558 149.981 128.075 150.104 128.694 150.104C128.982 150.104 129.275 150.072 129.574 150.008C129.872 149.933 130.144 149.811 130.39 149.64C130.635 149.459 130.816 149.224 130.934 148.936H132.118C131.968 149.437 131.718 149.848 131.366 150.168C131.014 150.488 130.598 150.723 130.118 150.872C129.638 151.021 129.147 151.096 128.646 151.096ZM125.862 146.2H131.174C131.163 145.677 131.051 145.213 130.838 144.808C130.624 144.392 130.331 144.067 129.958 143.832C129.584 143.587 129.126 143.464 128.582 143.464C128.016 143.464 127.536 143.592 127.142 143.848C126.747 144.104 126.443 144.44 126.23 144.856C126.027 145.272 125.904 145.72 125.862 146.2ZM132.963 151.032V150.024C133.176 150.013 133.363 149.965 133.523 149.88C133.693 149.795 133.837 149.677 133.955 149.528C134.147 149.293 134.291 148.968 134.387 148.552C134.483 148.125 134.547 147.667 134.579 147.176C134.621 146.675 134.648 146.168 134.659 145.656C134.68 145.133 134.696 144.616 134.707 144.104C134.728 143.581 134.744 143.069 134.755 142.568H140.531V151H139.395V143.544H135.859C135.848 143.949 135.832 144.355 135.811 144.76C135.8 145.155 135.784 145.549 135.763 145.944C135.752 146.339 135.736 146.739 135.715 147.144C135.693 147.613 135.64 148.12 135.555 148.664C135.469 149.197 135.293 149.672 135.027 150.088C134.813 150.429 134.552 150.669 134.243 150.808C133.933 150.947 133.507 151.021 132.963 151.032ZM149.218 151.096C147.992 151.096 147.058 150.744 146.418 150.04C145.789 149.336 145.432 148.413 145.346 147.272H143.474V151H142.338V142.568H143.474V146.296H145.346C145.41 145.539 145.592 144.872 145.89 144.296C146.189 143.72 146.616 143.272 147.17 142.952C147.725 142.632 148.413 142.472 149.234 142.472C150.12 142.472 150.856 142.659 151.442 143.032C152.029 143.405 152.466 143.917 152.754 144.568C153.042 145.208 153.186 145.949 153.186 146.792C153.186 147.624 153.042 148.365 152.754 149.016C152.466 149.667 152.029 150.179 151.442 150.552C150.856 150.915 150.114 151.096 149.218 151.096ZM149.234 150.104C149.896 150.104 150.434 149.96 150.85 149.672C151.266 149.373 151.57 148.973 151.762 148.472C151.965 147.96 152.066 147.4 152.066 146.792C152.066 146.173 151.965 145.613 151.762 145.112C151.57 144.611 151.266 144.211 150.85 143.912C150.434 143.613 149.896 143.464 149.234 143.464C148.573 143.464 148.034 143.619 147.618 143.928C147.213 144.227 146.914 144.627 146.722 145.128C146.541 145.629 146.45 146.184 146.45 146.792C146.45 147.4 146.541 147.96 146.722 148.472C146.914 148.973 147.213 149.373 147.618 149.672C148.034 149.96 148.573 150.104 149.234 150.104ZM162.027 151.096C161.44 151.096 160.928 151.011 160.491 150.84C160.064 150.659 159.707 150.408 159.419 150.088C159.131 149.768 158.896 149.395 158.715 148.968C158.544 148.541 158.416 148.088 158.331 147.608C158.256 147.117 158.219 146.611 158.219 146.088C158.219 145.331 158.24 144.616 158.283 143.944C158.336 143.272 158.464 142.669 158.667 142.136C158.869 141.592 159.195 141.139 159.643 140.776C160.091 140.413 160.709 140.163 161.499 140.024C161.957 139.939 162.411 139.869 162.859 139.816C163.307 139.763 163.749 139.709 164.187 139.656C164.315 139.635 164.448 139.613 164.587 139.592C164.725 139.571 164.869 139.549 165.019 139.528C165.179 139.496 165.328 139.469 165.467 139.448V140.488C165.36 140.531 165.221 140.568 165.051 140.6C164.88 140.621 164.699 140.648 164.507 140.68C164.315 140.701 164.123 140.723 163.931 140.744C163.749 140.755 163.579 140.771 163.419 140.792C163.269 140.803 163.147 140.813 163.051 140.824C162.667 140.867 162.272 140.92 161.867 140.984C161.472 141.037 161.099 141.144 160.747 141.304C160.405 141.453 160.117 141.715 159.883 142.088C159.723 142.344 159.6 142.637 159.515 142.968C159.429 143.299 159.371 143.629 159.339 143.96C159.307 144.28 159.285 144.568 159.275 144.824C159.499 144.419 159.781 144.104 160.123 143.88C160.464 143.645 160.827 143.48 161.211 143.384C161.595 143.277 161.957 143.224 162.299 143.224C163.056 143.224 163.701 143.384 164.235 143.704C164.768 144.024 165.168 144.472 165.435 145.048C165.712 145.624 165.851 146.291 165.851 147.048C165.851 147.816 165.701 148.509 165.403 149.128C165.104 149.736 164.667 150.216 164.091 150.568C163.525 150.92 162.837 151.096 162.027 151.096ZM162.059 150.104C162.635 150.104 163.12 149.971 163.515 149.704C163.909 149.427 164.208 149.059 164.411 148.6C164.624 148.141 164.731 147.64 164.731 147.096C164.731 146.552 164.629 146.067 164.427 145.64C164.224 145.203 163.925 144.861 163.531 144.616C163.147 144.36 162.672 144.232 162.107 144.232C161.563 144.232 161.088 144.365 160.683 144.632C160.288 144.899 159.979 145.251 159.755 145.688C159.531 146.125 159.419 146.605 159.419 147.128C159.419 147.661 159.515 148.157 159.707 148.616C159.909 149.064 160.203 149.427 160.587 149.704C160.981 149.971 161.472 150.104 162.059 150.104ZM170.95 151.096C170.064 151.096 169.328 150.915 168.742 150.552C168.155 150.179 167.718 149.667 167.43 149.016C167.142 148.365 166.998 147.624 166.998 146.792C166.998 145.96 167.147 145.224 167.446 144.584C167.744 143.933 168.187 143.421 168.774 143.048C169.36 142.664 170.08 142.472 170.934 142.472C171.552 142.472 172.091 142.589 172.55 142.824C173.019 143.048 173.408 143.357 173.718 143.752C174.027 144.147 174.251 144.595 174.39 145.096C174.539 145.597 174.614 146.115 174.614 146.648C174.614 146.744 174.614 146.835 174.614 146.92C174.614 147.005 174.608 147.091 174.598 147.176H168.134C168.176 147.741 168.304 148.248 168.518 148.696C168.731 149.133 169.04 149.48 169.446 149.736C169.862 149.981 170.379 150.104 170.998 150.104C171.286 150.104 171.579 150.072 171.878 150.008C172.176 149.933 172.448 149.811 172.694 149.64C172.939 149.459 173.12 149.224 173.238 148.936H174.422C174.272 149.437 174.022 149.848 173.67 150.168C173.318 150.488 172.902 150.723 172.422 150.872C171.942 151.021 171.451 151.096 170.95 151.096ZM168.166 146.2H173.478C173.467 145.677 173.355 145.213 173.142 144.808C172.928 144.392 172.635 144.067 172.262 143.832C171.888 143.587 171.43 143.464 170.886 143.464C170.32 143.464 169.84 143.592 169.446 143.848C169.051 144.104 168.747 144.44 168.534 144.856C168.331 145.272 168.208 145.72 168.166 146.2ZM179.137 151.096C178.753 151.096 178.363 151.064 177.969 151C177.585 150.936 177.222 150.824 176.881 150.664C176.55 150.504 176.273 150.285 176.049 150.008C175.825 149.72 175.691 149.357 175.649 148.92H176.769C176.854 149.229 177.03 149.475 177.297 149.656C177.574 149.827 177.878 149.944 178.209 150.008C178.55 150.072 178.854 150.104 179.121 150.104C179.451 150.104 179.793 150.067 180.145 149.992C180.497 149.917 180.79 149.773 181.025 149.56C181.27 149.347 181.393 149.032 181.393 148.616C181.393 148.211 181.291 147.912 181.089 147.72C180.886 147.528 180.625 147.4 180.305 147.336C179.985 147.272 179.649 147.24 179.297 147.24H177.825V146.264H178.929C179.153 146.264 179.387 146.243 179.633 146.2C179.889 146.157 180.123 146.083 180.337 145.976C180.55 145.869 180.721 145.72 180.849 145.528C180.987 145.336 181.057 145.091 181.057 144.792C181.057 144.461 180.961 144.2 180.769 144.008C180.577 143.805 180.331 143.667 180.033 143.592C179.734 143.507 179.435 143.464 179.137 143.464C178.87 143.464 178.587 143.491 178.289 143.544C177.99 143.597 177.729 143.704 177.505 143.864C177.281 144.024 177.137 144.264 177.073 144.584H175.937C175.979 144.04 176.166 143.619 176.497 143.32C176.838 143.011 177.243 142.792 177.713 142.664C178.193 142.536 178.662 142.472 179.121 142.472C179.483 142.472 179.841 142.509 180.193 142.584C180.555 142.648 180.881 142.765 181.169 142.936C181.467 143.107 181.702 143.336 181.873 143.624C182.054 143.901 182.15 144.248 182.161 144.664C182.171 145.069 182.075 145.432 181.873 145.752C181.681 146.072 181.361 146.328 180.913 146.52C181.499 146.659 181.915 146.92 182.161 147.304C182.406 147.688 182.529 148.125 182.529 148.616C182.529 149.075 182.427 149.459 182.225 149.768C182.033 150.077 181.771 150.333 181.441 150.536C181.121 150.739 180.758 150.883 180.353 150.968C179.958 151.053 179.553 151.096 179.137 151.096ZM187.108 153.672V150.024C187.385 150.013 187.614 149.933 187.796 149.784C187.977 149.624 188.121 149.427 188.228 149.192C188.345 148.947 188.436 148.68 188.5 148.392C188.574 148.093 188.633 147.8 188.676 147.512C188.75 147.011 188.798 146.509 188.82 146.008C188.841 145.496 188.852 145.091 188.852 144.792C188.862 144.419 188.868 144.051 188.868 143.688C188.868 143.315 188.868 142.941 188.868 142.568H194.772V150.024H195.908V153.672H194.804V151H188.212V153.672H187.108ZM188.98 150.024H193.636V143.544H189.956C189.945 143.992 189.934 144.477 189.924 145C189.913 145.523 189.897 146.019 189.876 146.488C189.865 146.851 189.838 147.245 189.796 147.672C189.753 148.099 189.673 148.515 189.556 148.92C189.438 149.325 189.246 149.693 188.98 150.024ZM200.647 151.096C199.761 151.096 199.02 150.915 198.423 150.552C197.825 150.179 197.377 149.667 197.079 149.016C196.791 148.365 196.647 147.624 196.647 146.792C196.647 145.949 196.791 145.208 197.079 144.568C197.377 143.917 197.825 143.405 198.423 143.032C199.02 142.659 199.767 142.472 200.663 142.472C201.548 142.472 202.284 142.659 202.871 143.032C203.468 143.405 203.911 143.917 204.199 144.568C204.497 145.208 204.647 145.949 204.647 146.792C204.647 147.624 204.497 148.365 204.199 149.016C203.9 149.667 203.452 150.179 202.855 150.552C202.268 150.915 201.532 151.096 200.647 151.096ZM200.647 150.104C201.308 150.104 201.852 149.96 202.279 149.672C202.705 149.373 203.02 148.973 203.223 148.472C203.425 147.971 203.527 147.411 203.527 146.792C203.527 146.173 203.425 145.613 203.223 145.112C203.02 144.611 202.705 144.211 202.279 143.912C201.852 143.613 201.308 143.464 200.647 143.464C199.985 143.464 199.441 143.613 199.015 143.912C198.588 144.211 198.273 144.611 198.071 145.112C197.879 145.613 197.783 146.173 197.783 146.792C197.783 147.411 197.879 147.971 198.071 148.472C198.273 148.973 198.588 149.373 199.015 149.672C199.441 149.96 199.985 150.104 200.647 150.104ZM206.121 151V142.568H213.081V151H211.945V143.56H207.257V151H206.121ZM218.565 151.096C217.68 151.096 216.939 150.915 216.341 150.552C215.744 150.179 215.296 149.667 214.997 149.016C214.709 148.365 214.565 147.624 214.565 146.792C214.565 145.949 214.709 145.208 214.997 144.568C215.296 143.917 215.744 143.405 216.341 143.032C216.939 142.659 217.685 142.472 218.581 142.472C219.467 142.472 220.203 142.659 220.789 143.032C221.387 143.405 221.829 143.917 222.117 144.568C222.416 145.208 222.565 145.949 222.565 146.792C222.565 147.624 222.416 148.365 222.117 149.016C221.819 149.667 221.371 150.179 220.773 150.552C220.187 150.915 219.451 151.096 218.565 151.096ZM218.565 150.104C219.227 150.104 219.771 149.96 220.197 149.672C220.624 149.373 220.939 148.973 221.141 148.472C221.344 147.971 221.445 147.411 221.445 146.792C221.445 146.173 221.344 145.613 221.141 145.112C220.939 144.611 220.624 144.211 220.197 143.912C219.771 143.613 219.227 143.464 218.565 143.464C217.904 143.464 217.36 143.613 216.933 143.912C216.507 144.211 216.192 144.611 215.989 145.112C215.797 145.613 215.701 146.173 215.701 146.792C215.701 147.411 215.797 147.971 215.989 148.472C216.192 148.973 216.507 149.373 216.933 149.672C217.36 149.96 217.904 150.104 218.565 150.104ZM223.194 151.032V150.024C223.407 150.013 223.594 149.965 223.754 149.88C223.924 149.795 224.068 149.677 224.186 149.528C224.378 149.293 224.522 148.968 224.618 148.552C224.714 148.125 224.778 147.667 224.81 147.176C224.852 146.675 224.879 146.168 224.89 145.656C224.911 145.133 224.927 144.616 224.938 144.104C224.959 143.581 224.975 143.069 224.986 142.568H230.762V151H229.626V143.544H226.09C226.079 143.949 226.063 144.355 226.042 144.76C226.031 145.155 226.015 145.549 225.994 145.944C225.983 146.339 225.967 146.739 225.946 147.144C225.924 147.613 225.871 148.12 225.786 148.664C225.7 149.197 225.524 149.672 225.258 150.088C225.044 150.429 224.783 150.669 224.474 150.808C224.164 150.947 223.738 151.021 223.194 151.032ZM232.569 151V142.568H233.705V146.376H238.345V142.568H239.465V151H238.345V147.352H233.705V151H232.569ZM241.271 151V142.568H242.407V149.496C242.481 149.357 242.572 149.213 242.679 149.064C242.796 148.904 242.892 148.771 242.967 148.664L247.271 142.568H248.519V151H247.383V144.072C247.297 144.221 247.207 144.365 247.111 144.504C247.015 144.643 246.919 144.776 246.823 144.904L242.519 151H241.271ZM252.332 151V143.56H249.324V142.568H256.444V143.56H253.452V151H252.332ZM260.899 151.096C260.014 151.096 259.278 150.915 258.691 150.552C258.104 150.179 257.667 149.667 257.379 149.016C257.091 148.365 256.947 147.624 256.947 146.792C256.947 145.96 257.096 145.224 257.395 144.584C257.694 143.933 258.136 143.421 258.723 143.048C259.31 142.664 260.03 142.472 260.883 142.472C261.502 142.472 262.04 142.589 262.499 142.824C262.968 143.048 263.358 143.357 263.667 143.752C263.976 144.147 264.2 144.595 264.339 145.096C264.488 145.597 264.563 146.115 264.563 146.648C264.563 146.744 264.563 146.835 264.563 146.92C264.563 147.005 264.558 147.091 264.547 147.176H258.083C258.126 147.741 258.254 148.248 258.467 148.696C258.68 149.133 258.99 149.48 259.395 149.736C259.811 149.981 260.328 150.104 260.947 150.104C261.235 150.104 261.528 150.072 261.827 150.008C262.126 149.933 262.398 149.811 262.643 149.64C262.888 149.459 263.07 149.224 263.187 148.936H264.371C264.222 149.437 263.971 149.848 263.619 150.168C263.267 150.488 262.851 150.723 262.371 150.872C261.891 151.021 261.4 151.096 260.899 151.096ZM258.115 146.2H263.427C263.416 145.677 263.304 145.213 263.091 144.808C262.878 144.392 262.584 144.067 262.211 143.832C261.838 143.587 261.379 143.464 260.835 143.464C260.27 143.464 259.79 143.592 259.395 143.848C259 144.104 258.696 144.44 258.483 144.856C258.28 145.272 258.158 145.72 258.115 146.2ZM265.216 151.032V150.024C265.429 150.013 265.616 149.965 265.776 149.88C265.947 149.795 266.091 149.677 266.208 149.528C266.4 149.293 266.544 148.968 266.64 148.552C266.736 148.125 266.8 147.667 266.832 147.176C266.875 146.675 266.901 146.168 266.912 145.656C266.933 145.133 266.949 144.616 266.96 144.104C266.981 143.581 266.997 143.069 267.008 142.568H272.784V151H271.648V143.544H268.112C268.101 143.949 268.085 144.355 268.064 144.76C268.053 145.155 268.037 145.549 268.016 145.944C268.005 146.339 267.989 146.739 267.968 147.144C267.947 147.613 267.893 148.12 267.808 148.664C267.723 149.197 267.547 149.672 267.28 150.088C267.067 150.429 266.805 150.669 266.496 150.808C266.187 150.947 265.76 151.021 265.216 151.032ZM274.592 151V142.568H275.744V145.88H277.712C278.181 145.88 278.618 145.917 279.024 145.992C279.429 146.056 279.781 146.179 280.08 146.36C280.389 146.541 280.629 146.792 280.8 147.112C280.97 147.432 281.056 147.843 281.056 148.344C281.056 148.813 280.976 149.219 280.816 149.56C280.656 149.891 280.426 150.163 280.128 150.376C279.84 150.589 279.498 150.749 279.104 150.856C278.709 150.952 278.277 151 277.808 151H274.592ZM275.744 150.024H276.912C277.285 150.024 277.648 150.013 278 149.992C278.352 149.96 278.672 149.896 278.96 149.8C279.258 149.704 279.493 149.544 279.664 149.32C279.834 149.096 279.92 148.787 279.92 148.392C279.92 148.029 279.845 147.747 279.696 147.544C279.546 147.341 279.354 147.192 279.12 147.096C278.885 146.989 278.629 146.925 278.352 146.904C278.074 146.872 277.797 146.856 277.52 146.856H275.744V150.024ZM282.481 151V142.568H283.617V146.376H288.257V142.568H289.377V151H288.257V147.352H283.617V151H282.481ZM291.182 151V142.568H292.334V145.88H293.95C294.43 145.88 294.873 145.917 295.278 145.992C295.683 146.067 296.035 146.195 296.334 146.376C296.643 146.557 296.883 146.808 297.054 147.128C297.225 147.437 297.31 147.843 297.31 148.344C297.31 148.824 297.225 149.235 297.054 149.576C296.894 149.907 296.665 150.179 296.366 150.392C296.078 150.605 295.737 150.76 295.342 150.856C294.947 150.952 294.521 151 294.062 151H291.182ZM292.334 150.024H293.134C293.507 150.024 293.87 150.013 294.222 149.992C294.585 149.971 294.91 149.912 295.198 149.816C295.486 149.709 295.715 149.544 295.886 149.32C296.067 149.096 296.158 148.787 296.158 148.392C296.158 148.029 296.083 147.747 295.934 147.544C295.795 147.341 295.609 147.192 295.374 147.096C295.139 146.989 294.878 146.925 294.59 146.904C294.313 146.872 294.041 146.856 293.774 146.856H292.334V150.024ZM298.654 151V142.568H299.79V151H298.654ZM300.738 151L303.778 146.696L300.914 142.568H302.274L304.546 145.928L306.77 142.568H308.098L305.25 146.712L308.306 151H306.946L304.482 147.576L302.034 151H300.738ZM137.316 169.096C136.431 169.096 135.69 168.915 135.092 168.552C134.495 168.179 134.047 167.667 133.748 167.016C133.46 166.365 133.316 165.624 133.316 164.792C133.316 163.949 133.46 163.208 133.748 162.568C134.047 161.917 134.495 161.405 135.092 161.032C135.69 160.659 136.436 160.472 137.332 160.472C138.218 160.472 138.954 160.659 139.54 161.032C140.138 161.405 140.58 161.917 140.868 162.568C141.167 163.208 141.316 163.949 141.316 164.792C141.316 165.624 141.167 166.365 140.868 167.016C140.57 167.667 140.122 168.179 139.524 168.552C138.938 168.915 138.202 169.096 137.316 169.096ZM137.316 168.104C137.978 168.104 138.522 167.96 138.948 167.672C139.375 167.373 139.69 166.973 139.892 166.472C140.095 165.971 140.196 165.411 140.196 164.792C140.196 164.173 140.095 163.613 139.892 163.112C139.69 162.611 139.375 162.211 138.948 161.912C138.522 161.613 137.978 161.464 137.316 161.464C136.655 161.464 136.111 161.613 135.684 161.912C135.258 162.211 134.943 162.611 134.74 163.112C134.548 163.613 134.452 164.173 134.452 164.792C134.452 165.411 134.548 165.971 134.74 166.472C134.943 166.973 135.258 167.373 135.684 167.672C136.111 167.96 136.655 168.104 137.316 168.104ZM146.467 169.096C145.88 169.096 145.368 169.011 144.931 168.84C144.504 168.659 144.147 168.408 143.859 168.088C143.571 167.768 143.336 167.395 143.155 166.968C142.984 166.541 142.856 166.088 142.771 165.608C142.696 165.117 142.659 164.611 142.659 164.088C142.659 163.331 142.68 162.616 142.723 161.944C142.776 161.272 142.904 160.669 143.107 160.136C143.31 159.592 143.635 159.139 144.083 158.776C144.531 158.413 145.15 158.163 145.939 158.024C146.398 157.939 146.851 157.869 147.299 157.816C147.747 157.763 148.19 157.709 148.627 157.656C148.755 157.635 148.888 157.613 149.027 157.592C149.166 157.571 149.31 157.549 149.459 157.528C149.619 157.496 149.768 157.469 149.907 157.448V158.488C149.8 158.531 149.662 158.568 149.491 158.6C149.32 158.621 149.139 158.648 148.947 158.68C148.755 158.701 148.563 158.723 148.371 158.744C148.19 158.755 148.019 158.771 147.859 158.792C147.71 158.803 147.587 158.813 147.491 158.824C147.107 158.867 146.712 158.92 146.307 158.984C145.912 159.037 145.539 159.144 145.187 159.304C144.846 159.453 144.558 159.715 144.323 160.088C144.163 160.344 144.04 160.637 143.955 160.968C143.87 161.299 143.811 161.629 143.779 161.96C143.747 162.28 143.726 162.568 143.715 162.824C143.939 162.419 144.222 162.104 144.563 161.88C144.904 161.645 145.267 161.48 145.651 161.384C146.035 161.277 146.398 161.224 146.739 161.224C147.496 161.224 148.142 161.384 148.675 161.704C149.208 162.024 149.608 162.472 149.875 163.048C150.152 163.624 150.291 164.291 150.291 165.048C150.291 165.816 150.142 166.509 149.843 167.128C149.544 167.736 149.107 168.216 148.531 168.568C147.966 168.92 147.278 169.096 146.467 169.096ZM146.499 168.104C147.075 168.104 147.56 167.971 147.955 167.704C148.35 167.427 148.648 167.059 148.851 166.6C149.064 166.141 149.171 165.64 149.171 165.096C149.171 164.552 149.07 164.067 148.867 163.64C148.664 163.203 148.366 162.861 147.971 162.616C147.587 162.36 147.112 162.232 146.547 162.232C146.003 162.232 145.528 162.365 145.123 162.632C144.728 162.899 144.419 163.251 144.195 163.688C143.971 164.125 143.859 164.605 143.859 165.128C143.859 165.661 143.955 166.157 144.147 166.616C144.35 167.064 144.643 167.427 145.027 167.704C145.422 167.971 145.912 168.104 146.499 168.104ZM153.022 169V161.544H150.91V160.568H154.174V163.88H156.158C156.638 163.88 157.08 163.917 157.486 163.992C157.891 164.067 158.243 164.195 158.542 164.376C158.84 164.547 159.075 164.792 159.246 165.112C159.416 165.421 159.502 165.816 159.502 166.296C159.502 166.787 159.416 167.208 159.246 167.56C159.086 167.901 158.856 168.179 158.558 168.392C158.27 168.605 157.928 168.76 157.534 168.856C157.139 168.952 156.712 169 156.254 169H153.022ZM154.174 168.024H155.358C155.742 168.024 156.11 168.013 156.462 167.992C156.824 167.971 157.144 167.912 157.422 167.816C157.71 167.709 157.934 167.539 158.094 167.304C158.264 167.069 158.35 166.749 158.35 166.344C158.35 166.003 158.275 165.736 158.126 165.544C157.987 165.341 157.8 165.192 157.566 165.096C157.331 164.989 157.07 164.925 156.782 164.904C156.504 164.872 156.227 164.856 155.95 164.856H154.174V168.024ZM160.353 169L162.609 165.624C161.969 165.475 161.452 165.208 161.057 164.824C160.673 164.429 160.481 163.891 160.481 163.208C160.481 162.696 160.561 162.269 160.721 161.928C160.881 161.587 161.105 161.32 161.393 161.128C161.681 160.925 162.023 160.781 162.417 160.696C162.823 160.611 163.271 160.568 163.761 160.568H167.137V169H166.001V165.784H163.809L161.681 169H160.353ZM164.593 164.808H166.001V161.56H163.985C163.655 161.56 163.345 161.576 163.057 161.608C162.78 161.64 162.535 161.709 162.321 161.816C162.108 161.923 161.937 162.083 161.809 162.296C161.692 162.499 161.633 162.776 161.633 163.128C161.633 163.523 161.719 163.832 161.889 164.056C162.071 164.28 162.305 164.445 162.593 164.552C162.881 164.659 163.201 164.728 163.553 164.76C163.905 164.792 164.252 164.808 164.593 164.808ZM172.558 169.096C171.672 169.096 170.936 168.915 170.35 168.552C169.774 168.179 169.342 167.667 169.054 167.016C168.766 166.365 168.622 165.629 168.622 164.808C168.622 163.997 168.771 163.267 169.07 162.616C169.368 161.955 169.816 161.432 170.414 161.048C171.011 160.664 171.768 160.472 172.686 160.472C173.23 160.472 173.72 160.563 174.158 160.744C174.595 160.915 174.963 161.176 175.262 161.528C175.56 161.869 175.774 162.296 175.902 162.808H174.734C174.563 162.328 174.286 161.987 173.902 161.784C173.528 161.571 173.096 161.464 172.606 161.464C171.934 161.464 171.39 161.624 170.974 161.944C170.558 162.253 170.248 162.664 170.046 163.176C169.854 163.677 169.758 164.221 169.758 164.808C169.758 165.405 169.854 165.955 170.046 166.456C170.248 166.957 170.558 167.357 170.974 167.656C171.4 167.955 171.944 168.104 172.606 168.104C173.086 168.104 173.534 168.003 173.95 167.8C174.366 167.597 174.654 167.251 174.814 166.76H175.998C175.87 167.293 175.63 167.736 175.278 168.088C174.936 168.429 174.526 168.685 174.046 168.856C173.576 169.016 173.08 169.096 172.558 169.096ZM177.362 169V160.568H178.498V164.376H183.138V160.568H184.258V169H183.138V165.352H178.498V169H177.362ZM189.695 169.096C188.81 169.096 188.074 168.915 187.487 168.552C186.901 168.179 186.463 167.667 186.175 167.016C185.887 166.365 185.743 165.624 185.743 164.792C185.743 163.96 185.893 163.224 186.191 162.584C186.49 161.933 186.933 161.421 187.519 161.048C188.106 160.664 188.826 160.472 189.679 160.472C190.298 160.472 190.837 160.589 191.295 160.824C191.765 161.048 192.154 161.357 192.463 161.752C192.773 162.147 192.997 162.595 193.135 163.096C193.285 163.597 193.359 164.115 193.359 164.648C193.359 164.744 193.359 164.835 193.359 164.92C193.359 165.005 193.354 165.091 193.343 165.176H186.879C186.922 165.741 187.05 166.248 187.263 166.696C187.477 167.133 187.786 167.48 188.191 167.736C188.607 167.981 189.125 168.104 189.743 168.104C190.031 168.104 190.325 168.072 190.623 168.008C190.922 167.933 191.194 167.811 191.439 167.64C191.685 167.459 191.866 167.224 191.983 166.936H193.167C193.018 167.437 192.767 167.848 192.415 168.168C192.063 168.488 191.647 168.723 191.167 168.872C190.687 169.021 190.197 169.096 189.695 169.096ZM186.911 164.2H192.223C192.213 163.677 192.101 163.213 191.887 162.808C191.674 162.392 191.381 162.067 191.007 161.832C190.634 161.587 190.175 161.464 189.631 161.464C189.066 161.464 188.586 161.592 188.191 161.848C187.797 162.104 187.493 162.44 187.279 162.856C187.077 163.272 186.954 163.72 186.911 164.2ZM194.858 169V160.568H195.994V164.376H200.634V160.568H201.754V169H200.634V165.352H195.994V169H194.858ZM203.56 169V160.568H204.696V167.496C204.77 167.357 204.861 167.213 204.968 167.064C205.085 166.904 205.181 166.771 205.256 166.664L209.56 160.568H210.808V169H209.672V162.072C209.586 162.221 209.496 162.365 209.4 162.504C209.304 162.643 209.208 162.776 209.112 162.904L204.808 169H203.56ZM212.605 169V160.568H213.741V167.496C213.815 167.357 213.906 167.213 214.013 167.064C214.13 166.904 214.226 166.771 214.301 166.664L218.605 160.568H219.853V169H218.717V162.072C218.631 162.221 218.541 162.365 218.445 162.504C218.349 162.643 218.253 162.776 218.157 162.904L213.853 169H212.605ZM216.317 159.224C215.559 159.224 214.946 159.069 214.477 158.76C214.018 158.44 213.767 157.949 213.725 157.288H214.765C214.807 157.683 214.967 157.96 215.245 158.12C215.533 158.269 215.895 158.344 216.333 158.344C216.77 158.344 217.127 158.269 217.405 158.12C217.693 157.96 217.858 157.683 217.901 157.288H218.941C218.919 157.725 218.791 158.093 218.557 158.392C218.333 158.68 218.029 158.893 217.645 159.032C217.261 159.16 216.818 159.224 216.317 159.224ZM222.498 169.128C222.253 169.128 222.05 169.048 221.89 168.888C221.73 168.717 221.65 168.509 221.65 168.264C221.65 168.019 221.73 167.816 221.89 167.656C222.05 167.496 222.253 167.416 222.498 167.416C222.754 167.416 222.962 167.496 223.122 167.656C223.282 167.816 223.362 168.019 223.362 168.264C223.362 168.509 223.282 168.717 223.122 168.888C222.962 169.048 222.754 169.128 222.498 169.128Z" fill="white"/>
</svg>
