<svg width="353" height="230" viewBox="0 0 353 230" fill="none" xmlns="http://www.w3.org/2000/svg">
<rect width="353" height="230" fill="#6A49FF"/>
<path d="M184.36 129.068L175.273 105.953H179.856L186.113 121.256L192.769 105.953H197.671L204.725 121.296L210.584 105.953H215.167L206.479 129.068H202.972L195.24 111.931L187.867 129.068H184.36ZM218.101 129.068V105.953H222.405V129.068H218.101ZM218.101 102.684V98.3802H222.405V102.684H218.101ZM231 129.068C229.565 129.068 228.343 128.563 227.333 127.553C226.324 126.544 225.819 125.322 225.819 123.887V111.134C225.819 109.699 226.324 108.477 227.333 107.467C228.343 106.457 229.565 105.953 231 105.953H245.029V98.3802H249.333V129.068H231ZM231.638 124.764H243.594C244.178 124.764 244.564 124.671 244.75 124.485C244.936 124.272 245.029 123.874 245.029 123.289V111.731C245.029 111.147 244.936 110.762 244.75 110.576C244.564 110.363 244.178 110.257 243.594 110.257H231.638C231.053 110.257 230.655 110.363 230.442 110.576C230.256 110.762 230.163 111.147 230.163 111.731V123.289C230.163 123.874 230.256 124.272 230.442 124.485C230.655 124.671 231.053 124.764 231.638 124.764ZM253.557 129.068V105.953H257.861V129.068H253.557ZM253.557 102.684V98.3802H257.861V102.684H253.557ZM267.764 129.068C266.329 129.068 265.107 128.563 264.097 127.553C263.088 126.544 262.583 125.322 262.583 123.887V123.289H266.887V123.528C266.887 123.953 266.98 124.272 267.166 124.485C267.379 124.671 267.697 124.764 268.122 124.764H280.557C280.982 124.764 281.288 124.671 281.474 124.485C281.66 124.272 281.753 123.953 281.753 123.528V120.898C281.753 120.473 281.66 120.167 281.474 119.981C281.288 119.769 280.982 119.662 280.557 119.662H267.764C266.329 119.662 265.107 119.157 264.097 118.148C263.088 117.138 262.583 115.916 262.583 114.481V111.134C262.583 109.699 263.088 108.477 264.097 107.467C265.107 106.457 266.329 105.953 267.764 105.953H280.916C282.35 105.953 283.573 106.457 284.582 107.467C285.592 108.477 286.097 109.699 286.097 111.134V111.731H281.753V111.492C281.753 111.067 281.66 110.762 281.474 110.576C281.288 110.363 280.982 110.257 280.557 110.257H268.122C267.697 110.257 267.379 110.363 267.166 110.576C266.98 110.762 266.887 111.067 266.887 111.492V114.123C266.887 114.548 266.98 114.867 267.166 115.079C267.379 115.265 267.697 115.358 268.122 115.358H280.916C282.35 115.358 283.573 115.863 284.582 116.873C285.592 117.882 286.097 119.104 286.097 120.539V123.887C286.097 125.322 285.592 126.544 284.582 127.553C283.573 128.563 282.35 129.068 280.916 129.068H267.764ZM290.144 129.068V98.3802H294.448V105.953H308.477C309.885 105.953 311.094 106.457 312.103 107.467C313.14 108.477 313.658 109.699 313.658 111.134V129.068H309.353V111.731C309.353 111.147 309.247 110.762 309.035 110.576C308.849 110.363 308.463 110.257 307.879 110.257H295.923C295.338 110.257 294.94 110.363 294.727 110.576C294.541 110.762 294.448 111.147 294.448 111.731V129.068H290.144Z" fill="white"/>
<rect x="38" y="54" width="121.766" height="121.171" rx="15.1835" fill="white" fill-opacity="0.7"/>
<g filter="url(#filter1_f_1064_135)">
<path d="M135.405 123.436L100.738 137.064V131.804L126.559 121.284L100.738 110.107V103.652L126.499 91.7571L100.738 81.9546V76.6349L135.405 89.7249V93.9686L106.775 106.879L135.405 119.132V123.436Z" fill="#BAAAFF"/>
<path d="M135.405 138.457L100.738 152.084V146.825L126.559 136.305L100.738 125.127V118.672L126.499 106.778L100.738 96.9751V91.6554L135.405 104.745V108.989L106.775 121.9L135.405 134.153V138.457Z" fill="#BAAAFF"/>
<path d="M66.0712 123.436L100.739 137.064V131.804L74.9174 121.284L100.739 110.107V103.652L74.9772 91.7571L100.739 81.9546V76.6349L66.0712 89.7249V93.9686L94.7018 106.879L66.0712 119.132V123.436Z" fill="#BAAAFF"/>
<path d="M66.0712 138.457L100.739 152.084V146.825L74.9174 136.305L100.739 125.127V118.672L74.9772 106.778L100.739 96.9751V91.6554L66.0712 104.745V108.989L94.7018 121.9L66.0712 134.153V138.457Z" fill="#BAAAFF"/>
</g>
<path d="M135.405 123.436L100.738 137.064V131.804L126.559 121.284L100.738 110.107V103.652L126.499 91.7571L100.738 81.9546V76.6349L135.405 89.7249V93.9686L106.775 106.879L135.405 119.132V123.436Z" fill="#6A49FF"/>
<path d="M135.405 138.457L100.738 152.084V146.825L126.559 136.305L100.738 125.127V118.672L126.499 106.778L100.738 96.9751V91.6554L135.405 104.745V108.989L106.775 121.9L135.405 134.153V138.457Z" fill="#6A49FF"/>
<path d="M66.0712 123.436L100.739 137.064V131.804L74.9174 121.284L100.739 110.107V103.652L74.9772 91.7571L100.739 81.9546V76.6349L66.0712 89.7249V93.9686L94.7018 106.879L66.0712 119.132V123.436Z" fill="#6A49FF"/>
<path d="M66.0712 138.457L100.739 152.084V146.825L74.9174 136.305L100.739 125.127V118.672L74.9772 106.778L100.739 96.9751V91.6554L66.0712 104.745V108.989L94.7018 121.9L66.0712 134.153V138.457Z" fill="#6A49FF"/>
<defs>
<filter id="filter1_f_1064_135" x="58.2245" y="68.7882" width="85.0276" height="91.1431" filterUnits="userSpaceOnUse" color-interpolation-filters="sRGB">
<feFlood flood-opacity="0" result="BackgroundImageFix"/>
<feBlend mode="normal" in="SourceGraphic" in2="BackgroundImageFix" result="shape"/>
<feGaussianBlur stdDeviation="3.92341" result="effect1_foregroundBlur_1064_135"/>
</filter>
</defs>
</svg>
