<svg width="844" height="541" viewBox="0 0 844 541" fill="none" xmlns="http://www.w3.org/2000/svg">
<path d="M4.12831 192.506C0.261455 190.828 -0.937787 186.175 0.737295 182.31C5.24573 161.304 10.6434 139.307 16.0411 117.31C17.5095 109.681 22.8447 103.73 29.2758 100.549C40.3597 96.1728 51.3402 89.9146 63.4166 86.4278C93.008 75.3843 123.695 67.1123 155.582 63.4935C183.705 60.0789 211.042 59.538 238.276 57.1155C244.81 55.817 251.448 56.4002 258.975 55.9914C257.673 49.4566 256.37 42.9218 255.171 38.2686C248.182 14.1131 245.846 -11.2387 247.377 -34.9132C248.018 -57.5958 248.66 -80.2783 250.294 -102.071C252.611 -128.619 259.477 -158.245 278.15 -179.076C291.385 -195.837 308.01 -202.402 329.702 -202.636C366.655 -199.924 400.774 -180.073 429.352 -158.034C448.996 -144.002 466.965 -126.105 483.053 -108.105C490.001 -101.877 492.296 -94.4524 491.82 -85.9337C491.924 -84.052 491.924 -84.052 492.027 -82.1703L491.448 -75.5333C491.551 -73.6516 492.544 -72.7618 491.654 -71.7699L490.33 -44.332C490.64 -38.6869 490.847 -34.9235 490.165 -30.1682C488.22 -14.0205 484.56 -11.9344 465.639 -12.7942L465.226 -20.321C464.233 -21.2108 464.233 -21.2108 464.13 -23.0925C463.82 -28.7375 461.732 -32.3987 458.651 -36.9497C431.748 -62.8548 403.957 -87.7679 370.044 -103.856L340.205 -114.503C316.321 -119.811 296.925 -112.153 282.904 -92.5181C272.44 -76.8514 266.733 -60.4993 272.522 -40.997C281.909 -7.53518 296.053 26.612 313.753 56.7914C504.844 65.2874 687.601 111.039 872.24 156.687L879.622 136.47C885.268 136.163 890.913 135.857 894.78 137.534C941.865 152.907 988.95 168.279 1035.15 184.644C1039.01 186.321 1041.99 188.99 1045.96 192.549C1041.76 219.199 1034.69 245.062 1028.51 269.933C1020.3 275.097 1011.78 274.616 1004.15 273.143C985.122 270.402 966.097 267.66 947.962 263.927C912.581 255.468 876.208 246.119 839.834 236.771C688.592 197.801 537.452 160.713 382.9 147.402C378.454 152.362 383.314 154.929 384.41 157.7C396.527 172.14 408.644 186.581 421.651 200.029C523.718 305.838 642.37 387.154 777.711 445.861L778.703 446.75L780.585 446.648C781.578 447.538 781.578 447.538 781.578 447.538L789.311 450.893L790.304 451.782L792.186 451.68C793.178 452.57 793.178 452.57 793.178 452.57C798.038 455.137 801.119 459.688 802.318 464.341C801.945 474.742 799.194 527.736 796.051 539.23C789.619 542.41 782.878 539.946 776.137 537.481C766.418 532.347 757.589 526.22 746.98 522.078C637.612 472.342 537.715 406.049 450.164 323.987C395.47 273.169 347.104 217.289 306.844 154.363C305.748 151.592 303.66 147.93 300.682 145.261L296.712 141.702C239.949 139.123 56.219 144.382 13.5371 191.995C10.7662 193.089 7.00261 193.293 4.12831 192.506ZM500.607 -11.8621C500.979 -22.2626 501.145 -36.4264 501.208 -52.4719L501.89 -57.2273C501.89 -57.2273 500.898 -58.117 501.787 -59.1089L502.738 -76.1463L502.635 -78.0281L503.317 -82.7834C503.317 -82.7834 502.325 -83.6732 503.214 -84.6651C504.579 -94.1758 511.01 -97.356 518.847 -92.1196C519.84 -91.2299 521.825 -89.4504 523.81 -87.6708C537.809 -73.3326 551.808 -58.9944 565.807 -44.6561C567.896 -40.9949 569.095 -36.3417 570.294 -31.6886C571.7 -23.272 568.06 30.7139 565.805 41.2165C560.367 45.2865 555.611 44.6011 551.537 39.1604C543.493 30.1607 535.45 21.1609 528.398 13.051C520.458 5.93294 512.518 -1.18509 500.607 -11.8621Z" fill="#3A9DF9"/>
</svg>
