<svg width="1200" height="484" viewBox="0 0 1200 484" fill="none" xmlns="http://www.w3.org/2000/svg">
<path d="M-200.473 641.273C-206.51 639.852 -209.609 633.554 -208.358 627.662C-208.138 596.782 -206.939 564.277 -205.74 531.771C-205.902 520.597 -200.028 510.845 -191.761 504.749C-177.184 495.808 -163.315 484.226 -147.052 476.3C-107.946 453.338 -66.4465 434.032 -21.8479 421.023C17.4206 409.234 56.4169 401.712 94.7064 391.548C103.681 388.093 113.362 387.279 124.022 384.84C120.215 375.901 116.409 366.963 113.309 360.665C96.1252 328.163 85.2504 292.814 80.4124 258.888C74.5954 226.586 68.778 194.285 64.6469 162.999C60.0812 124.806 61.1178 81.1263 81.6788 46.9927C95.6583 19.9705 117.523 6.5589 148.524 0.865962C202.259 -4.4239 257.026 15.2747 304.505 39.4438C336.81 54.4728 367.863 75.3934 396.251 96.9241C408.053 104.033 413.545 113.987 415.394 126.176C416.101 128.817 416.1 128.817 416.807 131.458L417.949 141.006C418.656 143.647 420.341 144.663 419.362 146.288L425.614 185.497C427.734 193.42 429.148 198.702 429.583 205.609C431.593 228.972 426.97 232.833 399.613 236.291L396.786 225.727C395.1 224.711 395.1 224.711 394.393 222.07C392.272 214.147 388.194 209.475 382.429 203.788C336.202 173.727 288.997 145.292 235.644 130.875L189.741 123.162C153.954 121.542 128.445 137.188 114.193 168.477C103.858 193.264 100.539 217.847 114.623 244.052C138.006 289.15 168.406 334.044 202.721 372.436C478.957 337.249 754.318 356.915 1032.35 375.972L1036.92 345.498C1044.91 343.668 1052.91 341.839 1058.94 343.26C1130.95 353.407 1202.96 363.555 1273.99 375.328C1280.03 376.749 1285.08 379.796 1291.83 383.858C1293.73 422.661 1330.92 566.837 1329.45 603.608C1319.23 612.955 1306.88 614.379 1295.51 614.178C1267.45 614.994 1239.39 615.811 1212.3 615.002C1159.11 611.76 1104.23 607.501 1049.36 603.243C821.149 585.398 775.83 576.053 550.502 595.385C545.606 603.512 553.329 605.949 555.722 609.606C577.367 627.074 392.344 565.789 414.968 581.632C592.588 706.346 771.529 759.37 982.821 809.114L984.507 810.129L987.172 809.52C988.858 810.535 988.858 810.535 988.858 810.535L1000.93 813.378L1002.62 814.393L1005.28 813.783C1006.97 814.799 1006.97 814.799 1006.97 814.799C1014.69 817.236 1020.46 822.923 1023.56 829.221C1026.11 844.051 1037.91 919.827 1036.82 936.893C1028.55 942.989 1018.16 941.162 1007.77 939.335C992.329 934.461 977.863 927.963 961.438 924.714C790.012 881.263 627.236 812.01 477.46 717.359C384.027 658.863 298.154 591.63 221.8 512.409C219.407 508.753 215.329 504.08 210.271 501.034L203.527 496.972C121.456 507.345 -140.151 560.204 -187.148 638.224C-190.792 640.459 -196.122 641.679 -200.473 641.273ZM449.976 228.969C447.421 214.139 443.452 194.027 438.777 171.274L438.342 164.367C438.342 164.367 436.656 163.351 437.635 161.726L433.939 137.347L433.232 134.706L432.797 127.799C432.797 127.799 431.111 126.783 432.091 125.158C431.221 111.343 439.489 105.247 452.269 110.731C453.955 111.746 457.327 113.777 460.699 115.809C485.009 132.667 509.319 149.526 533.629 166.384C537.707 171.056 540.807 177.354 543.906 183.651C548.42 195.231 559.237 272.633 559.127 288.073C552.546 295.184 545.53 295.389 538.08 288.685C523.885 277.92 509.691 267.155 497.182 257.405C483.695 249.28 470.207 241.156 449.976 228.969Z" fill="#3A9DF9"/>
</svg>
