<svg width="167" height="167" viewBox="0 0 167 167" fill="none" xmlns="http://www.w3.org/2000/svg">
<rect width="167" height="167" fill="#EAEAEA"/>
<path d="M108.276 79.0044C108.276 82.8632 108.346 86.4376 108.258 90.0086C108.143 94.7884 106.791 95.249 102.687 96.4666C101.188 96.9115 99.6442 96.8208 97.9695 96.4492C99.9949 99.8649 102.51 102.717 105.319 105.29C112.026 111.436 118.589 117.697 122.036 126.395C124.301 132.108 125.07 137.896 122.141 143.669C121.715 144.508 121.227 145.314 120.768 146.134C121.712 146.298 122.659 146.441 123.598 146.627C125.733 147.055 127.863 147.526 129.796 148.579C130.506 148.965 131.266 149.415 131.235 150.381C131.204 151.294 130.476 151.733 129.77 152.065C126.129 153.778 122.199 154.251 118.26 154.54C107.482 155.329 96.785 154.807 86.2379 152.283C85.2575 152.047 84.3155 151.636 83.3787 151.252C82.8083 151.018 82.2291 150.669 82.2221 149.966C82.2152 149.214 82.8554 148.883 83.4258 148.618C85.4721 147.667 87.6649 147.231 89.8804 146.894C90.3967 146.816 90.9131 146.739 91.5411 146.643C91.1172 146.127 90.7038 145.666 90.3374 145.169C86.1524 139.471 86.4542 131.531 91.0457 125.181C92.7553 122.817 94.8242 120.86 97.2892 119.316C98.1771 118.759 97.7061 117.966 97.6398 117.292C97.1322 112.06 94.4753 107.65 92.1988 103.087C90.4613 99.6049 88.9052 96.041 88.4011 92.1264C88.3592 91.7984 88.1586 91.6885 87.944 91.5559C86.4403 90.6226 84.9348 89.6928 83.4258 88.77C83.2392 88.6566 83.0246 88.5921 82.8222 88.5031C82.8013 88.7264 82.7629 88.9497 82.7629 89.173C82.749 92.9044 83.9823 96.3567 85.1895 99.809C86.8938 104.685 88.2406 109.641 87.9789 114.862C87.4835 124.71 83.9701 132.978 75.3245 138.475C75.0384 138.659 74.7314 138.81 74.3284 139.035C76.5927 139.396 78.7785 139.71 80.8248 140.563C81.5732 140.876 82.6408 141.029 82.6146 142.067C82.5885 143.156 81.4755 143.276 80.687 143.526C77.5557 144.518 74.2918 144.689 71.0488 144.858C61.4524 145.356 51.8805 145.226 42.4097 143.355C41.0804 143.091 39.786 142.629 38.4986 142.191C37.9805 142.015 37.4589 141.669 37.4659 141.026C37.4711 140.427 37.9857 140.138 38.4498 139.902C41.0647 138.575 43.9379 138.275 46.7779 137.854C47.6903 137.72 48.6096 137.636 49.7034 137.509C48.8521 136.673 48.0269 135.996 47.3606 135.189C42.7307 129.575 42.9767 120.905 48.1246 115.155C54.5199 108.012 62.4974 106.007 71.6716 108.456C72.2123 108.601 72.5002 108.531 72.8229 108.097C74.1627 106.302 74.604 104.219 74.7837 102.061C75.0803 98.4955 74.201 95.01 74.0318 91.4757C73.908 88.9078 74.0702 86.3644 74.9494 83.9134C75.0297 83.6884 75.1675 83.5069 74.8727 83.329C71.3227 81.1868 68.1756 78.2508 64.2872 76.8378C58.7171 74.8125 57.3808 75.4963 52.7911 80.0145C51.3537 81.4293 50.1447 83.0673 49.89 85.2305C49.7976 86.0155 49.4033 86.7761 48.805 87.3762C48.6846 87.4965 48.573 87.7338 48.6044 87.8856C49.1015 90.3156 49.3179 92.8469 51.5019 94.5843C52.4998 95.3781 53.2342 96.4509 53.7418 97.6529C54.6333 99.7619 54.2739 102.047 52.8068 103.479C51.3711 104.878 48.8102 105.287 46.8512 104.484C44.9671 103.711 43.7547 102.291 42.8563 100.535C42.4935 99.8247 42.2615 98.8321 41.3543 98.785C40.3722 98.7345 39.9361 99.7114 39.5034 100.441C38.0712 102.86 36.8309 105.407 34.6625 107.307C33.7589 108.099 32.7837 108.781 31.6341 109.151C29.8094 109.739 28.0178 109.897 26.5263 108.369C25.0191 106.825 25.0697 104.987 25.675 103.094C26.4757 100.596 28.3248 98.7973 30.085 96.7318C27.3881 97.5709 25.3749 99.3258 22.9972 100.369C21.8494 100.871 20.6963 101.339 19.449 101.508C17.0904 101.831 15.1523 101.145 14.4301 99.5788C13.5177 97.5971 14.1423 95.7374 15.5012 94.2721C16.6578 93.023 17.3852 91.7967 17.7603 90.0644C18.3482 87.3465 20.5951 85.7974 22.9414 84.51C25.7517 82.9661 28.9023 82.6661 31.9568 81.991C33.5792 81.6334 35.2347 81.2618 36.1994 79.6412C36.3582 79.3743 36.7716 79.0638 37.0368 79.0882C38.776 79.2539 39.6325 77.9647 40.6932 76.9948C42.3365 75.4963 44.1996 74.331 46.1952 73.3628C46.3383 73.293 47.0099 73.2076 46.4238 72.8726C42.6697 70.7287 42.3679 67.0391 42.1498 63.346C41.8166 57.7166 41.7294 52.0854 42.2702 46.4578C42.4568 44.5197 43.2436 42.9427 44.6566 41.5785C48.395 37.9657 52.9097 36.5753 57.9949 36.6852C58.3438 36.6922 58.7031 36.6102 59.0381 36.6695C65.217 37.7633 69.4648 34.1278 73.7736 30.6598C80.0642 25.5938 86.1245 20.2732 92.0174 14.745C94.4683 12.4457 97.9433 12.3027 101.193 12.0044C101.281 11.9957 101.368 12.0026 101.455 12.0026C106.61 11.98 108.318 13.639 108.332 18.8009C108.367 32.9573 108.375 47.1137 108.394 61.2701C108.394 62.0848 108.494 62.9151 108.37 63.7089C107.712 67.8921 109.197 70.9066 112.438 73.7518C117.326 78.0432 122.401 81.9352 127.968 85.316C132.395 88.0042 137.204 89.2951 142.044 90.7692C146.157 92.0235 149.766 94.2564 152.127 98.0698C153.057 99.5718 153.667 101.131 152.989 102.928C152.927 103.09 152.992 103.328 153.058 103.507C153.693 105.24 153.679 106.918 152.326 108.287C150.881 109.746 149.084 109.726 147.211 109.236C145.254 108.725 143.889 107.399 142.537 106.026C142.401 105.889 142.241 105.254 141.936 105.974C140.936 108.326 138.523 109.327 136.139 108.387C135.83 108.265 135.711 108.209 135.476 108.542C133.955 110.689 131.814 111.366 129.199 110.585C126.985 109.922 125.215 107.734 125.36 105.236C125.499 102.824 124.738 101.461 122.418 100.533C120.276 99.6747 119.308 97.5971 118.896 95.3449C118.865 95.1757 118.929 94.8844 118.847 94.8408C116.337 93.508 117.016 90.5633 115.672 88.6008C113.446 85.3473 111.208 82.1218 108.283 79.0044H108.276Z" fill="#020102"/>
<path d="M147.204 55.3565C146.687 63.709 144.067 72.1854 137.367 79.0186C136.158 80.2502 134.757 81.2253 133.073 81.7452C131.653 82.1848 130.443 81.8708 129.415 80.8189C128.456 79.8367 127.659 78.7272 127.006 77.5253C126.284 76.1942 126.6 75.0691 127.686 74.0171C139.251 62.8263 139.57 43.0928 128.192 31.827C126.047 29.7022 126.423 28.6468 127.838 26.4645C128.17 25.9534 128.567 25.4876 128.936 25.0009C130.488 22.9529 132.147 22.604 134.272 24.0641C138.497 26.9704 141.152 31.1362 143.324 35.6596C146.169 41.5821 147.287 47.864 147.205 55.353L147.204 55.3565Z" fill="#030408"/>
<path d="M130.672 53.4029C130.391 59.6132 128.57 65.1903 123.979 69.6265C123.199 70.3801 122.323 70.9976 121.317 71.4093C120.12 71.8978 118.974 71.8245 117.985 70.9331C116.84 69.9039 115.685 68.8781 114.625 67.7651C113.695 66.79 113.76 65.7171 114.743 64.7716C120.366 59.3672 121.352 52.9039 118.998 45.7446C118.262 43.5082 116.868 41.6346 115.04 40.1117C113.866 39.1331 113.78 37.9311 114.867 36.8251C115.781 35.8953 116.737 34.9934 117.753 34.1787C119.515 32.7657 120.858 32.6959 122.634 34.0985C126.946 37.502 129.186 42.1248 130.196 47.4211C130.573 49.3941 130.73 51.388 130.67 53.4029H130.672Z" fill="#030408"/>
<g filter="url(#filter0_d_471_109)">
<path d="M67.0479 71.1948C65.1342 69.8097 62.8647 69.4853 60.6318 69.0561C58.8733 68.8695 57.1114 68.9916 55.3565 69.0526C53.4637 69.1189 51.7611 68.6584 50.1823 67.6466C48.5042 66.0975 48.0471 64.0564 47.9773 61.9107C47.9233 60.2081 47.9163 58.5038 47.8046 56.8012C47.4051 52.7296 47.597 48.6458 47.6267 44.5689C47.6406 42.6535 48.3175 40.8916 49.6398 39.4367C51.5692 38.0463 53.8353 38.0184 56.0612 37.8893C58.0325 37.7759 60.0334 37.5352 61.9785 37.7463C66.0658 38.1911 68.8256 35.7209 71.6987 33.5822C78.8336 28.2685 85.4033 22.2902 91.9276 16.2491C95.6015 12.8474 100.233 12.5055 104.903 13.5574C107.052 14.0423 107.235 16.1549 107.249 17.9727C107.323 27.0404 107.345 36.1082 107.342 45.176C107.335 59.8819 107.296 74.5896 107.255 89.2955C107.251 90.2201 107.157 91.1534 107.014 92.0692C106.705 94.0544 105.071 94.9511 102.328 94.6964C100.451 94.5551 98.9073 93.6096 97.3669 92.6484C95.1148 91.1743 92.7458 89.8851 90.5739 88.2872C90.3175 88.0988 90.0488 87.9261 89.8081 87.715C88.4387 86.6439 86.9594 85.7281 85.576 84.6761C81.8411 81.8379 78.0608 79.0607 74.2997 76.2591C72.1453 74.6541 70.0048 73.0161 67.6812 71.6484C67.4544 71.5158 67.2712 71.3257 67.0497 71.1896L67.0479 71.1948Z" fill="#3A9DF9"/>
</g>
<path d="M103.309 105.016C109.003 110.317 114.9 115.443 118.779 122.358C121.588 127.364 123.484 132.636 122.528 138.482C121.518 144.656 117.825 148.584 111.81 150.191C105.921 151.764 100.185 151.295 95.0039 147.898C88.1149 143.384 86.585 134.625 91.1887 127.096C92.8128 124.441 94.8852 122.227 97.6153 120.514C97.734 121.941 97.3589 123.191 97.1304 124.823C98.3689 123.263 98.6917 121.771 98.7946 120.217C99.1191 115.286 97.5229 110.846 95.2708 106.575C95.0544 106.165 94.8573 105.748 94.6497 105.333C94.5834 104.499 94.7038 103.673 94.7841 102.851C94.8573 102.111 95.4208 101.696 96.2494 101.616C97.495 101.494 98.5853 101.914 99.6197 102.561C100.874 103.345 102.099 104.168 103.309 105.018V105.016Z" fill="#004A82"/>
<path d="M84.025 100.112C87.1494 108.158 87.8908 116.292 84.9356 124.563C84.8292 124.86 84.6739 125.137 84.5414 125.423C83.9953 125.997 83.6185 126.688 83.2068 127.354C79.5975 133.177 74.4077 136.745 67.7159 138.088C62.5872 139.117 57.7497 138.308 53.4601 135.227C49.7147 132.539 47.6667 128.802 47.6719 124.169C47.6754 120.765 48.9506 117.714 51.0387 115.012C51.8569 113.955 52.8704 113.069 53.6519 111.982C58.226 108.735 66.0011 107.703 71.6113 109.609C70.4774 110.984 68.9039 111.734 67.3688 112.638C69.0679 112.92 72.0492 111.249 73.4727 109.32C76.208 105.611 76.3702 101.424 75.7928 97.091C75.7196 96.5467 75.6725 95.9989 75.6114 95.4529C75.4055 94.886 75.6358 94.5423 76.1365 94.2527C77.3611 93.5445 78.4619 93.6195 79.6813 94.5214C80.6564 95.2418 81.3699 96.1804 81.977 97.2096C82.5806 98.2336 83.2295 99.2245 84.0267 100.111L84.025 100.112Z" fill="#004A82"/>
<path d="M47.3429 87.5963C47.5366 88.3726 47.8104 89.1384 47.9099 89.9269C48.1942 92.1668 49.2322 93.9479 50.8772 95.4726C52.3775 96.8629 53.3771 98.5533 53.0456 100.713C52.8223 102.168 51.9117 103.11 50.5126 103.53C48.5082 104.13 46.8039 103.515 45.3123 102.145C44.4349 101.341 43.9674 100.261 43.4004 99.2546C42.9852 98.5184 42.5037 97.8904 41.6385 97.6915C41.2303 97.5973 41.239 97.4386 41.5007 97.1909C41.9159 96.7949 42.3328 96.4041 43.0341 95.7412C40.8622 96.5611 39.8486 98.1137 38.8334 99.5756C37.4622 101.549 36.4434 103.759 34.8001 105.552C34.0273 106.395 33.1743 107.133 32.1468 107.644C30.5052 108.458 28.8445 108.893 27.2919 107.499C26.1702 106.492 26.1144 104.432 27.018 102.539C28.0246 100.43 29.722 98.8481 31.1542 97.067C31.7299 96.35 32.1154 95.5825 32.2637 94.5026C31.5955 95.4359 30.6274 95.3609 29.8144 95.6261C27.107 96.5158 24.902 98.3562 22.3289 99.4901C21.0502 100.054 19.7209 100.451 18.2991 100.458C15.6929 100.47 14.4439 98.5045 15.6109 96.1494C16.8338 93.6792 19.1365 92.4372 21.4444 91.2736C23.4384 90.2688 25.5387 89.4977 27.7054 88.9238C28.0734 88.8261 28.7503 88.7371 28.5898 88.2033C28.4398 87.7044 27.8536 88.0551 27.5065 88.1388C24.6176 88.8331 21.8422 89.8362 19.2516 91.3137C19.058 91.4236 18.8399 91.4934 18.6341 91.5824C18.6236 91.3329 18.5486 91.0643 18.6149 90.8375C19.3999 88.1056 21.434 86.5304 23.8152 85.2988C26.4389 83.9416 29.3591 83.6712 32.1869 83.0571C32.8079 82.9228 33.3958 82.6315 34.0186 82.5233C34.8001 82.3873 35.9672 80.5974 36.2167 83.6974C36.4731 82.1169 36.1748 81.1155 36.9772 80.4282C37.2686 80.1788 37.6122 79.8752 37.9821 80.0636C38.3711 80.2625 38.0047 80.6306 37.9559 80.8992C37.3261 84.2818 40.5098 87.1846 44.4366 86.799C44.9931 86.745 45.5775 86.4955 46.1061 86.9142C46.1218 86.9369 46.1462 86.9578 46.1549 86.984C46.3631 87.6282 46.7591 87.8341 47.3429 87.6015V87.5963Z" fill="#FDFBFC"/>
<path d="M129.576 87.3533C134.326 90.9539 140.36 90.3137 145.149 93.1903C147.57 94.6452 149.784 96.2798 151.289 98.7221C151.835 99.6065 152.31 100.519 152.137 101.756C149.629 98.3034 146.373 96.0478 142.509 94.6278C142.291 94.5475 142.078 94.4376 141.853 94.401C141.407 94.3295 140.758 93.8515 140.564 94.3661C140.39 94.8301 141.171 94.9383 141.567 95.1058C145.391 96.7142 148.905 98.7395 151.277 102.295C151.642 102.841 151.945 103.471 152.099 104.106C152.394 105.32 152.455 106.577 151.425 107.514C150.332 108.509 148.985 108.528 147.65 108.149C146.138 107.722 144.889 106.836 143.795 105.71C142.049 103.914 140.249 102.178 137.764 101.419C137.297 101.276 136.789 101.1 136.322 101.145C134.853 101.29 134.766 100.547 135.104 99.4425C135.149 99.2942 135.2 99.043 135.128 98.982C134.902 98.7883 134.776 99.057 134.65 99.1861C133.963 99.8891 133.871 100.706 134.22 101.597C134.612 102.597 135.013 103.589 135.153 104.669C135.474 107.174 134.141 109.32 132.032 109.66C129.264 110.106 126.938 108.625 126.519 106.016C126.333 104.852 126.431 103.643 126.406 102.453C126.382 101.227 125.64 100.245 125.241 99.1111C124.611 99.3448 124.901 99.8752 124.918 100.287C122.296 99.7373 120.63 98.1725 120.007 95.5593C119.713 94.319 120.053 93.6421 121.52 93.9195C123.24 94.2457 124.941 94.0364 126.577 93.4276C129.297 92.4158 130.061 90.3259 129.578 87.3516L129.576 87.3533Z" fill="#FDFBFC"/>
<path d="M62.331 73.2325C58.3344 74.4344 54.6221 76.1178 51.8205 79.373C50.4057 81.0163 49.216 82.7608 48.752 84.9397C48.5479 85.9026 48.2827 87.0749 46.9639 85.7282C46.6516 85.4089 46.233 85.5084 45.8143 85.5729C43.8395 85.8799 41.945 85.777 40.2843 84.4529C38.5468 83.0661 38.3235 80.8122 39.8813 79.2387C43.8256 75.2543 48.7572 73.0162 54.0098 71.3624C56.0509 70.8426 58.0343 71.0379 59.9724 71.8334C60.2987 71.9677 60.6563 71.9015 60.9999 71.9329C61.7396 71.9974 62.1932 72.4492 62.331 73.2342V73.2325Z" fill="#FCCDF4"/>
<path d="M117.849 90.8738C117.42 88.7228 115.838 87.2138 114.798 85.4031C113.896 83.8331 112.407 82.6608 111.754 80.9215C110.708 79.0166 110.25 76.9808 110.404 74.8124C110.435 74.3763 110.355 73.832 111.037 73.7744C115.958 78.6171 121.199 83.0254 127.484 86.045C129.143 86.8423 129.147 90.3382 127.542 91.5785C125.448 93.1939 123.062 93.0962 120.635 92.7595C119.198 92.8816 118.47 91.9571 117.853 90.872L117.849 90.8738Z" fill="#FCCEF4"/>
<path d="M53.6491 111.983C53.4659 113.323 52.2378 113.908 51.5156 114.848C48.3407 118.972 46.9276 123.436 48.6896 128.525C50.1078 132.617 53.0769 135.272 57.0002 136.91C65.3824 140.41 75.9191 136.46 80.9868 129.995C81.9741 128.736 82.7888 127.392 83.6733 126.08C83.8826 125.768 84.0989 125.446 84.5385 125.428C82.8621 130.044 80.0221 133.789 75.9854 136.567C69.3215 141.151 62.1185 142.126 54.6539 138.984C44.4296 134.679 42.1896 123.077 49.8601 115.003C50.9801 113.826 52.168 112.718 53.6491 111.985V111.983Z" fill="#002D49"/>
<path d="M67.0486 71.1941C69.2118 71.8448 70.7853 73.455 72.5612 74.7005C76.2664 77.2963 79.8531 80.063 83.4851 82.7635C85.6343 84.3614 87.78 85.9663 89.9274 87.5678C89.4477 87.9324 89.0028 88.3249 88.5876 88.7715C87.9125 89.4989 87.0665 89.539 86.2727 88.9302C85.4581 88.3057 84.7428 87.5189 83.6368 87.402C78.5028 84.4138 73.6078 81.0522 68.6378 77.8092C67.312 76.6979 66.9684 75.6861 67.4481 74.3185C68.3081 73.1497 67.5737 72.1832 67.0469 71.1924L67.0486 71.1941Z" fill="#2172C8"/>
<path d="M49.6399 39.4363C47.7733 42.3182 47.7838 45.5455 47.8884 48.8007C47.9739 51.4906 48.0105 54.1806 48.0681 56.8706C47.8082 57.5789 47.6948 58.3203 47.6233 59.0634C47.5395 59.9217 47.1749 60.548 46.3533 60.8742C45.5735 61.1829 45.0257 61.7918 44.4291 62.3448C44.0925 62.657 43.7331 63.0181 43.2202 62.6169C43.2028 62.1651 43.1836 61.7115 43.1661 61.2597C43.0231 59.8781 43.1469 58.493 43.0998 57.1096C43.0894 56.7973 43.1749 56.4746 43.0231 56.1711C42.9167 52.8356 43.0074 49.5072 43.3196 46.1822C43.4714 44.5703 44.2686 43.3457 45.4688 42.3496C46.7772 41.2628 48.0297 40.0905 49.6399 39.4346V39.4363Z" fill="#277BD1"/>
<path d="M43.2188 62.6164C43.6775 62.7002 43.9828 62.4612 44.2742 62.1472C44.9074 61.4633 45.6 60.8859 46.4827 60.5021C47.8468 59.9107 47.0793 58.3896 47.6829 57.4371C47.805 57.2434 47.6811 56.8928 48.0666 56.8701C48.501 59.8549 47.8242 62.9583 49.0924 65.8629C49.389 66.5415 49.9751 66.92 50.338 67.5044C49.7832 67.7696 49.6419 67.3579 49.4797 66.9811C49.2459 66.4543 48.8551 66.5711 48.4626 66.7456C47.4317 67.2026 46.4164 67.6963 45.5912 68.4831C44.555 69.4705 44.0387 69.0814 43.7526 67.8621C43.3478 66.1368 43.2833 64.3783 43.2205 62.6199L43.2188 62.6164Z" fill="#277BD1"/>
<path d="M83.6346 87.4024C84.7126 87.0901 85.3755 87.7565 86.0018 88.4421C87.0136 89.5516 87.9033 89.3056 88.7162 88.2328C89.032 87.8159 89.3495 87.4774 89.9251 87.5664C92.4267 89.1922 94.9283 90.8181 97.4299 92.4439C96.9519 92.8155 96.5001 93.2098 96.1058 93.6773C95.7691 94.0785 95.3539 94.3175 94.8132 94.0209C91.3137 92.5085 88.2103 90.3087 84.9795 88.3322C84.5155 88.0479 84.0811 87.7147 83.6328 87.4024H83.6346Z" fill="#175BA5"/>
<path d="M49.4767 66.9803C49.7628 67.1547 50.0489 67.3292 50.335 67.5036C53.0511 69.0719 56.0325 68.9498 59.0103 68.8957C59.5476 68.887 60.0884 68.9986 60.6274 69.0544C58.923 69.1085 57.0442 68.7335 55.5614 69.3353C54.0106 69.9633 52.4336 70.6018 50.8653 71.2124C49.4331 71.7706 48.0009 72.9778 46.3995 71.3624C45.4906 70.4465 45.5394 69.6493 46.4186 68.9463C47.3607 68.1927 48.451 67.6257 49.4767 66.9785V66.9803Z" fill="#0E3F74"/>
<path d="M75.255 92.9933C74.9689 90.9418 75.1015 88.899 75.4242 86.865C75.4783 86.5213 75.6265 86.3939 76.0243 86.523C77.8804 87.1249 79.4801 88.0878 80.839 89.5166C82.1788 90.9243 81.7235 92.7316 82.1038 94.3505C81.6223 94.4918 81.4496 94.0888 81.2246 93.8219C80.3331 92.7648 79.2463 91.9728 78.0008 91.3901C77.5542 91.1808 77.0884 91.0116 76.586 91.0412C75.9632 91.0779 75.5463 91.3343 75.5376 92.0426C75.5341 92.3757 75.5969 92.7508 75.2567 92.9933H75.255Z" fill="#6B6177"/>
<path d="M75.2539 92.9934C75.4074 90.6192 76.1541 90.2319 78.394 91.2803C79.9047 91.9886 80.9688 93.2027 82.1027 94.3489C82.7447 96.2695 83.3867 98.1902 84.0269 100.111C83.0151 99.7707 82.6801 98.813 82.1882 98.0297C81.2305 96.505 80.3338 94.9437 78.5736 94.1849C77.3577 93.6598 75.7877 94.3349 75.6115 95.4531C75.4929 94.6332 75.3725 93.8133 75.2539 92.9934Z" fill="#CFBEEA"/>
<path d="M92.1653 100.324C91.656 99.0976 91.164 97.8643 90.6319 96.6466C90.2255 95.7168 90.7052 95.3697 91.5024 95.415C94.0703 95.5616 96.3748 96.3309 97.9797 98.5062C98.5274 99.2494 99.0298 100.027 99.5532 100.79C99.1642 101.137 98.7786 100.875 98.4158 100.753C97.6465 100.495 96.8929 100.191 96.1148 99.9559C94.7437 99.5407 93.4318 99.6384 92.1671 100.322L92.1653 100.324Z" fill="#776A7F"/>
<path d="M92.1619 100.324C93.3516 98.9318 94.8432 99.3993 96.2579 99.729C97.3761 99.9907 98.4525 100.43 99.548 100.79C100.801 102.197 102.053 103.605 103.306 105.015C101.833 104.664 100.82 103.518 99.5428 102.822C98.831 102.433 98.1315 102.032 97.3343 101.894C95.5741 101.589 94.967 102.091 95.0019 103.846C95.0124 104.394 94.8379 104.854 94.646 105.332C93.697 103.722 92.7568 102.107 92.1602 100.322L92.1619 100.324Z" fill="#CBBCE5"/>
<path d="M111.038 73.7782C110.3 74.8929 110.661 76.1053 110.832 77.2515C111.017 78.4935 111.437 79.7025 111.755 80.9253C111.346 80.6183 110.928 80.3235 110.53 80.0025C108.777 78.5842 108.243 76.7037 108.407 74.5266C108.482 73.5253 108.419 72.5152 108.419 71.5086C108.574 71.3761 108.73 71.2417 108.885 71.1074C109.602 71.9988 110.319 72.8885 111.036 73.78L111.038 73.7782Z" fill="#4E404E"/>
<path d="M62.3329 73.2324C60.7524 71.5926 58.5735 71.7688 56.5918 71.3902C55.7597 71.2315 54.8735 71.3623 54.0117 71.3606C56.8971 70.0784 59.854 69.8185 62.8928 70.7326C62.9487 70.75 63.001 70.7762 63.0533 70.7988C63.8453 71.1355 64.8571 71.6205 64.8327 72.3933C64.8083 73.1818 63.6325 72.8155 62.9975 73.0632C62.7847 73.1452 62.5527 73.1783 62.3294 73.2324H62.3329Z" fill="#5C4D5D"/>
<path d="M137.816 107.67C137.207 107.523 136.145 107.752 136.238 106.96C136.358 105.936 135.65 104.137 137.83 104.205C139.201 104.247 140.6 104.81 140.562 106.155C140.525 107.443 138.968 107.546 137.816 107.67Z" fill="#CDC6D8"/>
<path d="M94.8142 94.0206C95.6219 94.1061 95.9813 93.4903 96.3529 92.9687C96.639 92.5675 96.953 92.3773 97.4292 92.4436C98.9364 93.4659 100.627 94.0921 102.326 94.6992C99.6133 96.7874 97.253 94.9522 94.8125 94.0206H94.8142Z" fill="#0B3566"/>
<path d="M67.4488 74.3203C67.646 75.5519 67.4296 76.9231 68.6386 77.811C67.6931 77.2702 66.7476 76.7329 65.8038 76.1886C65.4357 75.9758 65.2229 75.6391 65.748 75.4664C66.444 75.2379 66.8766 74.6919 67.4488 74.3221V74.3203Z" fill="#0C2F50"/>
<path d="M117.851 90.8738C118.775 91.5088 119.325 92.695 120.633 92.7613C120.164 92.8154 119.754 92.8189 119.346 93.2568C118.878 93.7574 118.576 93.0963 118.327 92.7561C117.917 92.2014 117.814 91.5489 117.851 90.8721V90.8738Z" fill="#B591B0"/>
<path d="M43.0234 56.1729C43.3601 57.8615 43.149 59.5641 43.1665 61.2615C43.1194 59.5659 43.0705 57.8702 43.0234 56.1729Z" fill="#1861AE"/>
<path d="M129.335 73.7847C137.261 64.7744 139.349 54.4628 135.977 43.0487C134.508 38.0752 131.921 33.6949 127.945 30.2373C127.617 29.9512 127.15 29.6634 127.579 29.1086C128.442 28.1317 129.621 27.5125 130.483 26.5303C130.939 26.0105 131.458 25.5534 131.819 24.9481C132.048 24.5643 132.36 24.2608 132.878 24.3829C136.236 26.0366 138.302 28.99 140.235 31.9801C148.423 44.6537 148.137 62.4822 139.6 74.8837C138.199 76.9195 136.575 78.7791 134.407 80.07C134.04 80.2601 133.74 80.1084 133.454 79.8851C131.865 78.6378 130.49 77.2021 129.513 75.4175C129.231 74.9011 128.967 74.3743 129.339 73.7847H129.335Z" fill="#3A9BF7"/>
<path d="M129.338 73.7852C129.394 75.6046 132.665 79.6623 134.406 80.0722C131.332 81.5079 128.258 79.9449 127.599 76.5571C127.327 75.1615 128.485 74.5405 129.338 73.7869V73.7852Z" fill="#1C66B3"/>
<path d="M132.876 24.3836C132.335 24.4952 132.138 24.9592 131.838 25.343C130.652 26.8572 129.296 28.1918 127.578 29.1093C127.943 27.5219 128.906 26.2955 129.973 25.1285C130.783 24.2423 131.749 24.0085 132.878 24.3818L132.876 24.3836Z" fill="#2272C3"/>
<path d="M117.155 63.7036C122.624 56.8617 122.104 47.8969 118.026 41.9168C117.37 40.9556 116.661 40.0258 115.664 39.3926C114.868 38.8884 114.828 38.2604 115.44 37.6743C116.592 36.5735 117.774 35.4972 119.027 34.5133C120.1 33.6707 121.166 34.0702 122.115 34.8604C127.247 39.1326 129.37 44.8493 129.649 51.2881C129.916 57.4863 128.417 63.2238 124.182 67.995C123.65 68.5951 122.976 69.0713 122.369 69.6051C122.024 69.79 121.699 69.715 121.385 69.5266C119.835 68.5968 118.42 67.5065 117.321 66.0499C116.761 65.3085 116.703 64.5217 117.157 63.7036H117.155Z" fill="#3B9DF9"/>
<path d="M117.155 63.7041C117.093 65.9894 119.774 69.0265 122.368 69.6057C119.945 71.2088 119.594 71.1809 117.525 69.2463C117.101 68.8503 116.66 68.4752 116.236 68.081C114.492 66.4621 114.493 66.1394 116.247 64.5048C116.541 64.2292 116.852 63.971 117.154 63.7058L117.155 63.7041Z" fill="#185FA9"/>
<path d="M82.6235 46.7353C82.7823 46.1422 83.1504 46.3271 83.2568 46.6742C83.5551 47.6424 83.904 47.1121 84.2878 46.7789C85.6502 45.5961 87.1818 44.7448 88.9909 44.4866C89.2368 44.4518 89.6573 44.2808 89.727 44.6733C89.7829 44.9803 89.3764 44.9978 89.1426 45.078C85.4321 46.3393 83.1416 49.0014 81.7391 52.5514C81.4443 53.2962 81.5891 53.605 82.4561 53.5387C84.4116 53.3887 86.2956 53.6835 88.2058 54.2208C91.4279 55.1279 94.5348 54.6587 97.3539 52.7415C97.558 52.6019 97.7603 52.2984 98.0081 52.6107C98.2087 52.8636 97.9854 53.1113 97.8249 53.305C97.1463 54.1284 96.3316 54.8017 95.2902 55.0669C94.5679 55.2501 94.1353 55.6269 93.8789 56.3055C92.3228 60.4469 84.6332 61.6715 81.6431 57.3696C81.2018 56.7346 80.9139 56.7974 80.3575 57.1358C77.8611 58.65 75.2653 59.4316 72.4515 57.9627C72.1462 57.804 71.8374 57.6103 71.6002 57.3661C70.0389 55.7629 69.7266 53.1829 67.471 52.0926C67.2652 51.9931 67.239 51.4593 67.1936 51.1174C67.1727 50.9552 67.3036 50.7737 67.3664 50.601C67.4553 50.7301 67.5949 50.847 67.6228 50.9883C67.7344 51.5291 68.0589 51.96 68.5631 52.0175C69.0812 52.0769 69.0428 51.4541 69.2085 51.1279C70.9443 47.6808 73.5278 45.1879 77.2261 43.9476C77.6361 43.8098 78.3199 43.4993 78.4804 43.9685C78.6688 44.5198 77.8995 44.4064 77.5558 44.5617C74.1611 46.0898 71.6386 48.5007 70.0546 51.8797C69.8714 52.2705 69.6778 52.745 70.318 52.7991C73.0376 53.0311 75.7486 52.9927 78.4176 52.3211C79.084 51.8222 79.8359 51.4454 80.511 50.9744C81.6152 50.2033 82.2171 48.9874 82.8032 47.8081C82.9654 47.4819 82.6113 47.1086 82.6235 46.7335V46.7353Z" fill="#010204"/>
<path d="M82.6239 46.7354C83.3095 47.3023 83.1682 47.857 82.7565 48.5671C81.7342 50.3342 80.4014 51.6897 78.418 52.3212C80.0281 50.6151 81.4586 48.7764 82.6221 46.7354H82.6239Z" fill="#226DBA"/>
<path d="M84.8896 63.58C83.4905 63.3532 82.0723 62.9153 80.8668 61.9384C80.7046 61.8058 80.4168 61.6785 80.6505 61.3906C80.8215 61.1796 81.0151 61.3052 81.1983 61.3994C82.6392 62.139 84.1587 62.5716 85.7862 62.6065C86.0741 62.6135 86.5102 62.6676 86.409 63.0235C86.2049 63.7387 85.5124 63.4666 84.8878 63.5817L84.8896 63.58Z" fill="#020B16"/>
<path d="M86.8293 56.1868C87.8341 55.2064 90.6061 55.4925 91.5254 56.6439C91.8237 57.0172 91.8254 57.2387 91.4469 57.558C89.2332 59.4141 85.4616 59.4577 83.2165 57.6051C82.5536 57.059 81.8959 56.3595 82.1244 55.4751C82.3093 54.7563 83.2339 54.8837 83.8427 54.7319C85.6046 54.2923 86.4559 54.7406 86.8293 56.1868Z" fill="#FDFDFD"/>
<path d="M74.771 53.7272C75.2908 53.5894 75.6345 53.9505 75.7113 54.7058C75.727 54.8611 75.9206 54.9989 76.0322 55.1437C76.1404 55.0216 76.3148 54.9152 76.3462 54.7756C76.6637 53.4236 77.5569 53.5475 78.5478 53.8894C79.0397 54.0604 79.5229 54.2802 80.0306 54.3779C81.4227 54.6465 80.8557 55.4106 80.3463 55.92C78.6088 57.661 75.3641 58.1651 73.1329 57.1359C72.1403 56.6788 71.1041 55.9967 71.2768 54.8838C71.4338 53.872 72.716 54.0674 73.5551 53.8685C73.8621 53.7952 74.1866 53.79 74.7692 53.7254L74.771 53.7272Z" fill="#FCFDFD"/>
<defs>
<filter id="filter0_d_471_109" x="43.5547" y="13.0303" width="67.7875" height="89.7085" filterUnits="userSpaceOnUse" color-interpolation-filters="sRGB">
<feFlood flood-opacity="0" result="BackgroundImageFix"/>
<feColorMatrix in="SourceAlpha" type="matrix" values="0 0 0 0 0 0 0 0 0 0 0 0 0 0 0 0 0 0 127 0" result="hardAlpha"/>
<feOffset dy="4"/>
<feGaussianBlur stdDeviation="2"/>
<feComposite in2="hardAlpha" operator="out"/>
<feColorMatrix type="matrix" values="0 0 0 0 0 0 0 0 0 0 0 0 0 0 0 0 0 0 0.25 0"/>
<feBlend mode="normal" in2="BackgroundImageFix" result="effect1_dropShadow_471_109"/>
<feBlend mode="normal" in="SourceGraphic" in2="effect1_dropShadow_471_109" result="shape"/>
</filter>
</defs>
</svg>
