<svg width="68" height="68" viewBox="0 0 68 68" fill="none" xmlns="http://www.w3.org/2000/svg">
<g filter="url(#filter0_d_790_798)">
<rect x="8" y="4" width="52" height="52" rx="8" fill="#1E1D1D"/>
</g>
<path d="M36.9763 24.5734C32.2448 25.8078 28.9767 30.6978 30.2937 34.5433C31.6595 38.6262 35.3178 40.9525 40.342 41C47.7074 41 52.8291 34.9231 50 29.4634C48.6342 26.8523 47.3172 25.8078 44.0491 24.8583C40.4395 23.7664 40.1469 23.7664 36.9763 24.5734Z" fill="white"/>
<path d="M33.7768 14.594C33.0353 15.3691 33.0078 16.2245 33.6944 16.8928C33.969 17.1601 35.3697 18.2292 36.7703 19.245L39.3518 21.0626L29.9045 21.1963C29.9045 21.1963 21.1437 21.1517 20.7226 21.3566C20.3015 21.5616 19.9628 21.9714 19.9628 21.9714C19.3037 22.7733 19.3037 23.896 19.9628 24.6979C20.4572 25.3127 20.7043 25.3394 24.3844 25.4731L28.2842 25.6067L25.2083 28.1461C16.475 35.3097 14.223 37.2877 14.0582 37.9292C13.6738 39.3993 15.2666 41.0299 16.6672 40.5755C16.9968 40.4953 19.1389 38.838 21.4184 36.9135L25.5928 33.4386L25.9223 35.3899C26.3892 37.9827 27.4328 39.9607 29.4651 41.9387C31.4699 43.9167 33.2001 44.7988 36.4133 45.5472C39.4617 46.2689 42.3178 46.1353 45.531 45.0928C50.7765 43.4088 53.6052 39.8538 53.9622 34.5612C54.2094 30.9794 53.2482 28.1193 50.9413 25.5532C50.4469 25.0187 47.3985 22.6397 44.1579 20.2875C34.4359 13.2575 34.8479 13.4713 33.7768 14.594ZM43.1967 25.179C47.2612 26.569 49.5132 30.4448 48.3872 34.0801C46.1627 41.2704 34.9852 41.8585 31.772 34.9622C30.646 32.5832 31.3326 29.3489 33.3923 27.264C35.7816 24.8583 39.7638 24.0029 43.1967 25.179Z" fill="#FA7F04"/>
<path d="M38.0333 27.7182C35.3694 28.4132 33.5293 31.1664 34.2708 33.3315C35.0398 35.6303 37.0995 36.9401 39.9283 36.9668C44.0752 36.9668 46.9588 33.5454 45.366 30.4714C44.597 29.0013 43.8555 28.4132 42.0155 27.8786C39.9832 27.2638 39.8184 27.2638 38.0333 27.7182Z" fill="#00448C"/>
<defs>
<filter id="filter0_d_790_798" x="0" y="0" width="68" height="68" filterUnits="userSpaceOnUse" color-interpolation-filters="sRGB">
<feFlood flood-opacity="0" result="BackgroundImageFix"/>
<feColorMatrix in="SourceAlpha" type="matrix" values="0 0 0 0 0 0 0 0 0 0 0 0 0 0 0 0 0 0 127 0" result="hardAlpha"/>
<feOffset dy="4"/>
<feGaussianBlur stdDeviation="4"/>
<feComposite in2="hardAlpha" operator="out"/>
<feColorMatrix type="matrix" values="0 0 0 0 0 0 0 0 0 0 0 0 0 0 0 0 0 0 0.1 0"/>
<feBlend mode="normal" in2="BackgroundImageFix" result="effect1_dropShadow_790_798"/>
<feBlend mode="normal" in="SourceGraphic" in2="effect1_dropShadow_790_798" result="shape"/>
</filter>
</defs>
</svg>
