<svg width="167" height="167" viewBox="0 0 167 167" fill="none" xmlns="http://www.w3.org/2000/svg">
<rect width="167" height="167" fill="#0230A1"/>
<path d="M134 105.094C134 113.123 131.19 119.948 125.569 125.569C119.948 131.19 113.123 134 105.094 134C101.207 134 97.4896 133.255 93.9406 131.764C90.3906 130.273 87.2691 128.182 84.5764 125.49L42.5095 83.4236C39.8179 80.7309 37.7266 77.6094 36.2359 74.0594C34.7453 70.5104 34 66.7927 34 62.9063C34 54.8771 36.8104 48.052 42.4312 42.4312C48.052 36.8104 54.8771 34 62.9062 34C66.7927 34 70.5104 34.7453 74.0594 36.2359C77.6094 37.7266 80.7309 39.8179 83.4236 42.5095L125.49 84.5764C128.182 87.2691 130.273 90.3906 131.764 93.9406C133.255 97.4896 134 101.207 134 105.094ZM127.75 105.094C127.75 102.073 127.177 99.1562 126.031 96.3437C124.885 93.5312 123.271 91.0834 121.187 89.0001L102.305 70.2734L70.2734 102.305L89.0001 121.187C91.0834 123.271 93.5312 124.885 96.3437 126.031C99.1562 127.177 102.073 127.75 105.094 127.75C111.344 127.75 116.682 125.536 121.109 121.109C125.536 116.682 127.75 111.344 127.75 105.094Z" fill="url(#paint0_linear_1_1263)"/>
<path d="M62.9063 134C54.8771 134 48.052 131.19 42.4312 125.569C36.8104 119.948 34 113.123 34 105.094C34 101.207 34.7453 97.4896 36.2359 93.9406C37.7266 90.3906 39.8179 87.2691 42.5095 84.5764L84.5764 42.5095C87.2691 39.8179 90.3906 37.7266 93.9406 36.2359C97.4896 34.7453 101.207 34 105.094 34C113.123 34 119.948 36.8104 125.569 42.4312C131.19 48.052 134 54.8771 134 62.9063C134 66.7927 133.255 70.5104 131.764 74.0594C130.273 77.6094 128.182 80.7309 125.49 83.4236L83.4236 125.49C80.7309 128.182 77.6094 130.273 74.0594 131.764C70.5104 133.255 66.7927 134 62.9063 134ZM62.9063 127.75C65.9271 127.75 68.8438 127.177 71.6563 126.031C74.4688 124.885 76.9166 123.271 78.9999 121.187L97.7266 102.305L65.6954 70.2734L46.8126 89.0001C44.7293 91.0834 43.1146 93.5312 41.9688 96.3437C40.823 99.1562 40.25 102.073 40.25 105.094C40.25 111.344 42.4635 116.682 46.8906 121.109C51.3177 125.536 56.6563 127.75 62.9063 127.75Z" fill="url(#paint1_linear_1_1263)"/>
<defs>
<linearGradient id="paint0_linear_1_1263" x1="123" y1="126.75" x2="43.75" y2="44.8125" gradientUnits="userSpaceOnUse">
<stop stop-color="#C4E0FF" stop-opacity="0.3"/>
<stop offset="0.53219" stop-color="#80ACFF" stop-opacity="0.5"/>
<stop offset="1" stop-color="#C4E0FF" stop-opacity="0.8"/>
</linearGradient>
<linearGradient id="paint1_linear_1_1263" x1="41.25" y1="123" x2="123.188" y2="43.75" gradientUnits="userSpaceOnUse">
<stop stop-color="#C4E0FF" stop-opacity="0.3"/>
<stop offset="0.53219" stop-color="#80ACFF" stop-opacity="0.5"/>
<stop offset="1" stop-color="#C4E0FF" stop-opacity="0.8"/>
</linearGradient>
</defs>
</svg>
