<svg width="68" height="68" viewBox="0 0 68 68" fill="none" xmlns="http://www.w3.org/2000/svg">
<g filter="url(#filter0_d_553_425)">
<rect x="8" y="4" width="52" height="52" rx="8" fill="#1E1D1D"/>
</g>
<path d="M22 16.6667C22 12.9848 24.9848 10 28.6667 10H34.381V23.3333H28.6667C24.9848 23.3333 22 20.3486 22 16.6667Z" fill="#E9479E"/>
<path d="M46.7617 16.6667C46.7617 12.9848 43.7769 10 40.095 10H34.3808V23.3333H40.0951C43.7769 23.3333 46.7617 20.3486 46.7617 16.6667Z" fill="#FA7F04"/>
<path d="M22 29.9997C22 26.3178 24.9848 23.333 28.6667 23.333H34.381V36.6663H28.6667C24.9848 36.6663 22 33.6816 22 29.9997Z" fill="#00448C"/>
<rect x="34.3828" y="23.333" width="12.381" height="13.3333" rx="6.19048" fill="#47D6F3"/>
<path d="M22 43.3337C22 39.6518 24.9848 36.667 28.6667 36.667H34.381V43.8099C34.381 47.2288 31.6094 50.0003 28.1905 50.0003C24.7716 50.0003 22 47.2288 22 43.8098V43.3337Z" fill="#AEF088"/>
<defs>
<filter id="filter0_d_553_425" x="0" y="0" width="68" height="68" filterUnits="userSpaceOnUse" color-interpolation-filters="sRGB">
<feFlood flood-opacity="0" result="BackgroundImageFix"/>
<feColorMatrix in="SourceAlpha" type="matrix" values="0 0 0 0 0 0 0 0 0 0 0 0 0 0 0 0 0 0 127 0" result="hardAlpha"/>
<feOffset dy="4"/>
<feGaussianBlur stdDeviation="4"/>
<feComposite in2="hardAlpha" operator="out"/>
<feColorMatrix type="matrix" values="0 0 0 0 0 0 0 0 0 0 0 0 0 0 0 0 0 0 0.1 0"/>
<feBlend mode="normal" in2="BackgroundImageFix" result="effect1_dropShadow_553_425"/>
<feBlend mode="normal" in="SourceGraphic" in2="effect1_dropShadow_553_425" result="shape"/>
</filter>
</defs>
</svg>
