<svg width="417" height="208" viewBox="0 0 417 208" fill="none" xmlns="http://www.w3.org/2000/svg">
<path d="M397.873 124.808C399.602 124.253 400.646 126.676 399.054 127.551L299.104 182.478C296.841 183.722 297.719 187.162 300.301 187.17L414.348 187.509C416.165 187.515 416.41 190.142 414.624 190.483L302.593 211.836C300.057 212.319 299.829 215.862 302.282 216.667L410.643 252.232C412.369 252.799 411.79 255.374 409.987 255.146L296.84 240.835C294.279 240.511 292.967 243.809 295.051 245.333L387.118 312.643C388.585 313.716 387.238 315.985 385.593 315.211L282.407 266.636C280.071 265.536 277.804 268.268 279.316 270.361L346.076 362.827C347.14 364.3 345.158 366.042 343.833 364.798L260.708 286.714C258.826 284.947 255.826 286.844 256.616 289.302L291.536 397.873C292.092 399.603 289.669 400.647 288.794 399.055L233.866 299.104C232.623 296.842 229.183 297.72 229.175 300.302L228.835 414.348C228.83 416.166 226.202 416.41 225.862 414.625L204.509 302.594C204.026 300.058 200.483 299.829 199.678 302.282L164.112 410.643C163.546 412.369 160.971 411.79 161.199 409.987L175.51 296.841C175.834 294.279 172.536 292.968 171.012 295.052L103.702 387.118C102.629 388.585 100.36 387.238 101.134 385.594L149.709 282.407C150.808 280.072 148.077 277.805 145.984 279.316L53.518 346.076C52.0447 347.14 50.3025 345.158 51.5468 343.834L129.63 260.709C131.398 258.827 129.501 255.826 127.043 256.616L18.4719 291.537C16.7423 292.093 15.6981 289.669 17.2902 288.794L117.241 233.867C119.503 232.623 118.625 229.183 116.043 229.175L1.99639 228.836C0.179141 228.83 -0.0650123 226.203 1.72016 225.863L113.751 204.51C116.287 204.026 116.516 200.484 114.063 199.678L5.70196 164.113C3.97537 163.546 4.55465 160.972 6.35756 161.2L119.504 175.51C122.066 175.834 123.377 172.536 121.293 171.013L29.2267 103.702C27.7598 102.629 29.1069 100.36 30.7511 101.134L133.937 149.71C136.273 150.809 138.54 148.077 137.029 145.984L70.2684 53.5184C69.2046 52.045 71.1867 50.3029 72.5112 51.5471L155.636 129.631C157.518 131.398 160.519 129.501 159.729 127.043L124.808 18.4723C124.252 16.7426 126.675 15.6985 127.551 17.2906L182.478 117.241C183.722 119.503 187.162 118.625 187.169 116.044L187.509 1.99675C187.514 0.17951 190.142 -0.0646547 190.482 1.72052L211.835 113.751C212.319 116.287 215.861 116.516 216.667 114.063L252.232 5.70232C252.799 3.97571 255.373 4.55503 255.145 6.35792L240.834 119.504C240.51 122.066 243.809 123.378 245.332 121.293L312.643 29.2271C313.715 27.7601 315.985 29.1072 315.211 30.7514L266.635 133.938C265.536 136.274 268.268 138.541 270.361 137.029L362.826 70.2687L362.966 70.1769C364.406 69.3276 366.003 71.2285 364.798 72.5116L286.714 155.637C284.946 157.518 286.844 160.519 289.301 159.729L397.873 124.808Z" stroke="#FF90CB"/>
</svg>
