<svg width="353" height="230" viewBox="0 0 353 230" fill="none" xmlns="http://www.w3.org/2000/svg">
<rect width="353" height="230" fill="#EAEAEA"/>
<path d="M212.197 108.088C212.197 113.622 212.297 118.748 212.172 123.869C212.007 130.723 210.068 131.384 204.181 133.13C202.033 133.768 199.819 133.638 197.417 133.105C200.321 138.003 203.929 142.093 207.957 145.783C217.575 154.597 226.987 163.575 231.93 176.049C235.177 184.242 236.28 192.542 232.08 200.82C231.47 202.023 230.769 203.179 230.111 204.355C231.465 204.59 232.823 204.795 234.169 205.063C237.231 205.676 240.286 206.351 243.058 207.862C244.076 208.415 245.166 209.061 245.121 210.447C245.076 211.755 244.033 212.385 243.02 212.861C237.799 215.317 232.163 215.995 226.514 216.411C211.059 217.541 195.718 216.793 180.593 213.173C179.187 212.836 177.836 212.245 176.493 211.695C175.675 211.36 174.844 210.859 174.834 209.851C174.824 208.773 175.742 208.298 176.561 207.917C179.495 206.554 182.64 205.929 185.817 205.446C186.557 205.333 187.298 205.223 188.198 205.086C187.59 204.345 186.997 203.685 186.472 202.972C180.471 194.801 180.903 183.414 187.488 174.307C189.939 170.918 192.906 168.111 196.441 165.897C197.715 165.099 197.039 163.96 196.944 162.995C196.216 155.492 192.406 149.168 189.141 142.624C186.65 137.63 184.418 132.519 183.695 126.906C183.635 126.435 183.348 126.278 183.04 126.088C180.883 124.749 178.724 123.416 176.561 122.092C176.293 121.93 175.985 121.837 175.695 121.71C175.665 122.03 175.61 122.35 175.61 122.67C175.59 128.021 177.359 132.972 179.09 137.923C181.534 144.915 183.465 152.022 183.09 159.51C182.379 173.632 177.341 185.49 164.943 193.373C164.532 193.635 164.092 193.853 163.514 194.176C166.761 194.694 169.896 195.144 172.831 196.367C173.904 196.815 175.435 197.035 175.397 198.524C175.36 200.085 173.764 200.257 172.633 200.615C168.142 202.038 163.462 202.284 158.811 202.526C145.049 203.239 131.323 203.054 117.741 200.37C115.835 199.992 113.979 199.329 112.132 198.701C111.389 198.449 110.641 197.953 110.651 197.03C110.659 196.172 111.397 195.757 112.062 195.419C115.812 193.515 119.933 193.085 124.005 192.482C125.314 192.289 126.632 192.169 128.201 191.987C126.98 190.788 125.797 189.818 124.841 188.66C118.201 180.609 118.554 168.176 125.937 159.93C135.108 149.686 146.548 146.812 159.704 150.324C160.48 150.532 160.893 150.431 161.355 149.809C163.277 147.234 163.91 144.247 164.167 141.153C164.592 136.039 163.332 131.041 163.089 125.973C162.911 122.29 163.144 118.643 164.405 115.128C164.52 114.805 164.718 114.545 164.295 114.29C159.204 111.218 154.691 107.007 149.115 104.981C141.127 102.077 139.211 103.057 132.629 109.537C130.567 111.565 128.834 113.914 128.468 117.017C128.336 118.142 127.77 119.233 126.912 120.094C126.74 120.266 126.58 120.606 126.625 120.824C127.338 124.309 127.648 127.939 130.78 130.431C132.211 131.569 133.264 133.107 133.992 134.831C135.27 137.856 134.755 141.133 132.651 143.187C130.592 145.193 126.92 145.778 124.11 144.628C121.409 143.519 119.67 141.483 118.382 138.964C117.861 137.946 117.528 136.522 116.228 136.455C114.819 136.382 114.194 137.783 113.573 138.829C111.519 142.298 109.741 145.951 106.631 148.675C105.335 149.811 103.937 150.789 102.288 151.32C99.6715 152.163 97.1023 152.39 94.9634 150.199C92.802 147.985 92.8745 145.348 93.7426 142.634C94.8908 139.051 97.5426 136.472 100.067 133.51C96.1992 134.713 93.3123 137.23 89.9025 138.726C88.2564 139.447 86.6028 140.117 84.8141 140.36C81.4318 140.823 78.6525 139.839 77.6168 137.593C76.3084 134.751 77.204 132.084 79.1528 129.983C80.8114 128.192 81.8546 126.433 82.3925 123.949C83.2355 120.051 86.4577 117.83 89.8225 115.983C93.8527 113.769 98.3707 113.339 102.751 112.371C105.078 111.858 107.452 111.325 108.835 109.001C109.063 108.618 109.656 108.173 110.036 108.208C112.53 108.446 113.758 106.597 115.279 105.206C117.636 103.057 120.308 101.386 123.17 99.9977C123.375 99.8976 124.338 99.775 123.497 99.2947C118.114 96.2202 117.681 90.9291 117.368 85.6331C116.891 77.5602 116.765 69.4848 117.541 61.4144C117.809 58.635 118.937 56.3735 120.963 54.4172C126.324 49.2362 132.799 47.2424 140.091 47.4C140.591 47.41 141.918 47.4 146.922 47.5238C151.925 47.6476 156.54 43.7325 162.719 38.7592C171.74 31.4943 180.431 23.8642 188.881 15.9364C192.396 12.6392 197.379 12.4341 202.04 12.0063C202.165 11.9938 202.29 12.0038 202.415 12.0038C209.808 11.9713 212.257 14.3504 212.277 21.7528C212.327 42.0539 212.339 62.355 212.367 82.6561C212.367 83.8244 212.51 85.0152 212.332 86.1534C211.389 92.1524 213.518 96.4753 218.166 100.556C225.176 106.71 232.453 112.291 240.436 117.139C246.785 120.994 253.682 122.845 260.622 124.959C266.521 126.758 271.697 129.96 275.081 135.429C276.415 137.583 277.29 139.819 276.317 142.396C276.23 142.629 276.322 142.969 276.417 143.227C277.328 145.711 277.308 148.117 275.367 150.081C273.295 152.173 270.719 152.145 268.032 151.442C265.225 150.709 263.269 148.808 261.33 146.839C261.135 146.641 260.904 145.731 260.467 146.764C259.033 150.136 255.573 151.572 252.154 150.224C251.711 150.049 251.541 149.969 251.203 150.446C249.022 153.526 245.952 154.497 242.202 153.376C239.027 152.425 236.488 149.288 236.696 145.706C236.896 142.246 235.805 140.292 232.478 138.961C229.406 137.73 228.017 134.751 227.427 131.521C227.382 131.279 227.475 130.861 227.357 130.798C223.757 128.887 224.73 124.664 222.804 121.85C219.612 117.184 216.402 112.559 212.207 108.088H212.197Z" fill="#020102"/>
<path d="M268.019 74.1754C267.279 86.1534 263.521 98.309 253.912 108.108C252.179 109.874 250.17 111.273 247.756 112.018C245.719 112.649 243.983 112.198 242.51 110.69C241.134 109.281 239.99 107.69 239.055 105.967C238.019 104.058 238.472 102.444 240.03 100.936C256.614 84.8875 257.072 56.5886 240.756 40.4328C237.679 37.3857 238.219 35.8722 240.248 32.7426C240.723 32.0096 241.294 31.3417 241.822 30.6437C244.048 27.7068 246.427 27.2064 249.474 29.3003C255.533 33.4681 259.341 39.4421 262.456 45.9289C266.536 54.4221 268.139 63.4307 268.022 74.1703L268.019 74.1754Z" fill="#030408"/>
<path d="M244.313 71.3734C243.911 80.2793 241.299 88.2772 234.714 94.639C233.596 95.7197 232.34 96.6053 230.897 97.1957C229.181 97.8961 227.537 97.7911 226.119 96.5127C224.478 95.0367 222.821 93.5657 221.3 91.9697C219.967 90.5712 220.06 89.0327 221.471 87.6768C229.533 79.9266 230.947 70.6579 227.572 60.391C226.516 57.1839 224.518 54.4971 221.896 52.3131C220.212 50.9097 220.09 49.186 221.648 47.6C222.959 46.2666 224.33 44.9732 225.786 43.8049C228.313 41.7786 230.239 41.6785 232.786 43.6899C238.97 48.5706 242.182 55.2001 243.63 62.7951C244.171 65.6245 244.396 68.4839 244.311 71.3734H244.313Z" fill="#030408"/>
<g filter="url(#filter0_d_1011_205)">
<path d="M153.072 96.888C150.328 94.9017 147.073 94.4364 143.871 93.821C141.349 93.5533 138.823 93.7284 136.306 93.816C133.592 93.911 131.15 93.2506 128.886 91.7996C126.48 89.5781 125.824 86.6512 125.724 83.5741C125.646 81.1325 125.636 78.6884 125.476 76.2467C124.903 70.4078 125.179 64.5514 125.221 58.705C125.241 55.9581 126.212 53.4314 128.108 51.3451C130.875 49.3512 134.125 49.3112 137.317 49.1261C140.144 48.9635 143.013 48.6182 145.802 48.9209C151.664 49.5589 155.622 46.0165 159.742 42.9494C169.974 35.3293 179.395 26.7561 188.751 18.0928C194.02 13.2145 200.662 12.7242 207.359 14.2327C210.441 14.9282 210.703 17.9577 210.723 20.5645C210.828 33.5682 210.861 46.5719 210.856 59.5756C210.846 80.6647 210.791 101.756 210.731 122.845C210.726 124.171 210.591 125.51 210.386 126.823C209.943 129.67 207.599 130.956 203.666 130.591C200.974 130.388 198.76 129.032 196.551 127.654C193.322 125.54 189.924 123.691 186.81 121.399C186.442 121.129 186.057 120.882 185.712 120.579C183.748 119.043 181.626 117.729 179.643 116.221C174.287 112.151 168.865 108.168 163.472 104.15C160.382 101.849 157.313 99.4998 153.98 97.5385C153.655 97.3483 153.393 97.0757 153.075 96.8805L153.072 96.888Z" fill="#3A9DF9"/>
</g>
<path d="M205.075 145.391C213.24 152.993 221.696 160.343 227.26 170.26C231.287 177.44 234.007 185 232.636 193.383C231.187 202.236 225.891 207.87 217.265 210.174C208.82 212.43 200.594 211.758 193.164 206.887C183.285 200.412 181.091 187.852 187.693 177.054C190.022 173.247 192.994 170.072 196.909 167.615C197.079 169.662 196.541 171.456 196.214 173.795C197.99 171.558 198.453 169.419 198.6 167.19C199.066 160.118 196.777 153.751 193.547 147.627C193.237 147.039 192.954 146.441 192.656 145.846C192.561 144.65 192.734 143.464 192.849 142.286C192.954 141.225 193.762 140.63 194.95 140.515C196.737 140.34 198.3 140.943 199.784 141.871C201.582 142.994 203.339 144.175 205.075 145.393V145.391Z" fill="#004A82"/>
<path d="M177.421 138.358C181.902 149.896 182.965 161.562 178.727 173.422C178.575 173.847 178.352 174.245 178.162 174.655C177.379 175.478 176.838 176.469 176.248 177.425C171.072 185.775 163.63 190.891 154.033 192.817C146.678 194.293 139.741 193.133 133.589 188.715C128.218 184.86 125.281 179.501 125.289 172.857C125.294 167.976 127.123 163.6 130.117 159.725C131.29 158.209 132.744 156.938 133.865 155.38C140.424 150.724 151.574 149.243 159.619 151.978C157.993 153.949 155.737 155.025 153.535 156.32C155.972 156.726 160.247 154.329 162.289 151.562C166.211 146.244 166.444 140.24 165.616 134.026C165.511 133.245 165.443 132.46 165.356 131.676C165.06 130.863 165.391 130.371 166.109 129.955C167.865 128.94 169.443 129.047 171.192 130.341C172.59 131.374 173.614 132.72 174.484 134.196C175.35 135.664 176.28 137.085 177.424 138.356L177.421 138.358Z" fill="#004A82"/>
<path d="M124.818 120.409C125.096 121.522 125.489 122.62 125.631 123.751C126.039 126.963 127.528 129.517 129.887 131.704C132.038 133.698 133.472 136.122 132.996 139.219C132.676 141.305 131.37 142.656 129.364 143.259C126.49 144.12 124.045 143.236 121.906 141.273C120.648 140.119 119.978 138.571 119.165 137.127C118.569 136.072 117.879 135.171 116.638 134.886C116.053 134.751 116.065 134.523 116.44 134.168C117.036 133.6 117.634 133.04 118.639 132.089C115.525 133.265 114.071 135.491 112.615 137.588C110.649 140.417 109.188 143.587 106.831 146.158C105.723 147.367 104.5 148.425 103.026 149.158C100.672 150.326 98.2907 150.949 96.0642 148.95C94.4556 147.507 94.3755 144.552 95.6714 141.838C97.1149 138.813 99.549 136.544 101.603 133.99C102.428 132.962 102.981 131.861 103.194 130.313C102.236 131.651 100.847 131.544 99.6816 131.924C95.799 133.2 92.6369 135.839 88.9469 137.465C87.1132 138.273 85.2069 138.844 83.168 138.854C79.4305 138.871 77.6393 136.052 79.313 132.674C81.0666 129.132 84.3688 127.351 87.6786 125.682C90.538 124.241 93.55 123.135 96.6571 122.312C97.1849 122.172 98.1556 122.045 97.9254 121.279C97.7103 120.564 96.8697 121.067 96.3719 121.187C92.2291 122.182 88.2489 123.621 84.534 125.74C84.2563 125.897 83.9436 125.997 83.6484 126.125C83.6333 125.767 83.5258 125.382 83.6208 125.057C84.7466 121.139 87.6635 118.88 91.0783 117.114C94.8408 115.168 99.0287 114.78 103.084 113.899C103.974 113.707 104.818 113.289 105.711 113.134C106.831 112.939 108.505 110.372 108.863 114.817C109.23 112.551 108.803 111.115 109.953 110.129C110.371 109.772 110.864 109.336 111.394 109.606C111.952 109.892 111.427 110.419 111.357 110.805C110.454 115.655 115.019 119.818 120.651 119.265C121.449 119.188 122.287 118.83 123.045 119.431C123.067 119.463 123.102 119.493 123.115 119.531C123.413 120.455 123.981 120.75 124.818 120.416V120.409Z" fill="#FDFBFC"/>
<path d="M242.74 120.061C249.552 125.225 258.205 124.306 265.072 128.432C268.545 130.518 271.719 132.862 273.878 136.365C274.661 137.633 275.342 138.941 275.094 140.715C271.497 135.764 266.828 132.529 261.287 130.493C260.974 130.378 260.669 130.22 260.347 130.168C259.706 130.065 258.775 129.38 258.498 130.118C258.248 130.783 259.368 130.938 259.936 131.179C265.42 133.485 270.458 136.39 273.861 141.488C274.383 142.271 274.819 143.174 275.039 144.085C275.462 145.826 275.549 147.63 274.073 148.973C272.505 150.399 270.573 150.426 268.66 149.884C266.491 149.271 264.699 148 263.131 146.386C260.627 143.809 258.045 141.32 254.483 140.232C253.812 140.027 253.084 139.774 252.414 139.839C250.307 140.047 250.182 138.981 250.668 137.398C250.733 137.185 250.805 136.825 250.703 136.737C250.377 136.46 250.197 136.845 250.017 137.03C249.031 138.038 248.899 139.209 249.399 140.487C249.962 141.921 250.537 143.344 250.738 144.893C251.198 148.485 249.287 151.562 246.262 152.05C242.292 152.69 238.957 150.567 238.357 146.824C238.089 145.155 238.229 143.422 238.194 141.716C238.159 139.957 237.096 138.548 236.523 136.922C235.62 137.258 236.035 138.018 236.06 138.609C232.3 137.82 229.911 135.576 229.018 131.829C228.595 130.05 229.083 129.08 231.187 129.477C233.654 129.945 236.093 129.645 238.439 128.772C242.339 127.321 243.435 124.324 242.742 120.059L242.74 120.061Z" fill="#FDFBFC"/>
<path d="M146.31 99.8101C140.579 101.534 135.255 103.948 131.238 108.616C129.209 110.973 127.503 113.474 126.837 116.599C126.544 117.98 126.164 119.661 124.273 117.73C123.825 117.272 123.225 117.414 122.624 117.507C119.792 117.947 117.076 117.8 114.694 115.901C112.202 113.912 111.882 110.68 114.116 108.423C119.772 102.71 126.845 99.4999 134.377 97.1283C137.304 96.3828 140.149 96.663 142.928 97.8038C143.396 97.9964 143.909 97.9013 144.401 97.9464C145.462 98.0389 146.112 98.6868 146.31 99.8126V99.8101Z" fill="#FCCDF4"/>
<path d="M225.928 125.11C225.313 122.025 223.044 119.861 221.553 117.264C220.26 115.013 218.123 113.332 217.188 110.837C215.687 108.106 215.031 105.186 215.251 102.077C215.296 101.451 215.181 100.671 216.159 100.588C223.217 107.533 230.732 113.855 239.745 118.185C242.124 119.328 242.129 124.342 239.828 126.12C236.826 128.437 233.403 128.297 229.924 127.814C227.862 127.989 226.819 126.663 225.933 125.107L225.928 125.11Z" fill="#FCCEF4"/>
<path d="M133.859 155.382C133.597 157.303 131.836 158.141 130.8 159.49C126.247 165.404 124.22 171.806 126.747 179.103C128.781 184.972 133.039 188.779 138.665 191.129C150.686 196.147 165.796 190.483 173.063 181.212C174.479 179.406 175.647 177.479 176.916 175.598C177.216 175.15 177.526 174.688 178.157 174.662C175.752 181.282 171.68 186.653 165.891 190.636C156.334 197.21 146.005 198.609 135.3 194.103C120.638 187.929 117.426 171.29 128.426 159.712C130.032 158.024 131.735 156.435 133.859 155.385V155.382Z" fill="#002D49"/>
<path d="M153.072 96.888C156.174 97.8211 158.431 100.13 160.978 101.916C166.291 105.639 171.435 109.607 176.643 113.479C179.725 115.771 182.802 118.072 185.882 120.369C185.194 120.892 184.556 121.454 183.96 122.095C182.992 123.138 181.779 123.196 180.641 122.323C179.472 121.427 178.447 120.299 176.861 120.131C169.498 115.846 162.479 111.025 155.351 106.374C153.45 104.781 152.957 103.33 153.645 101.368C154.879 99.6924 153.825 98.3064 153.07 96.8855L153.072 96.888Z" fill="#2172C8"/>
<path d="M128.108 51.345C125.431 55.4778 125.446 60.1059 125.596 64.774C125.719 68.6316 125.772 72.4892 125.854 76.3468C125.481 77.3624 125.319 78.4257 125.216 79.4914C125.096 80.7222 124.573 81.6203 123.395 82.0881C122.277 82.5309 121.491 83.404 120.636 84.197C120.153 84.6448 119.637 85.1627 118.902 84.5873C118.877 83.9394 118.849 83.2889 118.824 82.641C118.619 80.6596 118.797 78.6733 118.729 76.6895C118.714 76.2417 118.837 75.7789 118.619 75.3436C118.467 70.5604 118.597 65.7872 119.045 61.019C119.262 58.7075 120.405 56.9513 122.127 55.5228C124.003 53.9643 125.799 52.2832 128.108 51.3425V51.345Z" fill="#277BD1"/>
<path d="M118.902 84.5874C119.56 84.7075 119.998 84.3648 120.416 83.9145C121.324 82.9338 122.317 82.1058 123.583 81.5554C125.539 80.7073 124.438 78.5259 125.304 77.16C125.479 76.8823 125.301 76.3794 125.854 76.3469C126.477 80.6273 125.507 85.0778 127.325 89.2431C127.751 90.2162 128.591 90.7591 129.111 91.5971C128.316 91.9774 128.113 91.387 127.881 90.8466C127.545 90.0911 126.985 90.2587 126.422 90.5089C124.944 91.1643 123.488 91.8723 122.304 93.0006C120.818 94.4165 120.078 93.8586 119.668 92.11C119.087 89.6358 118.995 87.1141 118.905 84.5924L118.902 84.5874Z" fill="#277BD1"/>
<path d="M176.861 120.131C178.407 119.683 179.357 120.639 180.255 121.622C181.706 123.213 182.982 122.86 184.148 121.322C184.601 120.724 185.056 120.239 185.882 120.366C189.469 122.698 193.056 125.029 196.644 127.361C195.958 127.894 195.31 128.459 194.745 129.13C194.262 129.705 193.667 130.048 192.891 129.622C187.873 127.454 183.423 124.299 178.789 121.465C178.124 121.057 177.501 120.579 176.858 120.131H176.861Z" fill="#175BA5"/>
<path d="M127.878 90.8441C128.288 91.0942 128.699 91.3444 129.109 91.5946C133.004 93.8436 137.279 93.6684 141.55 93.5909C142.32 93.5784 143.096 93.7385 143.869 93.8185C141.425 93.8961 138.73 93.3582 136.604 94.2213C134.38 95.1219 132.118 96.0375 129.869 96.9131C127.815 97.7136 125.762 99.4448 123.465 97.1283C122.162 95.8149 122.232 94.6716 123.493 93.6634C124.843 92.5827 126.407 91.7697 127.878 90.8416V90.8441Z" fill="#0E3F74"/>
<path d="M164.84 128.149C164.43 125.207 164.62 122.278 165.083 119.361C165.16 118.868 165.373 118.685 165.943 118.87C168.605 119.733 170.899 121.114 172.848 123.163C174.769 125.182 174.116 127.774 174.662 130.095C173.971 130.298 173.724 129.72 173.401 129.337C172.122 127.821 170.564 126.686 168.778 125.85C168.137 125.55 167.469 125.307 166.749 125.35C165.856 125.402 165.258 125.77 165.245 126.786C165.24 127.264 165.33 127.801 164.843 128.149H164.84Z" fill="#6B6177"/>
<path d="M164.84 128.149C165.06 124.744 166.131 124.189 169.343 125.692C171.51 126.708 173.036 128.449 174.662 130.093C175.582 132.847 176.503 135.601 177.421 138.356C175.97 137.868 175.49 136.495 174.784 135.371C173.411 133.185 172.125 130.946 169.601 129.858C167.857 129.105 165.606 130.073 165.353 131.676C165.183 130.501 165.01 129.325 164.84 128.149Z" fill="#CFBEEA"/>
<path d="M189.092 138.661C188.361 136.902 187.656 135.134 186.893 133.387C186.31 132.054 186.998 131.556 188.141 131.621C191.823 131.831 195.128 132.935 197.43 136.054C198.215 137.12 198.936 138.236 199.686 139.329C199.128 139.827 198.575 139.452 198.055 139.276C196.952 138.906 195.871 138.471 194.755 138.133C192.789 137.538 190.908 137.678 189.094 138.659L189.092 138.661Z" fill="#776A7F"/>
<path d="M189.091 138.661C190.798 136.665 192.936 137.335 194.965 137.808C196.569 138.183 198.112 138.814 199.683 139.329C201.48 141.348 203.276 143.367 205.072 145.388C202.961 144.885 201.507 143.242 199.676 142.244C198.655 141.686 197.652 141.11 196.509 140.913C193.985 140.475 193.114 141.195 193.164 143.712C193.179 144.498 192.929 145.158 192.654 145.843C191.293 143.534 189.944 141.218 189.089 138.659L189.091 138.661Z" fill="#CBBCE5"/>
<path d="M216.157 100.593C215.099 102.192 215.617 103.93 215.862 105.574C216.127 107.355 216.73 109.089 217.185 110.842C216.6 110.402 215.999 109.979 215.429 109.519C212.915 107.485 212.149 104.788 212.385 101.666C212.492 100.23 212.402 98.7818 212.402 97.3383C212.625 97.1482 212.847 96.9556 213.07 96.7629C214.098 98.0413 215.126 99.3171 216.155 100.596L216.157 100.593Z" fill="#4E404E"/>
<path d="M146.31 99.81C144.044 97.4585 140.919 97.7111 138.077 97.1683C136.884 96.9406 135.613 97.1282 134.377 97.1257C138.515 95.287 142.755 94.9143 147.113 96.2251C147.193 96.2501 147.268 96.2877 147.343 96.3202C148.479 96.803 149.93 97.4985 149.895 98.6067C149.86 99.7375 148.174 99.2121 147.263 99.5674C146.958 99.6849 146.625 99.7325 146.305 99.81H146.31Z" fill="#5C4D5D"/>
<path d="M254.56 149.196C253.687 148.985 252.164 149.313 252.296 148.177C252.469 146.709 251.453 144.13 254.58 144.227C256.547 144.287 258.553 145.095 258.498 147.024C258.445 148.87 256.211 149.018 254.56 149.196Z" fill="#CDC6D8"/>
<path d="M192.891 129.623C194.05 129.745 194.565 128.862 195.098 128.114C195.508 127.539 195.958 127.266 196.641 127.361C198.803 128.827 201.227 129.725 203.664 130.596C199.774 133.59 196.389 130.959 192.889 129.623H192.891Z" fill="#0B3566"/>
<path d="M153.648 101.371C153.93 103.137 153.62 105.104 155.354 106.377C153.998 105.601 152.642 104.831 151.289 104.05C150.761 103.745 150.456 103.262 151.209 103.015C152.207 102.687 152.827 101.904 153.648 101.374V101.371Z" fill="#0C2F50"/>
<path d="M225.929 125.109C227.254 126.02 228.042 127.721 229.919 127.816C229.246 127.894 228.658 127.899 228.072 128.527C227.402 129.245 226.969 128.297 226.612 127.809C226.024 127.013 225.876 126.078 225.929 125.107V125.109Z" fill="#B591B0"/>
<path d="M118.619 75.3462C119.102 77.7678 118.8 80.2094 118.825 82.6436C118.757 80.2119 118.687 77.7803 118.619 75.3462Z" fill="#1861AE"/>
<path d="M242.399 100.603C253.765 87.682 256.759 72.8946 251.923 56.5262C249.817 49.3939 246.107 43.1122 240.406 38.1539C239.935 37.7436 239.265 37.3308 239.88 36.5353C241.119 35.1344 242.81 34.2463 244.046 32.8378C244.699 32.0923 245.444 31.4369 245.962 30.5688C246.29 30.0185 246.737 29.5832 247.48 29.7583C252.296 32.1299 255.258 36.3652 258.03 40.6531C269.773 58.8277 269.363 84.3948 257.119 102.179C255.11 105.099 252.781 107.765 249.672 109.617C249.147 109.889 248.716 109.672 248.306 109.352C246.027 107.563 244.056 105.504 242.655 102.945C242.249 102.204 241.872 101.449 242.404 100.603H242.399Z" fill="#3A9BF7"/>
<path d="M242.4 100.603C242.48 103.212 247.17 109.031 249.667 109.619C245.259 111.678 240.851 109.436 239.905 104.578C239.515 102.577 241.176 101.686 242.4 100.606V100.603Z" fill="#1C66B3"/>
<path d="M247.476 29.7581C246.7 29.9182 246.417 30.5836 245.987 31.134C244.286 33.3054 242.342 35.2192 239.878 36.5351C240.401 34.2586 241.782 32.4999 243.313 30.8263C244.474 29.5554 245.859 29.2202 247.478 29.7556L247.476 29.7581Z" fill="#2272C3"/>
<path d="M224.93 86.146C232.773 76.3344 232.028 63.4783 226.179 54.9026C225.238 53.5241 224.222 52.1907 222.791 51.2826C221.651 50.5597 221.593 49.659 222.471 48.8185C224.122 47.2399 225.819 45.6964 227.615 44.2855C229.153 43.0771 230.682 43.65 232.043 44.7833C239.403 50.9099 242.447 59.1079 242.847 68.3416C243.23 77.23 241.081 85.458 235.007 92.3001C234.244 93.1607 233.279 93.8436 232.408 94.6091C231.913 94.8743 231.447 94.7667 230.997 94.4966C228.773 93.1632 226.744 91.5996 225.168 89.5107C224.365 88.4475 224.282 87.3193 224.933 86.146H224.93Z" fill="#3B9DF9"/>
<path d="M224.93 86.146C224.84 89.4232 228.685 93.7786 232.405 94.6092C228.931 96.9082 228.428 96.8682 225.461 94.0938C224.853 93.5259 224.22 92.9881 223.612 92.4227C221.11 90.1011 221.113 89.6383 223.627 87.2943C224.05 86.899 224.495 86.5288 224.928 86.1485L224.93 86.146Z" fill="#185FA9"/>
<path d="M174.67 64.1065C174.898 63.2562 175.425 63.5213 175.578 64.0189C176.005 65.4069 176.505 64.6467 177.055 64.169C179.007 62.4734 181.202 61.253 183.795 60.8828C184.147 60.8328 184.75 60.5877 184.85 61.1504C184.93 61.5906 184.347 61.6156 184.012 61.7306C178.695 63.5388 175.413 67.3551 173.403 72.4444C172.98 73.5122 173.188 73.9549 174.43 73.8599C177.233 73.6448 179.932 74.0674 182.67 74.8377C187.287 76.1382 191.739 75.4654 195.779 72.717C196.071 72.5169 196.361 72.0817 196.716 72.5294C197.004 72.892 196.684 73.2472 196.454 73.5248C195.481 74.7052 194.314 75.6705 192.822 76.0506C191.787 76.3132 191.167 76.8534 190.799 77.8263C188.569 83.7633 177.55 85.5189 173.265 79.3518C172.633 78.4415 172.22 78.5315 171.423 79.0167C167.846 81.1874 164.126 82.3078 160.094 80.2021C159.656 79.9745 159.214 79.6969 158.874 79.3468C156.636 77.0485 155.98 73.4558 154.216 72.603C152.453 71.7502 152.624 70.8788 152.559 70.3887C152.529 70.1561 152.568 69.7003 152.807 69.6484C153.045 69.5965 153.134 70.001 153.174 70.2036C153.334 70.9789 153.799 71.5966 154.522 71.6791C155.264 71.7641 155.209 70.8713 155.447 70.4037C157.934 65.4619 161.636 61.8882 166.936 60.1101C167.523 59.9125 168.503 59.4673 168.733 60.1401C169.003 60.9304 167.901 60.7678 167.408 60.9904C162.544 63.1811 158.929 66.6373 156.659 71.4815C156.397 72.0417 156.119 72.722 157.036 72.7995C160.934 73.1321 164.818 73.0771 168.643 72.1143C169.598 71.399 170.676 70.8588 171.643 70.1836C173.225 69.0782 174.088 67.3351 174.928 65.6445C175.16 65.1768 174.653 64.6417 174.67 64.104V64.1065Z" fill="#010204"/>
<path d="M174.569 64.0249C175.541 64.8488 175.341 65.6549 174.757 66.6866C173.308 69.2545 171.418 71.2242 168.605 72.1418C170.889 69.6626 172.917 66.9908 174.567 64.0249H174.569Z" fill="#226DBA"/>
<path d="M177.87 88.1886C175.888 87.8621 173.863 87.0843 172.172 85.8252C171.943 85.6343 171.535 85.451 171.866 85.0365C172.108 84.7326 172.382 84.9135 172.642 85.0491C174.683 86.114 176.835 86.7369 179.14 86.7872C179.547 86.7972 180.165 86.8751 180.022 87.3874C179.733 88.4172 178.844 88.2834 177.867 88.1912C176.891 88.0989 177.87 88.1886 177.87 88.1886Z" fill="#020B16"/>
<path d="M186.73 80.0743C187.265 79.6194 187.648 78.783 187.302 78.2323C186.315 76.6615 184.075 75.9326 182.395 76.1081C181.561 76.1952 181.2 77.6231 180.668 77.5811C180.135 77.5392 180.368 76.427 179.674 75.8775C178.929 75.2882 177.506 75.1857 176.538 75.278C175.569 75.3702 174.282 75.543 174.021 76.567C173.698 77.8272 174.633 79.2963 175.569 80.0743C178.741 82.7139 183.603 82.7189 186.73 80.0743Z" fill="#FDFDFD"/>
<path d="M164.04 74.078C164.639 74.1248 164.653 74.397 164.761 75.4762C164.784 75.698 164.97 76.081 165.216 76.1018C165.461 76.1226 165.616 75.7753 165.66 75.5759C166.109 73.6444 167.268 73.6636 168.836 74.078C169.532 74.3223 170.174 74.6321 170.874 75.0077C172.572 75.6928 172.041 76.4831 171.321 77.2109C168.862 79.6983 164.292 80.7606 161.134 79.2902C159.73 78.6372 158.242 77.3206 158.486 75.7304C158.708 74.2849 160.581 74.1696 161.411 74.078C162.241 73.9864 162.472 74.0326 163.348 74.0326C163.348 74.0326 163.44 74.0312 164.04 74.078Z" fill="#FCFDFD"/>
<defs>
<filter id="filter0_d_1011_205" x="121.118" y="13.4768" width="93.7385" height="125.175" filterUnits="userSpaceOnUse" color-interpolation-filters="sRGB">
<feFlood flood-opacity="0" result="BackgroundImageFix"/>
<feColorMatrix in="SourceAlpha" type="matrix" values="0 0 0 0 0 0 0 0 0 0 0 0 0 0 0 0 0 0 127 0" result="hardAlpha"/>
<feOffset dy="4"/>
<feGaussianBlur stdDeviation="2"/>
<feComposite in2="hardAlpha" operator="out"/>
<feColorMatrix type="matrix" values="0 0 0 0 0 0 0 0 0 0 0 0 0 0 0 0 0 0 0.25 0"/>
<feBlend mode="normal" in2="BackgroundImageFix" result="effect1_dropShadow_1011_205"/>
<feBlend mode="normal" in="SourceGraphic" in2="effect1_dropShadow_1011_205" result="shape"/>
</filter>
</defs>
</svg>
