<svg width="68" height="68" viewBox="0 0 68 68" fill="none" xmlns="http://www.w3.org/2000/svg">
<g filter="url(#filter0_d_553_434)">
<rect x="8" y="4" width="52" height="52" rx="8" fill="white"/>
</g>
<path fill-rule="evenodd" clip-rule="evenodd" d="M43.2578 10.0003C43.6603 9.97489 46.6543 11.3752 52.2139 14.1234C52.7922 14.4286 53.4459 14.9118 53.6475 15.1917C53.9493 15.5989 54 18.1696 54 30.0277V44.3539L53.3965 44.9642C53.0693 45.2951 51.635 46.1093 50.2012 46.7708C48.7673 47.4579 46.6546 48.502 45.5225 49.0873C43.6862 50.0541 43.3586 50.1298 42.7549 49.8753C42.3629 49.7167 41.7211 49.2459 41.4033 48.889C41.2254 48.7593 41.0381 48.605 40.8428 48.4242C40.2634 47.8891 37.5721 45.4213 34.8809 42.9281C32.1892 40.4599 28.667 37.1775 27.082 35.7015C26.6498 35.292 26.166 34.8389 25.6689 34.3753L26.1006 34.7845L23.0322 37.0755C21.3474 38.3219 19.762 39.5675 19.4844 39.7972C18.8051 40.3825 18.1257 40.5868 17.6729 40.3324C16.9681 39.9248 14 36.8966 14 36.5658C14.0006 36.2348 14.7319 35.496 18.6045 31.9095C19.6856 30.8923 20.7164 30.0783 20.8682 30.0775C20.9172 30.0848 21.0465 30.1709 21.2373 30.3177C16.456 26.0289 14 23.617 14 23.2318C14.0013 22.9765 14.8564 22.0104 15.9121 21.0951C16.9435 20.1536 18.0004 19.39 18.252 19.39C18.4786 19.3903 19.1323 19.772 19.6855 20.2298C20.2138 20.6878 21.3457 21.5527 22.1758 22.1888C23.0059 22.7995 23.7359 23.3595 23.8115 23.4359C23.8871 23.5377 24.3901 23.9195 24.9434 24.3519C25.4966 24.7589 26.0004 25.166 26.0762 25.2425C26.0854 25.253 26.109 25.2737 26.1445 25.3041C26.2093 24.8973 27.6975 23.5727 34.7559 17.099C38.176 13.9447 41.1436 11.1968 41.3467 10.9916C41.5319 10.7787 41.7537 10.5663 41.9834 10.4027C41.9938 10.3853 42.0281 10.3636 42.084 10.3343C42.2676 10.2166 42.4541 10.1361 42.6289 10.1126C42.853 10.0466 43.0928 10.0004 43.2578 10.0003ZM39.3594 24.6058C36.8187 26.565 34.1773 28.5752 33.4727 29.0843L32.2266 29.973C32.8393 30.4323 33.3797 30.8338 33.7744 31.1205C34.63 31.7314 37.2712 33.7172 39.6357 35.5492L43.9297 38.85C43.935 36.5021 43.9375 33.598 43.9375 30.0023C43.9375 26.3588 43.9345 23.4206 43.9287 21.0492L39.3594 24.6058Z" fill="url(#paint0_linear_553_434)"/>
<defs>
<filter id="filter0_d_553_434" x="0" y="0" width="68" height="68" filterUnits="userSpaceOnUse" color-interpolation-filters="sRGB">
<feFlood flood-opacity="0" result="BackgroundImageFix"/>
<feColorMatrix in="SourceAlpha" type="matrix" values="0 0 0 0 0 0 0 0 0 0 0 0 0 0 0 0 0 0 127 0" result="hardAlpha"/>
<feOffset dy="4"/>
<feGaussianBlur stdDeviation="4"/>
<feComposite in2="hardAlpha" operator="out"/>
<feColorMatrix type="matrix" values="0 0 0 0 0 0 0 0 0 0 0 0 0 0 0 0 0 0 0.1 0"/>
<feBlend mode="normal" in2="BackgroundImageFix" result="effect1_dropShadow_553_434"/>
<feBlend mode="normal" in="SourceGraphic" in2="effect1_dropShadow_553_434" result="shape"/>
</filter>
<linearGradient id="paint0_linear_553_434" x1="54" y1="30.0002" x2="17" y2="30.0002" gradientUnits="userSpaceOnUse">
<stop stop-color="#47D6F3"/>
<stop offset="1" stop-color="#00448C"/>
</linearGradient>
</defs>
</svg>
