<svg width="167" height="167" viewBox="0 0 167 167" fill="none" xmlns="http://www.w3.org/2000/svg">
<rect width="167" height="167" fill="#6A49FF"/>
<path d="M121.945 94.2633L83.9727 109.19V103.429L112.256 91.9063L83.9727 79.6635V72.5927L112.19 59.5642L83.9727 48.8271V43.0003L121.945 57.3382V61.9866L90.5851 76.1281L121.945 89.5494V94.2633Z" fill="white"/>
<path d="M121.945 110.71L83.9727 125.637V119.875L112.256 108.353L83.9727 96.1097V89.039L112.19 76.0105L83.9727 65.2734V59.4465L121.945 73.7845V78.4328L90.5851 92.5744L121.945 105.996V110.71Z" fill="white"/>
<path d="M46.0001 94.2633L83.9727 109.19V103.429L55.6896 91.9063L83.9727 79.6635V72.5927L55.7551 59.5642L83.9727 48.8271V43.0003L46.0001 57.3382V61.9866L77.3602 76.1281L46.0001 89.5494V94.2633Z" fill="white"/>
<path d="M46.0001 110.71L83.9727 125.637V119.875L55.6896 108.353L83.9727 96.1097V89.039L55.7551 76.0105L83.9727 65.2734V59.4465L46.0001 73.7845V78.4328L77.3602 92.5744L46.0001 105.996V110.71Z" fill="white"/>
</svg>
