<svg width="353" height="230" viewBox="0 0 353 230" fill="none" xmlns="http://www.w3.org/2000/svg">
<rect width="353" height="230" fill="black" fill-opacity="0.05"/>
<path d="M20.9329 85L13.1888 65.3002H17.0948L22.4273 78.3428L28.0995 65.3002H32.2772L38.2891 78.3768L43.282 65.3002H47.188L39.7836 85H36.7946L30.2054 70.3949L23.9218 85H20.9329ZM49.6884 85V65.3002H53.3567V85H49.6884ZM49.6884 62.515V58.8468H53.3567V62.515H49.6884ZM60.6815 85C59.4587 85 58.4171 84.5698 57.5567 83.7093C56.6962 82.8489 56.266 81.8073 56.266 80.5845V69.7156C56.266 68.4929 56.6962 67.4513 57.5567 66.5908C58.4171 65.7304 59.4587 65.3002 60.6815 65.3002H72.6372V58.8468H76.3055V85H60.6815ZM61.2249 81.3318H71.4145C71.9126 81.3318 72.241 81.2525 72.3995 81.094C72.558 80.9129 72.6372 80.5732 72.6372 80.075V70.2251C72.6372 69.727 72.558 69.3986 72.3995 69.2401C72.241 69.059 71.9126 68.9684 71.4145 68.9684H61.2249C60.7268 68.9684 60.3871 69.059 60.206 69.2401C60.0475 69.3986 59.9682 69.727 59.9682 70.2251V80.075C59.9682 80.5732 60.0475 80.9129 60.206 81.094C60.3871 81.2525 60.7268 81.3318 61.2249 81.3318ZM79.9055 85V65.3002H83.5738V85H79.9055ZM79.9055 62.515V58.8468H83.5738V62.515H79.9055ZM92.0131 85C90.7903 85 89.7487 84.5698 88.8883 83.7093C88.0278 82.8489 87.5976 81.8073 87.5976 80.5845V80.075H91.2658V80.2788C91.2658 80.6411 91.3451 80.9129 91.5036 81.094C91.6847 81.2525 91.9565 81.3318 92.3188 81.3318H102.916C103.278 81.3318 103.539 81.2525 103.697 81.094C103.856 80.9129 103.935 80.6411 103.935 80.2788V78.0371C103.935 77.6748 103.856 77.4144 103.697 77.2559C103.539 77.0748 103.278 76.9842 102.916 76.9842H92.0131C90.7903 76.9842 89.7487 76.554 88.8883 75.6935C88.0278 74.8331 87.5976 73.7915 87.5976 72.5687V69.7156C87.5976 68.4929 88.0278 67.4513 88.8883 66.5908C89.7487 65.7304 90.7903 65.3002 92.0131 65.3002H103.222C104.444 65.3002 105.486 65.7304 106.346 66.5908C107.207 67.4513 107.637 68.4929 107.637 69.7156V70.2251H103.935V70.0213C103.935 69.659 103.856 69.3986 103.697 69.2401C103.539 69.059 103.278 68.9684 102.916 68.9684H92.3188C91.9565 68.9684 91.6847 69.059 91.5036 69.2401C91.3451 69.3986 91.2658 69.659 91.2658 70.0213V72.263C91.2658 72.6253 91.3451 72.8971 91.5036 73.0782C91.6847 73.2367 91.9565 73.316 92.3188 73.316H103.222C104.444 73.316 105.486 73.7462 106.346 74.6066C107.207 75.4671 107.637 76.5087 107.637 77.7314V80.5845C107.637 81.8073 107.207 82.8489 106.346 83.7093C105.486 84.5698 104.444 85 103.222 85H92.0131ZM111.086 85V58.8468H114.754V65.3002H126.71C127.91 65.3002 128.941 65.7304 129.801 66.5908C130.684 67.4513 131.126 68.4929 131.126 69.7156V85H127.457V70.2251C127.457 69.727 127.367 69.3986 127.186 69.2401C127.027 69.059 126.699 68.9684 126.201 68.9684H116.011C115.513 68.9684 115.173 69.059 114.992 69.2401C114.834 69.3986 114.754 69.727 114.754 70.2251V85H111.086Z" fill="#6A49FF"/>
<path d="M238.876 85L231.132 65.3002H235.038L240.371 78.3428L246.043 65.3002H250.221L256.233 78.3768L261.226 65.3002H265.132L257.727 85H254.738L248.149 70.3949L241.865 85H238.876ZM267.632 85V65.3002H271.3V85H267.632ZM267.632 62.515V58.8468H271.3V62.515H267.632Z" fill="#6A49FF"/>
<path d="M279.74 85C278.517 85 277.475 84.5698 276.615 83.7093C275.754 82.8489 275.324 81.8073 275.324 80.5845V80.075H278.992V80.2788C278.992 80.6411 279.072 80.9129 279.23 81.094C279.411 81.2525 279.683 81.3318 280.045 81.3318H290.642C291.005 81.3318 291.265 81.2525 291.424 81.094C291.582 80.9129 291.661 80.6411 291.661 80.2788V78.0371C291.661 77.6748 291.582 77.4144 291.424 77.2559C291.265 77.0748 291.005 76.9842 290.642 76.9842H279.74C278.517 76.9842 277.475 76.554 276.615 75.6935C275.754 74.8331 275.324 73.7915 275.324 72.5687V69.7156C275.324 68.4929 275.754 67.4513 276.615 66.5908C277.475 65.7304 278.517 65.3002 279.74 65.3002H290.948C292.171 65.3002 293.212 65.7304 294.073 66.5908C294.933 67.4513 295.364 68.4929 295.364 69.7156V70.2251H291.661V70.0213C291.661 69.659 291.582 69.3986 291.424 69.2401C291.265 69.059 291.005 68.9684 290.642 68.9684H280.045C279.683 68.9684 279.411 69.059 279.23 69.2401C279.072 69.3986 278.992 69.659 278.992 70.0213V72.263C278.992 72.6253 279.072 72.8971 279.23 73.0782C279.411 73.2367 279.683 73.316 280.045 73.316H290.948C292.171 73.316 293.212 73.7462 294.073 74.6066C294.933 75.4671 295.364 76.5087 295.364 77.7314V80.5845C295.364 81.8073 294.933 82.8489 294.073 83.7093C293.212 84.5698 292.171 85 290.948 85H279.74ZM298.813 85V58.8468H302.481V65.3002H314.437C315.637 65.3002 316.667 65.7304 317.527 66.5908C318.411 67.4513 318.852 68.4929 318.852 69.7156V85H315.184V70.2251C315.184 69.727 315.093 69.3986 314.912 69.2401C314.754 69.059 314.425 68.9684 313.927 68.9684H303.738C303.239 68.9684 302.9 69.059 302.719 69.2401C302.56 69.3986 302.481 69.727 302.481 70.2251V85H298.813Z" fill="#1D1D1F"/>
<path d="M231.778 126.513V106.813H256.946C258.169 106.813 259.21 107.243 260.071 108.104C260.931 108.964 261.361 110.006 261.361 111.229V126.513H257.727V111.738C257.727 111.24 257.637 110.912 257.455 110.753C257.297 110.572 256.969 110.481 256.47 110.481H249.711C249.191 110.481 248.851 110.572 248.692 110.753C248.534 110.912 248.455 111.24 248.455 111.738V126.513H244.752V111.738C244.752 111.24 244.662 110.912 244.481 110.753C244.322 110.572 243.994 110.481 243.496 110.481H236.703C236.205 110.481 235.876 110.572 235.718 110.753C235.559 110.912 235.48 111.24 235.48 111.738V126.513H231.778ZM268.796 126.513C267.573 126.513 266.532 126.083 265.671 125.222C264.811 124.362 264.381 123.32 264.381 122.097V111.229C264.381 110.006 264.811 108.964 265.671 108.104C266.532 107.243 267.573 106.813 268.796 106.813H280.005C281.227 106.813 282.269 107.243 283.129 108.104C283.99 108.964 284.42 110.006 284.42 111.229V118.497H268.049V121.588C268.049 122.086 268.128 122.426 268.287 122.607C268.468 122.765 268.807 122.845 269.306 122.845H284.42V126.513H268.796ZM268.049 115.067H280.718V111.738C280.718 111.24 280.639 110.912 280.48 110.753C280.322 110.572 279.993 110.481 279.495 110.481H269.306C268.807 110.481 268.468 110.572 268.287 110.753C268.128 110.912 268.049 111.24 268.049 111.738V115.067ZM321.569 126.513C320.346 126.513 319.305 126.083 318.444 125.222C317.584 124.362 317.154 123.32 317.154 122.097V114.829H333.491V111.738C333.491 111.24 333.412 110.912 333.253 110.753C333.095 110.572 332.766 110.481 332.268 110.481H317.154V106.813H332.778C334 106.813 335.042 107.243 335.902 108.104C336.763 108.964 337.193 110.006 337.193 111.229V126.513H321.569ZM322.079 122.845H333.491V118.259H320.822V121.588C320.822 122.086 320.901 122.426 321.06 122.607C321.241 122.765 321.58 122.845 322.079 122.845Z" fill="#1D1D1F"/>
<path d="M291.362 126.513C290.139 126.513 289.098 126.083 288.237 125.222C287.377 124.362 286.947 123.32 286.947 122.097V111.229C286.947 110.006 287.377 108.964 288.237 108.104C289.098 107.243 290.139 106.813 291.362 106.813H303.318V100.36H306.986V126.513H291.362ZM291.905 122.845H302.095C302.593 122.845 302.922 122.765 303.08 122.607C303.239 122.426 303.318 122.086 303.318 121.588V111.738C303.318 111.24 303.239 110.912 303.08 110.753C302.922 110.572 302.593 110.481 302.095 110.481H291.905C291.407 110.481 291.068 110.572 290.887 110.753C290.728 110.912 290.649 111.24 290.649 111.738V121.588C290.649 122.086 290.728 122.426 290.887 122.607C291.068 122.765 291.407 122.845 291.905 122.845ZM310.586 126.513V106.813H314.254V126.513H310.586ZM310.586 104.028V100.36H314.254V104.028H310.586Z" fill="#6A49FF"/>
<path d="M235.989 168.026C234.767 168.026 233.725 167.596 232.865 166.736C232.004 165.875 231.574 164.834 231.574 163.611V163.101H235.242V163.305C235.242 163.667 235.321 163.939 235.48 164.12C235.661 164.279 235.933 164.358 236.295 164.358H246.892C247.255 164.358 247.515 164.279 247.673 164.12C247.832 163.939 247.911 163.667 247.911 163.305V161.063C247.911 160.701 247.832 160.441 247.673 160.282C247.515 160.101 247.255 160.011 246.892 160.011H235.989C234.767 160.011 233.725 159.58 232.865 158.72C232.004 157.859 231.574 156.818 231.574 155.595V152.742C231.574 151.519 232.004 150.478 232.865 149.617C233.725 148.757 234.767 148.327 235.989 148.327H247.198C248.421 148.327 249.462 148.757 250.323 149.617C251.183 150.478 251.613 151.519 251.613 152.742V153.251H247.911V153.048C247.911 152.685 247.832 152.425 247.673 152.266C247.515 152.085 247.255 151.995 246.892 151.995H236.295C235.933 151.995 235.661 152.085 235.48 152.266C235.321 152.425 235.242 152.685 235.242 153.048V155.289C235.242 155.652 235.321 155.923 235.48 156.105C235.661 156.263 235.933 156.342 236.295 156.342H247.198C248.421 156.342 249.462 156.773 250.323 157.633C251.183 158.493 251.613 159.535 251.613 160.758V163.611C251.613 164.834 251.183 165.875 250.323 166.736C249.462 167.596 248.421 168.026 247.198 168.026H235.989ZM255.062 168.026V141.873H258.731V148.327H270.686C271.887 148.327 272.917 148.757 273.777 149.617C274.66 150.478 275.102 151.519 275.102 152.742V168.026H271.434V153.251C271.434 152.753 271.343 152.425 271.162 152.266C271.004 152.085 270.675 151.995 270.177 151.995H259.987C259.489 151.995 259.15 152.085 258.968 152.266C258.81 152.425 258.731 152.753 258.731 153.251V168.026H255.062Z" fill="#6A49FF"/>
<path d="M282.197 168.026C280.975 168.026 279.933 167.596 279.072 166.736C278.212 165.875 277.782 164.834 277.782 163.611V156.342H294.119V153.251C294.119 152.753 294.04 152.425 293.881 152.266C293.723 152.085 293.394 151.995 292.896 151.995H277.782V148.327H293.406C294.629 148.327 295.67 148.757 296.531 149.617C297.391 150.478 297.821 151.519 297.821 152.742V168.026H282.197ZM282.707 164.358H294.119V159.773H281.45V163.101C281.45 163.6 281.529 163.939 281.688 164.12C281.869 164.279 282.209 164.358 282.707 164.358ZM300.934 168.026V152.742C300.934 151.519 301.364 150.478 302.225 149.617C303.085 148.757 304.127 148.327 305.349 148.327H316.354V151.995H305.859C305.361 151.995 305.021 152.085 304.84 152.266C304.681 152.425 304.602 152.753 304.602 153.251V168.026H300.934ZM322.995 168.026C321.772 168.026 320.73 167.596 319.87 166.736C319.009 165.875 318.579 164.834 318.579 163.611V152.742C318.579 151.519 319.009 150.478 319.87 149.617C320.73 148.757 321.772 148.327 322.995 148.327H334.203C335.426 148.327 336.467 148.757 337.328 149.617C338.188 150.478 338.619 151.519 338.619 152.742V160.011H322.247V163.101C322.247 163.6 322.327 163.939 322.485 164.12C322.666 164.279 323.006 164.358 323.504 164.358H338.619V168.026H322.995ZM322.247 156.58H334.916V153.251C334.916 152.753 334.837 152.425 334.679 152.266C334.52 152.085 334.192 151.995 333.694 151.995H323.504C323.006 151.995 322.666 152.085 322.485 152.266C322.327 152.425 322.247 152.753 322.247 153.251V156.58Z" fill="#1D1D1F"/>
<path d="M69.7879 96.5129C69.7879 96.1221 69.4711 95.8053 69.0803 95.8053C68.6895 95.8053 68.3727 96.1221 68.3727 96.5129L69.0803 96.5129L69.7879 96.5129ZM146.917 144.63L147.061 145.323L146.917 144.63ZM160.126 120.572L160.25 119.875L160.126 120.572ZM177.344 149.819L177.207 149.125L177.344 149.819ZM222.424 117.534C222.701 117.258 222.701 116.81 222.424 116.533L217.921 112.03C217.645 111.754 217.197 111.754 216.92 112.03C216.644 112.306 216.644 112.754 216.92 113.031L220.923 117.034L216.92 121.036C216.644 121.313 216.644 121.761 216.92 122.037C217.197 122.313 217.645 122.313 217.921 122.037L222.424 117.534ZM69.0803 96.5129L68.3727 96.5129C68.3727 113.019 76.0336 127.745 89.7333 137.078C103.428 146.407 123.093 150.307 147.061 145.323L146.917 144.63L146.773 143.938C123.096 148.86 103.843 144.977 90.5301 135.908C77.2227 126.843 69.7879 112.557 69.7879 96.5129L69.0803 96.5129ZM146.917 144.63L147.061 145.323C160.766 142.474 167.72 136.965 169.382 131.567C170.222 128.838 169.682 126.195 168.027 124.091C166.384 122.001 163.681 120.488 160.25 119.875L160.126 120.572L160.002 121.268C163.175 121.835 165.534 123.209 166.915 124.966C168.284 126.707 168.732 128.868 168.029 131.15C166.606 135.773 160.351 141.114 146.773 143.938L146.917 144.63ZM160.126 120.572L160.25 119.875C155.349 119 151.733 120.962 149.713 124.32C147.723 127.629 147.317 132.22 148.57 136.643C149.828 141.081 152.771 145.411 157.569 148.199C162.372 150.99 168.972 152.2 177.482 150.514L177.344 149.819L177.207 149.125C168.966 150.759 162.73 149.561 158.28 146.976C153.826 144.387 151.098 140.373 149.932 136.257C148.761 132.125 149.179 127.954 150.926 125.05C152.642 122.196 155.675 120.496 160.002 121.268L160.126 120.572ZM177.344 149.819L177.482 150.514C184.169 149.188 188.589 146.419 191.885 142.998C195.155 139.604 197.302 135.576 199.452 131.833C201.619 128.058 203.793 124.561 207.131 121.987C210.445 119.432 214.973 117.741 221.924 117.741V117.034V116.326C214.723 116.326 209.874 118.085 206.267 120.866C202.684 123.629 200.391 127.355 198.224 131.128C196.04 134.933 193.986 138.777 190.865 142.017C187.77 145.229 183.61 147.856 177.207 149.125L177.344 149.819Z" fill="#6A49FF"/>
</svg>
