<svg width="167" height="167" viewBox="0 0 167 167" fill="none" xmlns="http://www.w3.org/2000/svg">
<rect width="167" height="167" fill="#3A9DF9"/>
<path d="M83.3877 53.9788C84.0708 51.4268 85.6545 52.2224 86.1123 53.7161C87.3958 57.8817 88.8969 55.6 90.5482 54.1664C96.4101 49.0775 103 45.4148 110.783 44.3039C111.842 44.1538 113.651 43.4183 113.951 45.107C114.191 46.428 112.442 46.5031 111.436 46.8484C95.4719 52.275 85.6169 63.7287 79.5824 79.0027C78.3139 82.2077 78.9369 83.5362 82.6672 83.251C91.0811 82.6055 99.1872 83.8739 107.406 86.1857C121.269 90.0886 134.637 88.0696 146.766 79.8209C147.644 79.2204 148.515 77.9144 149.58 79.2579C150.444 80.3463 149.483 81.4121 148.792 82.2452C145.873 85.7879 142.367 88.6851 137.887 89.8259C134.779 90.614 132.918 92.2353 131.814 95.155C125.119 112.974 92.0343 118.242 79.1696 99.7335C77.2706 97.0014 76.0322 97.2716 73.6379 98.7277C62.8972 105.243 51.7288 108.605 39.6221 102.285C38.3086 101.602 36.9801 100.769 35.9593 99.7184C29.2418 92.8207 25.3627 82.3704 21.1813 80.0817C16.9998 77.793 17.0004 74.3306 17 72.8331C17 72.0124 17.0272 70.767 17.7431 70.6114C18.4589 70.4557 18.7263 71.6697 18.8464 72.2776C19.3268 74.6044 20.7228 76.4583 22.8919 76.706C25.1211 76.9612 24.956 74.2817 25.6691 72.8781C33.1372 58.0468 44.2531 47.3212 60.1652 41.9847C61.929 41.3917 64.8712 40.0557 65.5618 42.0747C66.3724 44.4465 63.0624 43.9587 61.5838 44.6267C46.9777 51.2017 36.1245 61.5745 29.3093 76.113C28.5212 77.7943 27.6881 79.8359 30.4427 80.0685C42.144 81.0668 53.8079 80.9017 65.2916 78.012C68.1587 75.8654 71.3937 74.2441 74.2984 72.2176C79.0495 68.9001 81.6389 63.6686 84.1608 58.5948C84.8589 57.1912 83.3352 55.585 83.3877 53.9713V53.9788Z" fill="#010204"/>
<path d="M83.3853 53.9834C86.335 56.4227 85.727 58.8096 83.9557 61.8644C79.5574 69.4676 73.823 75.2996 65.2891 78.0166C72.2168 70.6761 78.3715 62.7651 83.3777 53.9834H83.3853Z" fill="#226DBA"/>
<path d="M92.4974 127C85.365 126.488 80.7264 123.417 77.7842 121.03C74.8419 118.643 73.9029 118.28 74.9086 117.042C75.6442 116.134 76.4773 116.674 77.2654 117.079C83.4651 120.262 90.0026 122.123 97.0054 122.273C98.2438 122.303 100.12 122.536 99.6849 124.067C99.2099 125.738 98.5721 126.699 96.7532 126.846C94.9343 126.992 94.3741 127 92.4974 127Z" fill="#020B16"/>
<path d="M121.349 100.552C122.977 99.1783 122.799 96.0107 118.906 92.9231C115.014 89.8356 109.081 89.0768 105.636 89.4656C102.192 89.8544 102.861 94.6524 101.481 94.6524C100.101 94.6524 100.023 90.8655 98.8063 89.464C97.1782 87.5905 92.4993 87.5873 88.7458 87.589C84.9923 87.5906 81.6761 89.8953 81.2383 91.59C80.255 95.3954 83.0847 98.4052 85.9368 100.754C95.5966 108.726 111.824 108.538 121.349 100.552Z" fill="#FDFDFD"/>
<path d="M49.6003 83.8384C52.0273 83.8384 53.3231 85.0309 53.6533 88.2809C53.7209 88.9489 54.2928 90.1023 55.0344 90.1648C55.776 90.2274 56.2503 89.1816 56.3854 88.5811C57.7515 82.7642 63.0067 81.959 66.2254 81.959C69.4441 81.959 71.2955 83.8374 73.7324 85.7178C76.5067 88.5811 75.7876 91.3132 73.5959 93.5048C66.1203 100.996 52.1597 103.165 42.5599 98.7363C38.2892 96.7698 33.8308 93.8351 34.5739 89.0465C35.2494 84.6932 39.951 84.0702 43.3935 84.0702C44.7628 84.0627 46.9224 83.8384 49.6003 83.8384Z" fill="#FCFDFD"/>
</svg>
